STARTFONT 2.1
COMMENT
COMMENT Converted from OpenType font "CreviceStencil-7RJ4.ttf" by "otf2bdf 3.0".
COMMENT
FONT -FreeType-Crevice Stencil-Medium-R-Normal--138-1000-100-100-P-547-ISO10646-1
SIZE 100 100 100
FONTBOUNDINGBOX 97 123 -2 -14
STARTPROPERTIES 19
FOUNDRY "FreeType"
FAMILY_NAME "Crevice Stencil"
WEIGHT_NAME "Medium"
SLANT "R"
SETWIDTH_NAME "Normal"
ADD_STYLE_NAME ""
PIXEL_SIZE 138
POINT_SIZE 1000
RESOLUTION_X 100
RESOLUTION_Y 100
SPACING "P"
AVERAGE_WIDTH 547
CHARSET_REGISTRY "ISO10646"
CHARSET_ENCODING "1"
FONT_ASCENT 116
FONT_DESCENT 28
COPYRIGHT "Typeface by Chequered Ink. © 2017. All Rights Reserved"
_OTF_FONTFILE "CreviceStencil-7RJ4.ttf"
_OTF_PSNAME "CreviceStencil"
ENDPROPERTIES
CHARS 100
STARTCHAR 0000
ENCODING 0
SWIDTH 0 0
DWIDTH 0 0
BBX 0 0 0 0
BITMAP
ENDCHAR
STARTCHAR 001D
ENCODING 29
SWIDTH 0 0
DWIDTH 0 0
BBX 0 0 0 0
BITMAP
ENDCHAR
STARTCHAR 0020
ENCODING 32
SWIDTH 244 0
DWIDTH 34 0
BBX 0 0 0 0
BITMAP
ENDCHAR
STARTCHAR 0021
ENCODING 33
SWIDTH 144 0
DWIDTH 20 0
BBX 14 95 0 0
BITMAP
FFFC
FFFC
FFFC
FFFC
FFFC
FFFC
FFFC
FFFC
FFFC
FFFC
FFFC
FFFC
FFFC
FFFC
FFFC
FFFC
FFFC
FFFC
FFFC
FFFC
FFFC
FFFC
FFFC
FFFC
FFFC
FFFC
FFFC
FFFC
FFFC
FFFC
FFFC
FFFC
FFFC
FFFC
FFFC
FFFC
FFFC
FFFC
FFFC
FFFC
FFFC
FFFC
FFFC
FFFC
FFFC
FFFC
FFFC
FFFC
FFFC
FFFC
FFFC
FFFC
FFFC
FFFC
FFFC
FFFC
FFFC
FFFC
FFFC
FFFC
FFFC
FFFC
FFFC
FFFC
FFFC
FFFC
FFFC
FFFC
FFFC
FFFC
FFFC
FFFC
FFFC
FFFC
FFFC
0000
0000
0000
0000
0000
0000
FFFC
FFFC
FFFC
FFFC
FFFC
FFFC
FFFC
FFFC
FFFC
FFFC
FFFC
FFFC
FFFC
FFFC
ENDCHAR
STARTCHAR 0022
ENCODING 34
SWIDTH 295 0
DWIDTH 41 0
BBX 34 27 0 68
BITMAP
FFFC0FFFC0
FFFC0FFFC0
FFFC0FFFC0
FFFC0FFFC0
FFFC0FFFC0
FFFC0FFFC0
FFFC0FFFC0
FFFC0FFFC0
FFFC0FFFC0
FFFC0FFFC0
FFFC0FFFC0
FFFC0FFFC0
FFFC0FFFC0
FFFC0FFFC0
FFFC0FFFC0
FFFC0FFFC0
FFFC0FFFC0
FFFC0FFFC0
FFFC0FFFC0
FFFC0FFFC0
FFFC0FFFC0
FFFC0FFFC0
FFFC0FFFC0
FFFC0FFFC0
FFFC0FFFC0
FFFC0FFFC0
FFFC0FFFC0
ENDCHAR
STARTCHAR 0023
ENCODING 35
SWIDTH 540 0
DWIDTH 75 0
BBX 68 95 0 0
BITMAP
0003FFE0007FFC0000
0003FFE0007FFC0000
0003FFE0007FFC0000
0003FFE0007FFC0000
0003FFE0007FFC0000
0003FFE0007FFC0000
0003FFE0007FFC0000
0003FFE0007FFC0000
0003FFE0007FFC0000
0003FFE0007FFC0000
0003FFE0007FFC0000
0003FFE0007FFC0000
0003FFE0007FFC0000
0003FFE0007FFC0000
0003FFE0007FFC0000
0003FFE0007FFC0000
0003FFE0007FFC0000
0003FFE0007FFC0000
0003FFE0007FFC0000
0003FFE0007FFC0000
FFFFFFFFFFFFFFFFF0
FFFFFFFFFFFFFFFFF0
FFFFFFFFFFFFFFFFF0
FFFFFFFFFFFFFFFFF0
FFFFFFFFFFFFFFFFF0
FFFFFFFFFFFFFFFFF0
FFFFFFFFFFFFFFFFF0
FFFFFFFFFFFFFFFFF0
FFFFFFFFFFFFFFFFF0
FFFFFFFFFFFFFFFFF0
FFFFFFFFFFFFFFFFF0
FFFFFFFFFFFFFFFFF0
FFFFFFFFFFFFFFFFF0
FFFFFFFFFFFFFFFFF0
00000000007FFC0000
00000000007FFC0000
00000000007FFC0000
00000000007FFC0000
00000000007FFC0000
00000000007FFC0000
00000000007FFC0000
0003FFE0007FFC0000
0003FFE0007FFC0000
0003FFE0007FFC0000
0003FFE0007FFC0000
0003FFE0007FFC0000
0003FFE0007FFC0000
0003FFE0007FFC0000
0003FFE0007FFC0000
0003FFE0007FFC0000
0003FFE0007FFC0000
0003FFE0007FFC0000
0003FFE0007FFC0000
0003FFE0007FFC0000
0003FFE00000000000
0003FFE00000000000
0003FFE00000000000
0003FFE00000000000
0003FFE00000000000
0003FFE00000000000
0003FFE00000000000
FFFFFFFFFFFFFFFFF0
FFFFFFFFFFFFFFFFF0
FFFFFFFFFFFFFFFFF0
FFFFFFFFFFFFFFFFF0
FFFFFFFFFFFFFFFFF0
FFFFFFFFFFFFFFFFF0
FFFFFFFFFFFFFFFFF0
FFFFFFFFFFFFFFFFF0
FFFFFFFFFFFFFFFFF0
FFFFFFFFFFFFFFFFF0
FFFFFFFFFFFFFFFFF0
FFFFFFFFFFFFFFFFF0
FFFFFFFFFFFFFFFFF0
FFFFFFFFFFFFFFFFF0
0003FFE0007FFC0000
0003FFE0007FFC0000
0003FFE0007FFC0000
0003FFE0007FFC0000
0003FFE0007FFC0000
0003FFE0007FFC0000
0003FFE0007FFC0000
0003FFE0007FFC0000
0003FFE0007FFC0000
0003FFE0007FFC0000
0003FFE0007FFC0000
0003FFE0007FFC0000
0003FFE0007FFC0000
0003FFE0007FFC0000
0003FFE0007FFC0000
0003FFE0007FFC0000
0003FFE0007FFC0000
0003FFE0007FFC0000
0003FFE0007FFC0000
0003FFE0007FFC0000
ENDCHAR
STARTCHAR 0024
ENCODING 36
SWIDTH 540 0
DWIDTH 75 0
BBX 68 122 0 -13
BITMAP
00000FFFC07FFC0000
00000FFFC07FFC0000
00000FFFC07FFC0000
00000FFFC07FFC0000
00000FFFC07FFC0000
00000FFFC07FFC0000
00000FFFC07FFC0000
00000FFFC07FFC0000
00000FFFC07FFC0000
00000FFFC07FFC0000
00000FFFC07FFC0000
00000FFFC07FFC0000
00000FFFC07FFC0000
00000FFFC07FFC0000
00000FFFC07FFFFFF0
00000FFFC07FFFFFF0
00007FFFC07FFFFFF0
0003FFFFC07FFFFFF0
000FFFFFC07FFFFFF0
003FFFFFC07FFFFFF0
007FFFFFC07FFFFFF0
00FFFFFFC07FFFFFF0
01FFFFFFC07FFFFFF0
03FFFFFFC07FFFFFF0
07FFFFFFC07FFFFFF0
0FFFFFFFC07FFFFFF0
0FFFFFFFC07FFFFFF0
1FFFFFF0000003FFF0
3FFFFE00000003FFF0
3FFFF000000003FFF0
3FFFE000000003FFF0
7FFF8000000003FFF0
7FFF0000000003FFF0
7FFF0000000003FFF0
7FFE0000000003FFF0
FFFE0000000003FFF0
FFFC0000000003FFF0
FFFC0000000003FFF0
FFFC0000000003FFF0
FFFC0000000003FFF0
FFFC0000000003FFF0
FFFC00000000000000
FFFC00000000000000
FFFC00000000000000
FFFC00000000000000
FFFC00000000000000
FFFE00000000000000
7FFE00000000000000
7FFF00000000000000
7FFF80000000000000
7FFFC0000000000000
3FFFE0000000000000
3FFFFC000000000000
3FFFFF800000000000
1FFFFFFFE000000000
1FFFFFFFFFFC000000
0FFFFFFFFFFFC00000
07FFFFFFFFFFF80000
03FFFFFFFFFFFE0000
03FFFFFFFFFFFF8000
00FFFFFFFFFFFFC000
007FFFFFFFFFFFF000
003FFFFFFFFFFFF800
000FFFFFFFFFFFFC00
0003FFFFFFFFFFFE00
0000FFFFFFFFFFFE00
00000FFFFFFFFFFF00
0000007FFFFFFFFF80
00000000007FFFFF80
000000000007FFFFC0
000000000000FFFFC0
0000000000007FFFC0
0000000000001FFFE0
0000000000000FFFE0
0000000000000FFFE0
00000000000007FFE0
00000000000007FFF0
00000000000003FFF0
00000000000003FFF0
00000000000003FFF0
00000000000003FFF0
00000000000003FFF0
FFFC0000000003FFF0
FFFC0000000003FFF0
FFFC0000000003FFF0
FFFC0000000003FFF0
FFFC0000000007FFF0
FFFC0000000007FFE0
FFFC000000000FFFE0
FFFC000000000FFFE0
FFFC000000001FFFE0
FFFC000000007FFFE0
FFFC00000000FFFFC0
FFFC00000007FFFFC0
FFFC0000007FFFFF80
FFFFFFE03FFFFFFF80
FFFFFFE03FFFFFFF00
FFFFFFE03FFFFFFF00
FFFFFFE03FFFFFFE00
FFFFFFE03FFFFFFC00
FFFFFFE03FFFFFF800
FFFFFFE03FFFFFF000
FFFFFFE03FFFFFE000
FFFFFFE03FFFFFC000
FFFFFFE03FFFFF0000
FFFFFFE03FFFFC0000
FFFFFFE03FFFE00000
FFFFFFE03FFF000000
FFFFFFE03FFF000000
0003FFE03FFF000000
0003FFE03FFF000000
0003FFE03FFF000000
0003FFE03FFF000000
0003FFE03FFF000000
0003FFE03FFF000000
0003FFE03FFF000000
0003FFE03FFF000000
0003FFE03FFF000000
0003FFE03FFF000000
0003FFE03FFF000000
0003FFE03FFF000000
0003FFE03FFF000000
ENDCHAR
STARTCHAR 0025
ENCODING 37
SWIDTH 540 0
DWIDTH 75 0
BBX 68 95 0 0
BITMAP
FFFFF00000001FFFF0
FFFFF00000001FFFE0
FFFFF00000003FFFE0
FFFFF00000003FFFC0
FFFFF00000007FFF80
FFFFF00000007FFF80
FFFFF0000000FFFF00
FFFFF0000001FFFF00
FFFFF0000001FFFE00
FFFFF0000003FFFE00
FFFFF0000003FFFC00
FFFFF0000007FFFC00
FFFFF0000007FFF800
FFFFF000000FFFF800
FFFC0000000FFFF000
FFFC0000001FFFE000
FFFC0000001FFFE000
FFFC0000003FFFC000
FFFC0000003FFFC000
FFFC0000007FFF8000
0000000000FFFF8000
0000000000FFFF0000
0000000001FFFF0000
0000000001FFFE0000
0000000003FFFE0000
0000000003FFFC0000
0000000007FFFC0000
0000000007FFF80000
000000000FFFF00000
000000000FFFF00000
000000001FFFE00000
000000003FFFE00000
000000003FFFC00000
000000007FFFC00000
000000007FFF800000
00000000FFFF800000
00000000FFFF000000
00000001FFFF000000
00000001FFFE000000
00000003FFFC000000
00000003FFFC000000
00000007FFF8000000
0000000FFFF8000000
0000000FFFF0000000
0000001FFFF0000000
0000001FFFE0000000
0000003FFFE0000000
0000003FFFC0000000
0000007FFFC0000000
0000007FFF80000000
000000FFFF00000000
000000FFFF00000000
000001FFFE00000000
000001FFFE00000000
000003FFFC00000000
000007FFFC00000000
000007FFF800000000
00000FFFF800000000
00000FFFF000000000
00001FFFF000000000
00001FFFE000000000
00003FFFE000000000
00003FFFC000000000
00007FFF8000000000
00007FFF8000000000
0000FFFF0000000000
0001FFFF0000000000
0001FFFE0000000000
0003FFFE0000000000
0003FFFC0000000000
0007FFFC0000000000
0007FFF80000000000
000FFFF80000000000
000FFFF00000000000
001FFFE00000000000
001FFFE0000003FFF0
003FFFC0000003FFF0
007FFFC0000003FFF0
007FFF80000003FFF0
00FFFF80000003FFF0
00FFFF00000003FFF0
01FFFF000000FFFFF0
01FFFE000000FFFFF0
03FFFE000000FFFFF0
03FFFC000000FFFFF0
07FFF8000000FFFFF0
07FFF8000000FFFFF0
0FFFF0000000FFFFF0
0FFFF0000000FFFFF0
1FFFE0000000FFFFF0
3FFFE0000000FFFFF0
3FFFC0000000FFFFF0
7FFFC0000000FFFFF0
7FFF80000000FFFFF0
FFFF80000000FFFFF0
ENDCHAR
STARTCHAR 0026
ENCODING 38
SWIDTH 583 0
DWIDTH 81 0
BBX 75 95 0 0
BITMAP
0000007FC07FFC000000
00000FFFC07FFC000000
0000FFFFC07FFC000000
0003FFFFC07FFC000000
000FFFFFC07FFC000000
003FFFFFC07FFC000000
007FFFFFC07FFC000000
00FFFFFFC07FFC000000
01FFFFFFC07FFC000000
03FFFFFFC07FFC000000
07FFFFFFC07FFC000000
0FFFFFFFC07FFC000000
1FFFFFFFC07FFC000000
1FFFFFFFC07FFC000000
3FFFFF80007FFC000000
3FFFF800007FFC000000
3FFFE000007FFC000000
7FFFC000007FFC000000
7FFF8000007FFC000000
7FFF0000007FFC000000
7FFE0000000000000000
FFFE0000000000000000
FFFC0000000000000000
FFFC0000000000000000
FFFC0000000000000000
FFFC0000000000000000
FFFC0000000000000000
FFFC0000000003FFF000
FFFC0000000003FFF000
FFFC0000000003FFF000
FFFC0000000003FFF000
FFFC0000000003FFF000
FFFE0000000003FFF000
7FFE0000000003FFF000
7FFF0000000003FFF000
7FFF8000000003FFF000
7FFFC000000003FFF000
3FFFE000000003FFF000
3FFFF800000003FFF000
3FFFFF80000003FFF000
1FFFFFFFC07FFFFFFFE0
1FFFFFFFC07FFFFFFFE0
0FFFFFFFC07FFFFFFFE0
07FFFFFFC07FFFFFFFE0
03FFFFFFC07FFFFFFFE0
01FFFFFFC07FFFFFFFE0
00FFFFFFC07FFFFFFFE0
00FFFFFFC07FFFFFFFE0
01FFFFFFC07FFFFFFFE0
03FFFFFFC07FFFFFFFE0
07FFFFFFC07FFFFFFFE0
0FFFFFFFC07FFFFFFFE0
0FFFFFFFC07FFFFFFFE0
1FFFFFFFC07FFFFFFFE0
1FFFFFE0000003FFF000
3FFFFE00000003FFF000
3FFFF000000003FFF000
7FFFE000000003FFF000
7FFF8000000003FFF000
7FFF0000000003FFF000
7FFF0000000003FFF000
FFFE0000000003FFF000
FFFC0000000003FFF000
FFFC0000000003FFF000
FFFC0000000003FFF000
FFFC0000000003FFF000
FFFC0000000003FFF000
FFFC0000000003FFF000
FFFC0000000003FFF000
FFFC0000000003FFF000
FFFC0000000003FFF000
FFFC0000000003FFF000
FFFC0000000003FFF000
FFFE0000000003FFF000
7FFE0000000003FFF000
7FFF0000000003FFF000
7FFF8000000003FFF000
7FFFC000000003FFF000
3FFFE000000003FFF000
3FFFFC00000003FFF000
3FFFFF80000003FFF000
1FFFFFFFC07FFFFFFFE0
0FFFFFFFC07FFFFFFFE0
0FFFFFFFC07FFFFFFFE0
07FFFFFFC07FFFFFFFE0
03FFFFFFC07FFFFFFFE0
01FFFFFFC07FFFFFFFE0
00FFFFFFC07FFFFFFFE0
007FFFFFC07FFFFFFFE0
003FFFFFC07FFFFFFFE0
000FFFFFC07FFFFFFFE0
0003FFFFC07FFFFFFFE0
0000FFFFC07FFFFFFFE0
00000FFFC07FFFFFFFE0
0000007FC07FFFFFFFE0
ENDCHAR
STARTCHAR 0027
ENCODING 39
SWIDTH 144 0
DWIDTH 20 0
BBX 14 27 0 68
BITMAP
FFFC
FFFC
FFFC
FFFC
FFFC
FFFC
FFFC
FFFC
FFFC
FFFC
FFFC
FFFC
FFFC
FFFC
FFFC
FFFC
FFFC
FFFC
FFFC
FFFC
FFFC
FFFC
FFFC
FFFC
FFFC
FFFC
FFFC
ENDCHAR
STARTCHAR 0028
ENCODING 40
SWIDTH 244 0
DWIDTH 34 0
BBX 27 109 0 -7
BITMAP
00000020
00000FE0
00003FE0
0000FFE0
0003FFE0
0007FFE0
000FFFE0
001FFFE0
003FFFE0
007FFFE0
007FFFE0
00FFFFE0
00FFFFE0
01FFFFE0
01FFFF00
03FFFC00
03FFF800
07FFF000
07FFF000
0FFFE000
0FFFC000
0FFFC000
0FFFC000
1FFF8000
1FFF8000
1FFF8000
1FFF0000
3FFF0000
3FFF0000
3FFF0000
3FFE0000
3FFE0000
7FFE0000
7FFE0000
7FFE0000
7FFE0000
7FFC0000
7FFC0000
7FFC0000
7FFC0000
7FFC0000
FFFC0000
FFFC0000
FFFC0000
FFFC0000
FFFC0000
FFFC0000
FFFC0000
FFFC0000
FFFC0000
FFFC0000
FFFC0000
FFFC0000
FFFC0000
FFFC0000
FFFC0000
FFFC0000
FFFC0000
FFFC0000
FFFC0000
FFFC0000
FFFC0000
FFFC0000
FFFC0000
FFFC0000
FFFC0000
FFFC0000
FFFC0000
FFFC0000
7FFC0000
7FFC0000
7FFC0000
7FFC0000
7FFE0000
7FFE0000
7FFE0000
7FFE0000
3FFE0000
3FFE0000
3FFE0000
3FFF0000
3FFF0000
3FFF0000
1FFF0000
1FFF8000
1FFF8000
1FFF8000
0FFFC000
0FFFC000
0FFFE000
07FFE000
07FFF000
07FFF800
03FFFC00
03FFFE00
01FFFFE0
01FFFFE0
00FFFFE0
00FFFFE0
007FFFE0
003FFFE0
001FFFE0
000FFFE0
0007FFE0
0003FFE0
0001FFE0
00007FE0
00001FE0
000003E0
ENDCHAR
STARTCHAR 0029
ENCODING 41
SWIDTH 244 0
DWIDTH 34 0
BBX 27 109 0 -7
BITMAP
80000000
FE000000
FFC00000
FFE00000
FFF80000
FFFC0000
FFFE0000
FFFF0000
FFFF8000
FFFFC000
FFFFC000
FFFFE000
FFFFF000
FFFFF000
1FFFF800
07FFF800
03FFF800
01FFFC00
01FFFC00
00FFFE00
007FFE00
007FFE00
003FFF00
003FFF00
003FFF00
001FFF00
001FFF80
001FFF80
001FFF80
000FFF80
000FFF80
000FFFC0
000FFFC0
000FFFC0
000FFFC0
0007FFC0
0007FFC0
0007FFC0
0007FFC0
0007FFE0
0007FFE0
0007FFE0
0007FFE0
0007FFE0
0007FFE0
0007FFE0
0007FFE0
0007FFE0
0007FFE0
0007FFE0
0003FFE0
0003FFE0
0003FFE0
0003FFE0
0003FFE0
0003FFE0
0003FFE0
0003FFE0
0003FFE0
0003FFE0
0007FFE0
0007FFE0
0007FFE0
0007FFE0
0007FFE0
0007FFE0
0007FFE0
0007FFE0
0007FFE0
0007FFE0
0007FFC0
0007FFC0
0007FFC0
0007FFC0
000FFFC0
000FFFC0
000FFFC0
000FFFC0
000FFF80
000FFF80
001FFF80
001FFF80
001FFF80
001FFF00
003FFF00
003FFF00
003FFF00
007FFE00
007FFE00
00FFFE00
00FFFC00
01FFFC00
03FFFC00
07FFF800
0FFFF800
FFFFF000
FFFFF000
FFFFE000
FFFFE000
FFFFC000
FFFF8000
FFFF0000
FFFE0000
FFFC0000
FFF80000
FFF00000
FFC00000
FF000000
F8000000
ENDCHAR
STARTCHAR 002A
ENCODING 42
SWIDTH 439 0
DWIDTH 61 0
BBX 54 54 0 41
BITMAP
00000FFFC00000
00000FFFC00000
00000FFFC00000
00000FFFC00000
00000FFFC00000
00000FFFC00000
00000FFFC00000
00000FFFC00000
01800FFFC00300
03C00FFFC00F00
07F00FFFC03F80
07FC0FFFC07F80
0FFE0FFFC1FFC0
0FFF8FFFC7FFE0
1FFFEFFFDFFFE0
1FFFFFFFFFFFF0
3FFFFFFFFFFFF0
7FFFFFFFFFFFF8
7FFFFFFFFFFFF8
FFFFFFFFFFFFFC
3FFFFFFFFFFFF0
0FFFFFFFFFFFE0
07FFFFFFFFFF80
01FFFFFFFFFE00
007FFFFFFFF800
001FFFFFFFF000
000FFFFFFFC000
0007FFFFFF8000
001FFFFFFFE000
007FFFFFFFF800
00FFFFFFFFFE00
03FFFFFFFFFF00
0FFFFFFFFFFFC0
1FFFFFFFFFFFF0
FFFFFFFFFFFFF8
7FFFFFFFFFFFFC
7FFFFFFFFFFFF8
3FFFFFFFFFFFF8
3FFFFFFFFFFFF0
1FFFEFFFDFFFE0
0FFFCFFFC7FFE0
0FFF0FFFC3FFC0
07FC0FFFC0FFC0
07F00FFFC03F80
03E00FFFC00F00
03800FFFC00700
01000FFFC00100
00000FFFC00000
00000FFFC00000
00000FFFC00000
00000FFFC00000
00000FFFC00000
00000FFFC00000
00000FFFC00000
ENDCHAR
STARTCHAR 002B
ENCODING 43
SWIDTH 439 0
DWIDTH 61 0
BBX 54 54 0 20
BITMAP
00000FFFC00000
00000FFFC00000
00000FFFC00000
00000FFFC00000
00000FFFC00000
00000FFFC00000
00000FFFC00000
00000FFFC00000
00000FFFC00000
00000FFFC00000
00000FFFC00000
00000FFFC00000
00000FFFC00000
00000FFFC00000
00000FFFC00000
00000FFFC00000
00000FFFC00000
00000FFFC00000
00000FFFC00000
00000FFFC00000
FFFFFFFFFFFFFC
FFFFFFFFFFFFFC
FFFFFFFFFFFFFC
FFFFFFFFFFFFFC
FFFFFFFFFFFFFC
FFFFFFFFFFFFFC
FFFFFFFFFFFFFC
FFFFFFFFFFFFFC
FFFFFFFFFFFFFC
FFFFFFFFFFFFFC
FFFFFFFFFFFFFC
FFFFFFFFFFFFFC
FFFFFFFFFFFFFC
FFFFFFFFFFFFFC
00000FFFC00000
00000FFFC00000
00000FFFC00000
00000FFFC00000
00000FFFC00000
00000FFFC00000
00000FFFC00000
00000FFFC00000
00000FFFC00000
00000FFFC00000
00000FFFC00000
00000FFFC00000
00000FFFC00000
00000FFFC00000
00000FFFC00000
00000FFFC00000
00000FFFC00000
00000FFFC00000
00000FFFC00000
00000FFFC00000
ENDCHAR
STARTCHAR 002C
ENCODING 44
SWIDTH 144 0
DWIDTH 20 0
BBX 14 27 0 -14
BITMAP
FFFC
FFFC
FFFC
FFFC
FFFC
FFFC
FFFC
FFFC
FFFC
FFFC
FFFC
FFFC
FFFC
FFFC
FFFC
FFFC
FFFC
FFFC
FFFC
FFFC
FFFC
FFFC
FFFC
FFFC
FFFC
FFFC
FFFC
ENDCHAR
STARTCHAR 002D
ENCODING 45
SWIDTH 295 0
DWIDTH 41 0
BBX 34 14 0 41
BITMAP
FFFFFFFFC0
FFFFFFFFC0
FFFFFFFFC0
FFFFFFFFC0
FFFFFFFFC0
FFFFFFFFC0
FFFFFFFFC0
FFFFFFFFC0
FFFFFFFFC0
FFFFFFFFC0
FFFFFFFFC0
FFFFFFFFC0
FFFFFFFFC0
FFFFFFFFC0
ENDCHAR
STARTCHAR 002E
ENCODING 46
SWIDTH 144 0
DWIDTH 20 0
BBX 14 14 0 0
BITMAP
FFFC
FFFC
FFFC
FFFC
FFFC
FFFC
FFFC
FFFC
FFFC
FFFC
FFFC
FFFC
FFFC
FFFC
ENDCHAR
STARTCHAR 002F
ENCODING 47
SWIDTH 540 0
DWIDTH 75 0
BBX 68 95 0 0
BITMAP
0000000000001FFFF0
0000000000001FFFE0
0000000000003FFFE0
0000000000003FFFC0
0000000000007FFF80
0000000000007FFF80
000000000000FFFF00
000000000001FFFF00
000000000001FFFE00
000000000003FFFE00
000000000003FFFC00
000000000007FFFC00
000000000007FFF800
00000000000FFFF800
00000000000FFFF000
00000000001FFFE000
00000000001FFFE000
00000000003FFFC000
00000000003FFFC000
00000000007FFF8000
0000000000FFFF8000
0000000000FFFF0000
0000000001FFFF0000
0000000001FFFE0000
0000000003FFFE0000
0000000003FFFC0000
0000000007FFFC0000
0000000007FFF80000
000000000FFFF00000
000000000FFFF00000
000000001FFFE00000
000000003FFFE00000
000000003FFFC00000
000000007FFFC00000
000000007FFF800000
00000000FFFF800000
00000000FFFF000000
00000001FFFF000000
00000001FFFE000000
00000003FFFC000000
00000003FFFC000000
00000007FFF8000000
0000000FFFF8000000
0000000FFFF0000000
0000001FFFF0000000
0000001FFFE0000000
0000003FFFE0000000
0000003FFFC0000000
0000007FFFC0000000
0000007FFF80000000
000000FFFF00000000
000000FFFF00000000
000001FFFE00000000
000001FFFE00000000
000003FFFC00000000
000007FFFC00000000
000007FFF800000000
00000FFFF800000000
00000FFFF000000000
00001FFFF000000000
00001FFFE000000000
00003FFFE000000000
00003FFFC000000000
00007FFF8000000000
00007FFF8000000000
0000FFFF0000000000
0001FFFF0000000000
0001FFFE0000000000
0003FFFE0000000000
0003FFFC0000000000
0007FFFC0000000000
0007FFF80000000000
000FFFF80000000000
000FFFF00000000000
001FFFE00000000000
001FFFE00000000000
003FFFC00000000000
007FFFC00000000000
007FFF800000000000
00FFFF800000000000
00FFFF000000000000
01FFFF000000000000
01FFFE000000000000
03FFFE000000000000
03FFFC000000000000
07FFF8000000000000
07FFF8000000000000
0FFFF0000000000000
0FFFF0000000000000
1FFFE0000000000000
3FFFE0000000000000
3FFFC0000000000000
7FFFC0000000000000
7FFF80000000000000
FFFF80000000000000
ENDCHAR
STARTCHAR 0030
ENCODING 48
SWIDTH 540 0
DWIDTH 75 0
BBX 68 95 0 0
BITMAP
0000001E0780000000
000001FE07F8000000
00000FFE07FF000000
00003FFE07FFC00000
0000FFFE07FFF00000
0001FFFE07FFF80000
0007FFFE07FFFC0000
000FFFFE07FFFF0000
001FFFFE07FFFF8000
003FFFFE07FFFF8000
007FFFFE07FFFFC000
007FFFFE07FFFFE000
00FFFFFE07FFFFF000
01FFFFFE07FFFFF000
01FFFFF000FFFFF800
03FFFF80003FFFFC00
03FFFF00000FFFFC00
07FFFC000007FFFE00
07FFF8000003FFFE00
0FFFF0000001FFFE00
0FFFF0000000FFFF00
0FFFE00000007FFF00
1FFFC00000007FFF80
1FFFC00000003FFF80
1FFF800000003FFF80
3FFF800000001FFF80
3FFF800000001FFFC0
3FFF000000000FFFC0
3FFF000000000FFFC0
7FFF000000000FFFC0
7FFE0000000007FFE0
7FFE0000000007FFE0
7FFE0000000007FFE0
7FFE0000000007FFE0
7FFC0000000007FFE0
7FFC0000000007FFE0
FFFC0000000003FFE0
FFFC0000000003FFE0
FFFC0000000003FFF0
FFFC0000000003FFF0
FFFC0000000003FFF0
FFFC0000000003FFF0
FFFC0000000003FFF0
FFFC0000000003FFF0
FFFC0000000003FFF0
FFFC0000000003FFF0
FFFC0000000003FFF0
FFFC0000000003FFF0
FFFC0000000003FFF0
FFFC0000000003FFF0
FFFC0000000003FFF0
FFFC0000000003FFF0
FFFC0000000003FFF0
FFFC0000000003FFF0
FFFC0000000003FFF0
FFFC0000000003FFF0
FFFC0000000003FFF0
FFFC0000000003FFE0
FFFC0000000003FFE0
7FFC0000000007FFE0
7FFC0000000007FFE0
7FFE0000000007FFE0
7FFE0000000007FFE0
7FFE0000000007FFE0
7FFE0000000007FFE0
3FFF000000000FFFC0
3FFF000000000FFFC0
3FFF000000000FFFC0
3FFF800000001FFFC0
3FFF800000001FFF80
1FFF800000003FFF80
1FFFC00000003FFF80
1FFFC00000007FFF80
0FFFE00000007FFF00
0FFFF0000000FFFF00
0FFFF0000001FFFE00
07FFF8000003FFFE00
07FFFC000007FFFE00
03FFFF00000FFFFC00
03FFFF80003FFFFC00
01FFFFF000FFFFF800
01FFFFFE07FFFFF000
00FFFFFE07FFFFF000
007FFFFE07FFFFE000
007FFFFE07FFFFC000
003FFFFE07FFFF8000
001FFFFE07FFFF8000
000FFFFE07FFFE0000
0007FFFE07FFFC0000
0001FFFE07FFF80000
0000FFFE07FFF00000
00003FFE07FFC00000
00000FFE07FF000000
000001FE07F8000000
0000001E0700000000
ENDCHAR
STARTCHAR 0031
ENCODING 49
SWIDTH 244 0
DWIDTH 34 0
BBX 27 95 0 0
BITMAP
FFFFFFE0
FFFFFFE0
FFFFFFE0
FFFFFFE0
FFFFFFE0
FFFFFFE0
FFFFFFE0
FFFFFFE0
FFFFFFE0
FFFFFFE0
FFFFFFE0
FFFFFFE0
FFFFFFE0
FFFFFFE0
0003FFE0
0003FFE0
0003FFE0
0003FFE0
0003FFE0
0003FFE0
0003FFE0
0003FFE0
0003FFE0
0003FFE0
0003FFE0
0003FFE0
0003FFE0
0003FFE0
0003FFE0
0003FFE0
0003FFE0
0003FFE0
0003FFE0
0003FFE0
0003FFE0
0003FFE0
0003FFE0
0003FFE0
0003FFE0
0003FFE0
0003FFE0
0003FFE0
0003FFE0
0003FFE0
0003FFE0
0003FFE0
0003FFE0
0003FFE0
0003FFE0
0003FFE0
0003FFE0
0003FFE0
0003FFE0
0003FFE0
0003FFE0
0003FFE0
0003FFE0
0003FFE0
0003FFE0
0003FFE0
0003FFE0
0003FFE0
0003FFE0
0003FFE0
0003FFE0
0003FFE0
0003FFE0
0003FFE0
0003FFE0
0003FFE0
0003FFE0
0003FFE0
0003FFE0
0003FFE0
0003FFE0
0003FFE0
0003FFE0
0003FFE0
0003FFE0
0003FFE0
0003FFE0
0003FFE0
0003FFE0
0003FFE0
0003FFE0
0003FFE0
0003FFE0
0003FFE0
0003FFE0
0003FFE0
0003FFE0
0003FFE0
0003FFE0
0003FFE0
0003FFE0
ENDCHAR
STARTCHAR 0032
ENCODING 50
SWIDTH 540 0
DWIDTH 75 0
BBX 68 95 0 0
BITMAP
FFFFFFFFFFE0000000
FFFFFFFFFFFF000000
FFFFFFFFFFFFE00000
FFFFFFFFFFFFFC0000
FFFFFFFFFFFFFF0000
FFFFFFFFFFFFFFC000
FFFFFFFFFFFFFFE000
FFFFFFFFFFFFFFF000
FFFFFFFFFFFFFFF800
FFFFFFFFFFFFFFFC00
FFFFFFFFFFFFFFFE00
FFFFFFFFFFFFFFFF00
FFFFFFFFFFFFFFFF00
FFFFFFFFFFFFFFFF80
FFFC0000001FFFFF80
FFFC00000003FFFFC0
FFFC00000000FFFFC0
FFFC000000003FFFE0
FFFC000000001FFFE0
FFFC000000000FFFE0
FFFC0000000007FFE0
FFFC0000000007FFE0
FFFC0000000003FFF0
FFFC0000000003FFF0
FFFC0000000003FFF0
FFFC0000000003FFF0
FFFC0000000003FFF0
00000000000003FFF0
00000000000003FFF0
00000000000003FFF0
00000000000003FFF0
00000000000003FFF0
00000000000007FFE0
00000000000007FFE0
0000000000000FFFE0
0000000000001FFFE0
0000000000003FFFE0
000000000000FFFFC0
000000000003FFFFC0
00000000001FFFFF80
00000000FFFFFFFF80
000003FFFFFFFFFF00
00003FFFFFFFFFFF00
0001FFFFFFFFFFFE00
0007FFFFFFFFFFFC00
001FFFFFFFFFFFF800
007FFFFFFFFFFFF000
00FFFFFFFFFFFFE000
01FFFFFFFFFFFFC000
03FFFFFFFFFFFF0000
07FFFFFFFFFFFC0000
0FFFFFFFFFFFE00000
0FFFFFFFFFFF000000
1FFFFFFFFFC0000000
1FFFFFE00000000000
3FFFFE000000000000
3FFFF0000000000000
7FFFE0000000000000
7FFF80000000000000
7FFF00000000000000
7FFF00000000000000
FFFE00000000000000
FFFC00000000000000
FFFC00000000000000
FFFC00000000000000
FFFC00000000000000
FFFC00000000000000
FFFC00000000000000
FFFC0000000003FFF0
FFFC0000000003FFF0
FFFC0000000003FFF0
FFFC0000000003FFF0
FFFC0000000003FFF0
FFFC0000000003FFF0
FFFC0000000003FFF0
FFFC0000000003FFF0
FFFC0000000003FFF0
FFFC0000000003FFF0
FFFC0000000003FFF0
FFFC0000000003FFF0
FFFC0000000003FFF0
FFFFFFFFC07FFFFFF0
FFFFFFFFC07FFFFFF0
FFFFFFFFC07FFFFFF0
FFFFFFFFC07FFFFFF0
FFFFFFFFC07FFFFFF0
FFFFFFFFC07FFFFFF0
FFFFFFFFC07FFFFFF0
FFFFFFFFC07FFFFFF0
FFFFFFFFC07FFFFFF0
FFFFFFFFC07FFFFFF0
FFFFFFFFC07FFFFFF0
FFFFFFFFC07FFFFFF0
FFFFFFFFC07FFFFFF0
FFFFFFFFC07FFFFFF0
ENDCHAR
STARTCHAR 0033
ENCODING 51
SWIDTH 540 0
DWIDTH 75 0
BBX 68 95 0 0
BITMAP
FFFFFFE03FE0000000
FFFFFFE03FFF000000
FFFFFFE03FFFF00000
FFFFFFE03FFFFC0000
FFFFFFE03FFFFF0000
FFFFFFE03FFFFFC000
FFFFFFE03FFFFFE000
FFFFFFE03FFFFFF000
FFFFFFE03FFFFFF800
FFFFFFE03FFFFFFC00
FFFFFFE03FFFFFFE00
FFFFFFE03FFFFFFF00
FFFFFFE03FFFFFFF00
FFFFFFE03FFFFFFF80
FFFC0000001FFFFF80
FFFC00000003FFFFC0
FFFC00000000FFFFC0
FFFC000000003FFFE0
FFFC000000001FFFE0
FFFC000000000FFFE0
FFFC0000000007FFE0
FFFC0000000007FFE0
FFFC0000000003FFF0
FFFC0000000003FFF0
FFFC0000000003FFF0
FFFC0000000003FFF0
FFFC0000000003FFF0
00000000000003FFF0
00000000000003FFF0
00000000000003FFF0
00000000000003FFF0
00000000000003FFF0
00000000000007FFE0
00000000000007FFE0
0000000000000FFFE0
0000000000001FFFE0
0000000000003FFFE0
000000000000FFFFC0
000000000003FFFFC0
00000000001FFFFF80
00000FFFFFFFFFFF80
00000FFFFFFFFFFF00
00000FFFFFFFFFFF00
00000FFFFFFFFFFE00
00000FFFFFFFFFFC00
00000FFFFFFFFFF800
00000FFFFFFFFFF000
00000FFFFFFFFFF000
00000FFFFFFFFFF800
00000FFFFFFFFFFC00
00000FFFFFFFFFFE00
00000FFFFFFFFFFE00
00000FFFFFFFFFFF00
00000FFFFFFFFFFF80
00000000007FFFFF80
000000000007FFFFC0
000000000000FFFFC0
0000000000007FFFC0
0000000000001FFFE0
0000000000000FFFE0
0000000000000FFFE0
00000000000007FFE0
00000000000007FFF0
00000000000003FFF0
00000000000003FFF0
00000000000003FFF0
00000000000003FFF0
00000000000003FFF0
FFFC0000000003FFF0
FFFC0000000003FFF0
FFFC0000000003FFF0
FFFC0000000003FFF0
FFFC0000000003FFF0
FFFC0000000007FFE0
FFFC0000000007FFE0
FFFC000000000FFFE0
FFFC000000001FFFE0
FFFC000000003FFFE0
FFFC00000000FFFFC0
FFFC00000003FFFFC0
FFFC0000001FFFFF80
FFFFFFE03FFFFFFF80
FFFFFFE03FFFFFFF00
FFFFFFE03FFFFFFF00
FFFFFFE03FFFFFFE00
FFFFFFE03FFFFFFC00
FFFFFFE03FFFFFF800
FFFFFFE03FFFFFF000
FFFFFFE03FFFFFE000
FFFFFFE03FFFFFC000
FFFFFFE03FFFFF0000
FFFFFFE03FFFFC0000
FFFFFFE03FFFE00000
FFFFFFE03FFF000000
FFFFFFE03FC0000000
ENDCHAR
STARTCHAR 0034
ENCODING 52
SWIDTH 540 0
DWIDTH 75 0
BBX 68 95 0 0
BITMAP
FFFC00000000FFF800
FFFC00000000FFF800
FFFC00000000FFF800
FFFC00000000FFF800
FFFC00000000FFF800
FFFC00000000FFF800
FFFC00000000FFF800
FFFC00000000FFF800
FFFC00000000FFF800
FFFC00000000FFF800
FFFC00000000FFF800
FFFC00000000FFF800
FFFC00000000FFF800
FFFC00000000FFF800
FFFC00000000FFF800
FFFC00000000FFF800
FFFC00000000FFF800
FFFC00000000FFF800
FFFC00000000FFF800
FFFC00000000FFF800
FFFC00000000FFF800
FFFC00000000FFF800
FFFC00000000FFF800
FFFC00000000FFF800
FFFC00000000FFF800
FFFC00000000FFF800
FFFC00000000FFF800
FFFC00000000FFF800
FFFC00000000FFF800
FFFC00000000FFF800
FFFC00000000FFF800
FFFC00000000FFF800
FFFC00000000FFF800
FFFC00000000FFF800
FFFC00000000FFF800
FFFC00000000FFF800
FFFC00000000FFF800
FFFC00000000FFF800
FFFC00000000FFF800
FFFC00000000FFF800
FFFC00000000FFF800
FFFC00000000FFF800
FFFC00000000FFF800
FFFC00000000FFF800
FFFC00000000FFF800
FFFC00000000FFF800
FFFC00000000FFF800
FFFC00000000FFF800
FFFC00000000FFF800
FFFC00000000FFF800
FFFC00000000FFF800
FFFC00000000FFF800
FFFC00000000FFF800
FFFC00000000FFF800
FFFC0FFFFFFFFFFFF0
FFFC0FFFFFFFFFFFF0
FFFC0FFFFFFFFFFFF0
FFFC0FFFFFFFFFFFF0
FFFC0FFFFFFFFFFFF0
FFFC0FFFFFFFFFFFF0
FFFC0FFFFFFFFFFFF0
FFFC0FFFFFFFFFFFF0
FFFC0FFFFFFFFFFFF0
FFFC0FFFFFFFFFFFF0
FFFC0FFFFFFFFFFFF0
FFFC0FFFFFFFFFFFF0
FFFC0FFFFFFFFFFFF0
FFFC0FFFFFFFFFFFF0
000000000000FFF800
000000000000FFF800
000000000000FFF800
000000000000FFF800
000000000000FFF800
000000000000FFF800
000000000000FFF800
000000000000FFF800
000000000000FFF800
000000000000FFF800
000000000000FFF800
000000000000FFF800
000000000000FFF800
000000003FFFFFFFF0
000000003FFFFFFFF0
000000003FFFFFFFF0
000000003FFFFFFFF0
000000003FFFFFFFF0
000000003FFFFFFFF0
000000003FFFFFFFF0
000000003FFFFFFFF0
000000003FFFFFFFF0
000000003FFFFFFFF0
000000003FFFFFFFF0
000000003FFFFFFFF0
000000003FFFFFFFF0
000000003FFFFFFFF0
ENDCHAR
STARTCHAR 0035
ENCODING 53
SWIDTH 540 0
DWIDTH 75 0
BBX 68 95 0 0
BITMAP
FFFFFFFE07FFFFFFF0
FFFFFFFE07FFFFFFF0
FFFFFFFE07FFFFFFF0
FFFFFFFE07FFFFFFF0
FFFFFFFE07FFFFFFF0
FFFFFFFE07FFFFFFF0
FFFFFFFE07FFFFFFF0
FFFFFFFE07FFFFFFF0
FFFFFFFE07FFFFFFF0
FFFFFFFE07FFFFFFF0
FFFFFFFE07FFFFFFF0
FFFFFFFE07FFFFFFF0
FFFFFFFE07FFFFFFF0
FFFFFFFE07FFFFFFF0
FFFC0000000003FFF0
FFFC0000000003FFF0
FFFC0000000003FFF0
FFFC0000000003FFF0
FFFC0000000003FFF0
FFFC0000000003FFF0
FFFC0000000003FFF0
FFFC0000000003FFF0
FFFC0000000003FFF0
FFFC0000000003FFF0
FFFC0000000003FFF0
FFFC0000000003FFF0
FFFC0000000003FFF0
FFFC00000000000000
FFFC00000000000000
FFFC00000000000000
FFFC00000000000000
FFFC00000000000000
FFFC00000000000000
FFFC00000000000000
FFFC00FFFFE0000000
FFFC3FFFFFFF000000
FFFFFFFFFFFFE00000
FFFFFFFFFFFFFC0000
FFFFFFFFFFFFFF0000
FFFFFFFFFFFFFFC000
FFFFFFFFFFFFFFE000
FFFFFFFFFFFFFFF000
FFFFFFFFFFFFFFF800
FFFFFFFFFFFFFFFC00
FFFFFFFFFFFFFFFE00
FFFFFFFFFFFFFFFF00
FFFFFFFFFFFFFFFF00
FFFFFFFFFFFFFFFF80
FFFFFC00001FFFFF80
FFFFC0000003FFFFC0
FFFF00000000FFFFC0
FFFE000000003FFFE0
FFFC000000001FFFE0
FFFC000000000FFFE0
00000000000007FFE0
00000000000007FFE0
00000000000003FFF0
00000000000003FFF0
00000000000003FFF0
00000000000003FFF0
00000000000003FFF0
00000000000003FFF0
00000000000003FFF0
00000000000003FFF0
00000000000003FFF0
00000000000003FFF0
00000000000003FFF0
00000000000003FFF0
FFFC0000000003FFF0
FFFC0000000003FFF0
FFFC0000000003FFF0
FFFC0000000003FFF0
FFFC0000000003FFF0
FFFC0000000007FFE0
FFFC0000000007FFE0
FFFC000000000FFFE0
FFFC000000000FFFE0
FFFC000000001FFFE0
FFFC000000007FFFC0
FFFC00000000FFFFC0
FFFC00000007FFFFC0
FFFFFFFE07FFFFFF80
FFFFFFFE07FFFFFF80
FFFFFFFE07FFFFFF00
FFFFFFFE07FFFFFE00
FFFFFFFE07FFFFFE00
FFFFFFFE07FFFFFC00
FFFFFFFE07FFFFF800
FFFFFFFE07FFFFF000
FFFFFFFE07FFFFE000
FFFFFFFE07FFFF8000
FFFFFFFE07FFFE0000
FFFFFFFE07FFF80000
FFFFFFFE07FFC00000
FFFFFFFE07F8000000
ENDCHAR
STARTCHAR 0036
ENCODING 54
SWIDTH 540 0
DWIDTH 75 0
BBX 68 95 0 0
BITMAP
0000000003FFFFFFF0
00000000FFFFFFFFF0
0000000FFFFFFFFFF0
0000007FFFFFFFFFF0
000001FFFFFFFFFFF0
000007FFFFFFFFFFF0
00001FFFFFFFFFFFF0
00007FFFFFFFFFFFF0
0000FFFFFFFFFFFFF0
0001FFFFFFFFFFFFF0
0007FFFFFFFFFFFFF0
000FFFFFFFFFFFFFF0
001FFFFFFFFFFFFFF0
003FFFFFFFFFFFFFF0
007FFFFFF80003FFF0
007FFFFF800003FFF0
00FFFFFC000003FFF0
01FFFFF0000003FFF0
01FFFFE0000003FFF0
03FFFF80000003FFF0
03FFFF00000003FFF0
07FFFE00000003FFF0
07FFFC00000003FFF0
0FFFF800000003FFF0
0FFFF000000003FFF0
1FFFE000000003FFF0
1FFFE000000003FFF0
1FFFC0000000000000
3FFF80000000000000
3FFF80000000000000
3FFF00000000000000
3FFF00000000000000
7FFF00000000000000
7FFE00000000000000
7FFE00000000000000
7FFE00000000000000
7FFE00000000000000
7FFC00000000000000
FFFC00000000000000
FFFC00000000000000
FFFC0FFFFFC0000000
FFFC0FFFFFFFC00000
FFFC0FFFFFFFFC0000
FFFC0FFFFFFFFF0000
FFFC0FFFFFFFFFC000
FFFC0FFFFFFFFFE000
FFFC0FFFFFFFFFF000
FFFC0FFFFFFFFFF800
FFFC0FFFFFFFFFFC00
FFFC0FFFFFFFFFFE00
FFFC0FFFFFFFFFFF00
FFFC0FFFFFFFFFFF00
FFFC0FFFFFFFFFFF80
FFFC0FFFFFFFFFFF80
FFFC00000007FFFFC0
FFFC00000000FFFFC0
FFFC000000003FFFC0
FFFC000000001FFFE0
FFFC000000000FFFE0
7FFC000000000FFFE0
7FFC0000000007FFE0
7FFE0000000007FFE0
7FFE0000000003FFF0
7FFE0000000003FFF0
7FFE0000000003FFF0
7FFF0000000003FFF0
3FFF0000000003FFF0
3FFF0000000003FFF0
3FFF8000000003FFF0
3FFF8000000003FFF0
1FFF8000000003FFF0
1FFFC000000003FFF0
1FFFC000000003FFF0
0FFFE000000007FFF0
0FFFF000000007FFE0
0FFFF000000007FFE0
07FFF80000000FFFE0
07FFFC0000001FFFE0
03FFFF0000003FFFE0
03FFFF8000007FFFC0
01FFFFF00001FFFFC0
01FFFFFFC07FFFFF80
00FFFFFFC07FFFFF80
007FFFFFC07FFFFF00
007FFFFFC07FFFFF00
003FFFFFC07FFFFE00
001FFFFFC07FFFFE00
000FFFFFC07FFFFC00
0007FFFFC07FFFF800
0001FFFFC07FFFF000
0000FFFFC07FFFC000
00003FFFC07FFF8000
00000FFFC07FFE0000
000001FFC07FF00000
0000001FC07E000000
ENDCHAR
STARTCHAR 0037
ENCODING 55
SWIDTH 540 0
DWIDTH 75 0
BBX 68 95 0 0
BITMAP
FFFFFFFFFFE01FFFF0
FFFFFFFFFFC01FFFE0
FFFFFFFFFFC03FFFE0
FFFFFFFFFF803FFFC0
FFFFFFFFFF807FFF80
FFFFFFFFFF007FFF80
FFFFFFFFFE00FFFF00
FFFFFFFFFE01FFFF00
FFFFFFFFFC01FFFE00
FFFFFFFFFC03FFFE00
FFFFFFFFF803FFFC00
FFFFFFFFF807FFFC00
FFFFFFFFF007FFF800
FFFFFFFFF00FFFF800
00000000000FFFF000
00000000001FFFE000
00000000001FFFE000
00000000003FFFC000
00000000003FFFC000
00000000007FFF8000
0000000000FFFF8000
0000000000FFFF0000
0000000001FFFF0000
0000000001FFFE0000
0000000003FFFE0000
0000000003FFFC0000
0000000007FFFC0000
0000000007FFF80000
000000000FFFF00000
000000000FFFF00000
000000001FFFE00000
000000003FFFE00000
000000003FFFC00000
000000007FFFC00000
000000007FFF800000
00000000FFFF800000
00000000FFFF000000
00000001FFFF000000
00000001FFFE000000
00000003FFFC000000
00000003FFFC000000
00000007FFF8000000
0000000FFFF8000000
0000000FFFF0000000
0000001FFFF0000000
0000001FFFE0000000
0000003FFFE0000000
0000003FFFC0000000
0000007FFFC0000000
0000007FFF80000000
000000FFFF00000000
000000FFFF00000000
000001FFFE00000000
000001FFFE00000000
000003FFFC00000000
000007FFFC00000000
000007FFF800000000
00000FFFF800000000
00000FFFF000000000
00001FFFF000000000
00001FFFE000000000
00003FFFE000000000
00003FFFC000000000
00007FFF8000000000
00007FFF8000000000
0000FFFF0000000000
0001FFFF0000000000
0001FFFE0000000000
0003FFFE0000000000
0003FFFC0000000000
0007FFFC0000000000
0007FFF80000000000
000FFFF80000000000
000FFFF00000000000
001FFFE00000000000
001FFFE00000000000
003FFFC00000000000
007FFFC00000000000
007FFF800000000000
00FFFF800000000000
00FFFF000000000000
01FFFF000000000000
01FFFE000000000000
03FFFE000000000000
03FFFC000000000000
07FFF8000000000000
07FFF8000000000000
0FFFF0000000000000
0FFFF0000000000000
1FFFE0000000000000
3FFFE0000000000000
3FFFC0000000000000
7FFFC0000000000000
7FFF80000000000000
FFFF80000000000000
ENDCHAR
STARTCHAR 0038
ENCODING 56
SWIDTH 540 0
DWIDTH 75 0
BBX 68 95 0 0
BITMAP
000001FE07F8000000
00003FFE07FFC00000
0001FFFE07FFF80000
000FFFFE07FFFE0000
001FFFFE07FFFF8000
007FFFFE07FFFFE000
00FFFFFE07FFFFF000
01FFFFFE07FFFFF800
03FFFFFE07FFFFFC00
07FFFFFE07FFFFFE00
0FFFFFFE07FFFFFF00
0FFFFFFE07FFFFFF00
1FFFFFFE07FFFFFF80
1FFFFFFE07FFFFFF80
3FFFFE000007FFFFC0
3FFFF0000000FFFFC0
7FFFC00000007FFFC0
7FFF800000001FFFE0
7FFF000000000FFFE0
7FFE000000000FFFE0
FFFE0000000007FFE0
FFFC0000000007FFF0
FFFC0000000003FFF0
FFFC0000000003FFF0
FFFC0000000003FFF0
FFFC0000000003FFF0
FFFC0000000003FFF0
FFFC0000000003FFF0
FFFC0000000003FFF0
FFFC0000000003FFF0
FFFC0000000003FFF0
FFFC0000000003FFF0
FFFC0000000007FFF0
FFFE0000000007FFE0
7FFE000000000FFFE0
7FFF000000000FFFE0
7FFF800000001FFFE0
7FFFC00000007FFFC0
3FFFF0000000FFFFC0
3FFFFE000007FFFFC0
1FFFFFFE07FFFFFF80
1FFFFFFE07FFFFFF80
0FFFFFFE07FFFFFF00
0FFFFFFE07FFFFFF00
07FFFFFE07FFFFFE00
03FFFFFE07FFFFFC00
01FFFFFE07FFFFF800
01FFFFFE07FFFFF800
03FFFFFE07FFFFFC00
07FFFFFE07FFFFFC00
07FFFFFE07FFFFFE00
0FFFFFFE07FFFFFF00
1FFFFFFE07FFFFFF00
1FFFFFFE07FFFFFF80
3FFFFF80001FFFFF80
3FFFF8000001FFFFC0
3FFFE00000007FFFC0
7FFFC00000003FFFE0
7FFF800000001FFFE0
7FFF000000000FFFE0
7FFE0000000007FFE0
FFFE0000000007FFE0
FFFC0000000003FFF0
FFFC0000000003FFF0
FFFC0000000003FFF0
FFFC0000000003FFF0
FFFC0000000003FFF0
FFFC0000000003FFF0
FFFC0000000003FFF0
FFFC0000000003FFF0
FFFC0000000003FFF0
FFFC0000000003FFF0
FFFC0000000003FFF0
FFFE0000000007FFE0
7FFE0000000007FFE0
7FFF000000000FFFE0
7FFF000000000FFFE0
7FFF800000001FFFE0
7FFFE00000007FFFC0
3FFFF0000000FFFFC0
3FFFFE000007FFFFC0
1FFFFFFE07FFFFFF80
1FFFFFFE07FFFFFF80
0FFFFFFE07FFFFFF00
0FFFFFFE07FFFFFE00
07FFFFFE07FFFFFE00
03FFFFFE07FFFFFC00
01FFFFFE07FFFFF800
00FFFFFE07FFFFF000
007FFFFE07FFFFE000
001FFFFE07FFFF8000
000FFFFE07FFFE0000
0001FFFE07FFF80000
00003FFE07FFC00000
000001FE07F8000000
ENDCHAR
STARTCHAR 0039
ENCODING 57
SWIDTH 540 0
DWIDTH 75 0
BBX 68 95 0 0
BITMAP
00000FE03F80000000
0000FFE03FF8000000
0007FFE03FFF000000
001FFFE03FFFC00000
007FFFE03FFFF00000
00FFFFE03FFFF80000
01FFFFE03FFFFC0000
03FFFFE03FFFFF0000
07FFFFE03FFFFF8000
0FFFFFE03FFFFF8000
0FFFFFE03FFFFFC000
1FFFFFE03FFFFFE000
1FFFFFE03FFFFFF000
3FFFFFE03FFFFFF000
3FFFF80000FFFFF800
3FFFE000003FFFFC00
7FFF8000000FFFFC00
7FFF00000007FFFE00
7FFF00000003FFFE00
7FFE00000001FFFE00
FFFE00000000FFFF00
FFFC000000007FFF00
FFFC000000007FFF80
FFFC000000003FFF80
FFFC000000003FFF80
FFFC000000001FFF80
FFFC000000001FFFC0
FFFC000000000FFFC0
FFFC000000000FFFC0
FFFC000000000FFFC0
FFFC0000000007FFE0
FFFC0000000007FFE0
FFFC0000000007FFE0
FFFE0000000007FFE0
7FFE0000000007FFE0
7FFF0000000007FFE0
7FFF0000000003FFE0
7FFF8000000003FFE0
3FFFE000000003FFF0
3FFFF800000003FFF0
3FFFFFFFFFFF03FFF0
1FFFFFFFFFFF03FFF0
1FFFFFFFFFFF03FFF0
0FFFFFFFFFFF03FFF0
0FFFFFFFFFFF03FFF0
07FFFFFFFFFF03FFF0
03FFFFFFFFFF03FFF0
01FFFFFFFFFF03FFF0
00FFFFFFFFFF03FFF0
007FFFFFFFFF03FFF0
001FFFFFFFFF03FFF0
0007FFFFFFFF03FFF0
0000FFFFFFFF03FFF0
00000FFFFFFF03FFF0
00000000000003FFF0
00000000000003FFF0
00000000000003FFE0
00000000000007FFE0
00000000000007FFE0
00000000000007FFE0
00000000000007FFE0
0000000000000FFFE0
0000000000000FFFC0
0000000000000FFFC0
0000000000001FFFC0
0000000000001FFFC0
0000000000003FFF80
0000000000003FFF80
FFFC000000007FFF80
FFFC000000007FFF00
FFFC00000000FFFF00
FFFC00000001FFFF00
FFFC00000003FFFE00
FFFC00000007FFFE00
FFFC0000000FFFFC00
FFFC0000001FFFFC00
FFFC0000007FFFF800
FFFC000001FFFFF800
FFFC000007FFFFF000
FFFC00001FFFFFE000
FFFC0001FFFFFFC000
FFFFFFFFFFFFFFC000
FFFFFFFFFFFFFF8000
FFFFFFFFFFFFFF0000
FFFFFFFFFFFFFE0000
FFFFFFFFFFFFF80000
FFFFFFFFFFFFF00000
FFFFFFFFFFFFE00000
FFFFFFFFFFFF800000
FFFFFFFFFFFE000000
FFFFFFFFFFF8000000
FFFFFFFFFFE0000000
FFFFFFFFFF00000000
FFFFFFFFF000000000
FFFFFFF80000000000
ENDCHAR
STARTCHAR 003A
ENCODING 58
SWIDTH 144 0
DWIDTH 20 0
BBX 14 70 0 0
BITMAP
FFFC
FFFC
FFFC
FFFC
FFFC
FFFC
FFFC
FFFC
FFFC
FFFC
FFFC
FFFC
FFFC
FFFC
0000
0000
0000
0000
0000
0000
0000
0000
0000
0000
0000
0000
0000
0000
0000
0000
0000
0000
0000
0000
0000
0000
0000
0000
0000
0000
0000
0000
0000
0000
0000
0000
0000
0000
0000
0000
0000
0000
0000
0000
0000
0000
FFFC
FFFC
FFFC
FFFC
FFFC
FFFC
FFFC
FFFC
FFFC
FFFC
FFFC
FFFC
FFFC
FFFC
ENDCHAR
STARTCHAR 003B
ENCODING 59
SWIDTH 144 0
DWIDTH 20 0
BBX 14 84 0 -14
BITMAP
FFFC
FFFC
FFFC
FFFC
FFFC
FFFC
FFFC
FFFC
FFFC
FFFC
FFFC
FFFC
FFFC
FFFC
0000
0000
0000
0000
0000
0000
0000
0000
0000
0000
0000
0000
0000
0000
0000
0000
0000
0000
0000
0000
0000
0000
0000
0000
0000
0000
0000
0000
0000
0000
0000
0000
0000
0000
0000
0000
0000
0000
0000
0000
0000
0000
FFFC
FFFC
FFFC
FFFC
FFFC
FFFC
FFFC
FFFC
FFFC
FFFC
FFFC
FFFC
FFFC
FFFC
FFFC
FFFC
FFFC
FFFC
FFFC
FFFC
FFFC
FFFC
FFFC
FFFC
FFFC
FFFC
FFFC
FFFC
ENDCHAR
STARTCHAR 003C
ENCODING 60
SWIDTH 345 0
DWIDTH 48 0
BBX 43 95 0 0
BITMAP
0000001FFFE0
0000003FFFC0
0000003FFF80
0000007FFF80
000000FFFF00
000000FFFE00
000001FFFE00
000001FFFC00
000003FFFC00
000003FFF800
000007FFF800
00000FFFF000
00000FFFE000
00001FFFE000
00001FFFC000
00003FFFC000
00003FFF8000
00007FFF8000
00007FFF0000
0000FFFF0000
0001FFFE0000
0001FFFC0000
0003FFFC0000
0003FFF80000
0007FFF80000
0007FFF00000
000FFFF00000
000FFFE00000
001FFFC00000
003FFFC00000
003FFF800000
007FFF800000
007FFF000000
00FFFF000000
00FFFE000000
01FFFC000000
01FFFC000000
03FFF8000000
07FFF8000000
07FFF0000000
0FFFF0000000
0FFFE0000000
1FFFC0000000
1FFFC0000000
3FFF80000000
3FFF80000000
7FFF00000000
FFFF00000000
FFFF00000000
7FFF80000000
7FFF80000000
3FFFC0000000
3FFFC0000000
1FFFE0000000
0FFFF0000000
0FFFF0000000
07FFF8000000
07FFF8000000
03FFFC000000
03FFFC000000
01FFFE000000
00FFFF000000
00FFFF000000
007FFF800000
007FFF800000
003FFFC00000
001FFFC00000
001FFFE00000
000FFFF00000
000FFFF00000
0007FFF80000
0007FFF80000
0003FFFC0000
0001FFFC0000
0001FFFE0000
0000FFFE0000
0000FFFF0000
00007FFF8000
00007FFF8000
00003FFFC000
00001FFFC000
00001FFFE000
00000FFFE000
00000FFFF000
000007FFF800
000007FFF800
000003FFFC00
000001FFFC00
000001FFFE00
000000FFFE00
000000FFFF00
0000007FFF80
0000003FFF80
0000003FFFC0
0000001FFFE0
ENDCHAR
STARTCHAR 003D
ENCODING 61
SWIDTH 439 0
DWIDTH 61 0
BBX 54 41 0 27
BITMAP
FFFFFFFFFFFFFC
FFFFFFFFFFFFFC
FFFFFFFFFFFFFC
FFFFFFFFFFFFFC
FFFFFFFFFFFFFC
FFFFFFFFFFFFFC
FFFFFFFFFFFFFC
FFFFFFFFFFFFFC
FFFFFFFFFFFFFC
FFFFFFFFFFFFFC
FFFFFFFFFFFFFC
FFFFFFFFFFFFFC
FFFFFFFFFFFFFC
FFFFFFFFFFFFFC
00000000000000
00000000000000
00000000000000
00000000000000
00000000000000
00000000000000
00000000000000
00000000000000
00000000000000
00000000000000
00000000000000
00000000000000
00000000000000
FFFFFFFFFFFFFC
FFFFFFFFFFFFFC
FFFFFFFFFFFFFC
FFFFFFFFFFFFFC
FFFFFFFFFFFFFC
FFFFFFFFFFFFFC
FFFFFFFFFFFFFC
FFFFFFFFFFFFFC
FFFFFFFFFFFFFC
FFFFFFFFFFFFFC
FFFFFFFFFFFFFC
FFFFFFFFFFFFFC
FFFFFFFFFFFFFC
FFFFFFFFFFFFFC
ENDCHAR
STARTCHAR 003E
ENCODING 62
SWIDTH 345 0
DWIDTH 48 0
BBX 43 95 -2 0
BITMAP
FFFF00000000
7FFF80000000
3FFF80000000
3FFFC0000000
1FFFC0000000
1FFFE0000000
0FFFE0000000
0FFFF0000000
07FFF8000000
03FFF8000000
03FFFC000000
01FFFC000000
01FFFE000000
00FFFE000000
00FFFF000000
007FFF000000
003FFF800000
003FFFC00000
001FFFC00000
001FFFE00000
000FFFE00000
000FFFF00000
0007FFF00000
0007FFF80000
0003FFF80000
0001FFFC0000
0001FFFE0000
0000FFFE0000
0000FFFF0000
00007FFF0000
00007FFF8000
00003FFF8000
00001FFFC000
00001FFFC000
00000FFFE000
00000FFFF000
000007FFF000
000007FFF800
000003FFF800
000001FFFC00
000001FFFC00
000000FFFE00
000000FFFF00
0000007FFF00
0000007FFF80
0000003FFF80
0000001FFFC0
0000001FFFC0
0000001FFFE0
0000003FFFC0
0000007FFF80
0000007FFF80
000000FFFF00
000000FFFF00
000001FFFE00
000001FFFE00
000003FFFC00
000007FFF800
000007FFF800
00000FFFF000
00000FFFF000
00001FFFE000
00001FFFE000
00003FFFC000
00007FFF8000
00007FFF8000
0000FFFF0000
0000FFFF0000
0001FFFE0000
0001FFFC0000
0003FFFC0000
0007FFF80000
0007FFF80000
000FFFF00000
000FFFF00000
001FFFE00000
001FFFC00000
003FFFC00000
003FFF800000
007FFF800000
00FFFF000000
00FFFF000000
01FFFE000000
01FFFC000000
03FFFC000000
03FFF8000000
07FFF8000000
0FFFF0000000
0FFFF0000000
1FFFE0000000
1FFFC0000000
3FFFC0000000
3FFF80000000
7FFF80000000
FFFF00000000
ENDCHAR
STARTCHAR 003F
ENCODING 63
SWIDTH 540 0
DWIDTH 75 0
BBX 68 95 0 0
BITMAP
FFFFFFE03FE0000000
FFFFFFE03FFF000000
FFFFFFE03FFFE00000
FFFFFFE03FFFFC0000
FFFFFFE03FFFFF0000
FFFFFFE03FFFFFC000
FFFFFFE03FFFFFE000
FFFFFFE03FFFFFF000
FFFFFFE03FFFFFF800
FFFFFFE03FFFFFFC00
FFFFFFE03FFFFFFE00
FFFFFFE03FFFFFFF00
FFFFFFE03FFFFFFF00
FFFFFFE03FFFFFFF80
FFFC0000001FFFFF80
FFFC00000003FFFFC0
FFFC00000000FFFFC0
FFFC000000003FFFE0
FFFC000000001FFFE0
FFFC000000000FFFE0
FFFC0000000007FFE0
FFFC0000000007FFE0
FFFC0000000003FFF0
FFFC0000000003FFF0
FFFC0000000003FFF0
FFFC0000000003FFF0
FFFC0000000003FFF0
00000000000003FFF0
00000000000003FFF0
00000000000003FFF0
00000000000003FFF0
00000000000003FFF0
00000000000003FFF0
00000000000007FFE0
00000000000007FFE0
0000000000000FFFE0
0000000000001FFFE0
0000000000003FFFE0
0000000000007FFFC0
000000000001FFFFC0
0000000001FFFFFFC0
00000007FFFFFFFF80
0000007FFFFFFFFF80
000003FFFFFFFFFF00
00000FFFFFFFFFFE00
00003FFFFFFFFFFE00
0000FFFFFFFFFFFC00
0001FFFFFFFFFFF800
0003FFFFFFFFFFF000
0007FFFFFFFFFFC000
000FFFFFFFFFFF8000
001FFFFFFFFFFE0000
001FFFFFFFFFF00000
003FFFFFFFFF000000
007FFFFFC000000000
007FFFF80000000000
007FFFE00000000000
00FFFF800000000000
00FFFF000000000000
00FFFE000000000000
01FFFC000000000000
01FFFC000000000000
01FFF8000000000000
01FFF8000000000000
01FFF8000000000000
01FFF8000000000000
01FFF0000000000000
01FFF0000000000000
01FFF0000000000000
01FFF0000000000000
01FFF0000000000000
01FFF0000000000000
01FFF0000000000000
01FFF0000000000000
01FFF0000000000000
000000000000000000
000000000000000000
000000000000000000
000000000000000000
000000000000000000
000000000000000000
01FFF0000000000000
01FFF0000000000000
01FFF0000000000000
01FFF0000000000000
01FFF0000000000000
01FFF0000000000000
01FFF0000000000000
01FFF0000000000000
01FFF0000000000000
01FFF0000000000000
01FFF0000000000000
01FFF0000000000000
01FFF0000000000000
01FFF0000000000000
ENDCHAR
STARTCHAR 0040
ENCODING 64
SWIDTH 540 0
DWIDTH 75 0
BBX 68 95 0 0
BITMAP
0000000003FFFFFFF0
00000000FFFFFFFFF0
0000000FFFFFFFFFF0
0000007FFFFFFFFFF0
000001FFFFFFFFFFF0
000007FFFFFFFFFFF0
00001FFFFFFFFFFFF0
00007FFFFFFFFFFFF0
0000FFFFFFFFFFFFF0
0001FFFFFFFFFFFFF0
0007FFFFFFFFFFFFF0
000FFFFFFFFFFFFFF0
001FFFFFFFFFFFFFF0
003FFFFFFFFFFFFFF0
007FFFFFF800000000
007FFFFF8000000000
00FFFFFC0000000000
01FFFFF00000000000
01FFFFE00000000000
03FFFF800000000000
03FFFF00000003FFF0
07FFFE00000003FFF0
07FFFC00000003FFF0
0FFFF800000003FFF0
0FFFF000000003FFF0
1FFFE000000003FFF0
1FFFE000000003FFF0
1FFFC0003FFFFFFFF0
3FFF80003FFFFFFFF0
3FFF80003FFFFFFFF0
3FFF00003FFFFFFFF0
3FFF00003FFFFFFFF0
7FFF00003FFFFFFFF0
7FFE00003FFFFFFFF0
7FFE00003FFFFFFFF0
7FFE00003FFFFFFFF0
7FFE00003FFFFFFFF0
7FFC00003FFFFFFFF0
FFFC00003FFFFFFFF0
FFFC00003FFFFFFFF0
FFFC00003FFFFFFFF0
FFFC00003FFFFFFFF0
FFFC00003FFFFFFFF0
FFFC00003FFFFFFFF0
FFFC00003FFFFFFFF0
FFFC00003FFFFFFFF0
FFFC00003FFFFFFFF0
FFFC00003FFFFFFFF0
FFFC00003FFFFFFFF0
FFFC00003FFFFFFFF0
FFFC00003FFFFFFFF0
FFFC00003FFFFFFFF0
FFFC00003FFFFFFFF0
FFFC00003FFFFFFFF0
FFFC00003FFFFFFFF0
FFFC00003FFFFFFFF0
FFFC00003FFFFFFFF0
7FFC00003FFFFFFFF0
7FFE00003FFFFFFFF0
7FFE00003FFFFFFFF0
7FFE00003FFFFFFFF0
7FFE00003FFFFFFFF0
7FFF00003FFFFFFFF0
3FFF00003FFFFFFFF0
3FFF80003FFFFFFFF0
3FFF80003FFFFFFFF0
3FFF80003FFFFFFFF0
1FFFC0003FFFFFFFF0
1FFFE0000000000000
1FFFE0000000000000
0FFFF0000000000000
0FFFF8000000000000
07FFFC000000000000
07FFFE000000000000
03FFFF000000000000
03FFFF800000000000
01FFFFE00000000000
01FFFFF00000000000
00FFFFFE0000000000
007FFFFF8000000000
007FFFFFF800000000
003FFFFFFFFFFFFFF0
001FFFFFFFFFFFFFF0
000FFFFFFFFFFFFFF0
0007FFFFFFFFFFFFF0
0003FFFFFFFFFFFFF0
0000FFFFFFFFFFFFF0
00007FFFFFFFFFFFF0
00001FFFFFFFFFFFF0
000007FFFFFFFFFFF0
000001FFFFFFFFFFF0
0000007FFFFFFFFFF0
0000000FFFFFFFFFF0
00000000FFFFFFFFF0
0000000003FFFFFFF0
ENDCHAR
STARTCHAR 0041
ENCODING 65
SWIDTH 540 0
DWIDTH 75 0
BBX 68 95 0 0
BITMAP
000000006000000000
00000001F800000000
00000007FE00000000
0000000FFF00000000
0000003FFFC0000000
0000007FFFE0000000
000000FFFFF0000000
000003FFFFF8000000
000007FFFFFC000000
000007FFFFFE000000
00000FFFFFFF000000
00001FFFFFFF800000
00003FFFFFFFC00000
00007FFFFFFFE00000
00007FFFFFFFE00000
0000FFFFFFFFF00000
0001FFFFFFFFF80000
0001FFFFBFFFF80000
0003FFFF0FFFFC0000
0007FFFE07FFFC0000
0007FFFC03FFFE0000
000FFFF801FFFE0000
000FFFF000FFFF0000
001FFFE000FFFF0000
001FFFE0007FFF8000
003FFFC0003FFF8000
003FFF80003FFFC000
003FFF80001FFFC000
007FFF00001FFFE000
007FFF00000FFFE000
007FFE00000FFFE000
00FFFE000007FFF000
00FFFC000007FFF000
00FFFC000003FFF000
01FFFC000003FFF800
01FFF8000001FFF800
01FFF8000001FFF800
03FFF8000001FFFC00
03FFF0000000FFFC00
03FFF0000000FFFC00
07FFF0000000FFFC00
07FFE00000007FFE00
07FFE00000007FFE00
07FFE00000007FFE00
07FFC00000007FFE00
0FFFC00000003FFF00
0FFFC00000003FFF00
0FFFC00000003FFF00
0FFFC00000003FFF00
0FFF800000001FFF00
1FFF800000001FFF00
1FFF800000001FFF80
1FFF800000001FFF80
1FFF800000001FFF80
1FFF000000001FFF80
1FFF000000000FFF80
3FFF000000000FFF80
3FFF000000000FFFC0
3FFF000000000FFFC0
3FFF000000000FFFC0
3FFE000000000FFFC0
3FFE000000000FFFC0
3FFE0000000007FFC0
7FFE0000000007FFC0
7FFE0000000007FFC0
7FFE0000000007FFE0
7FFE0000000007FFE0
7FFE0000000007FFE0
7FFE0FFFFFFFFFFFE0
7FFE0FFFFFFFFFFFE0
7FFC0FFFFFFFFFFFE0
7FFC0FFFFFFFFFFFE0
7FFC0FFFFFFFFFFFE0
7FFC0FFFFFFFFFFFE0
7FFC0FFFFFFFFFFFE0
7FFC0FFFFFFFFFFFE0
FFFC0FFFFFFFFFFFE0
FFFC0FFFFFFFFFFFE0
FFFC0FFFFFFFFFFFE0
FFFC0FFFFFFFFFFFF0
FFFC0FFFFFFFFFFFF0
FFFC0FFFFFFFFFFFF0
FFFC0000000003FFF0
FFFC0000000003FFF0
FFFC0000000003FFF0
FFFC0000000003FFF0
FFFC0000000003FFF0
FFFC0000000003FFF0
FFFC0000000003FFF0
FFFC0000000003FFF0
FFFC0000000003FFF0
FFFC0000000003FFF0
FFFC0000000003FFF0
FFFC0000000003FFF0
FFFC0000000003FFF0
ENDCHAR
STARTCHAR 0042
ENCODING 66
SWIDTH 540 0
DWIDTH 75 0
BBX 68 95 0 0
BITMAP
FFFFFFFFFFE0000000
FFFFFFFFFFFF000000
FFFFFFFFFFFFF00000
FFFFFFFFFFFFFC0000
FFFFFFFFFFFFFF0000
FFFFFFFFFFFFFFC000
FFFFFFFFFFFFFFE000
FFFFFFFFFFFFFFF000
FFFFFFFFFFFFFFF800
FFFFFFFFFFFFFFFC00
FFFFFFFFFFFFFFFE00
FFFFFFFFFFFFFFFF00
FFFFFFFFFFFFFFFF00
FFFFFFFFFFFFFFFF80
FFFC0000001FFFFF80
FFFC00000003FFFFC0
FFFC00000000FFFFC0
FFFC000000003FFFE0
FFFC000000001FFFE0
FFFC000000000FFFE0
FFFC0000000007FFE0
FFFC0000000007FFE0
FFFC0000000003FFF0
FFFC0000000003FFF0
FFFC0000000003FFF0
FFFC0000000003FFF0
FFFC0000000003FFF0
FFFC0000000003FFF0
FFFC0000000003FFF0
FFFC0000000003FFF0
FFFC0000000003FFF0
FFFC0000000003FFF0
FFFC0000000007FFE0
FFFC0000000007FFE0
FFFC000000000FFFE0
FFFC000000001FFFE0
FFFC000000003FFFE0
FFFC00000000FFFFC0
FFFC00000003FFFFC0
FFFC0000001FFFFF80
FFFC0FFFFFFFFFFF80
FFFC0FFFFFFFFFFF00
FFFC0FFFFFFFFFFF00
FFFC0FFFFFFFFFFE00
FFFC0FFFFFFFFFFC00
FFFC0FFFFFFFFFF800
FFFC0FFFFFFFFFF000
FFFC0FFFFFFFFFF000
FFFC0FFFFFFFFFF800
FFFC0FFFFFFFFFFC00
FFFC0FFFFFFFFFFE00
FFFC0FFFFFFFFFFE00
FFFC0FFFFFFFFFFF00
FFFC0FFFFFFFFFFF80
FFFC0000007FFFFF80
FFFC00000007FFFFC0
FFFC00000000FFFFC0
FFFC000000007FFFC0
FFFC000000001FFFE0
FFFC000000000FFFE0
FFFC000000000FFFE0
FFFC0000000007FFE0
FFFC0000000007FFF0
FFFC0000000003FFF0
FFFC0000000003FFF0
FFFC0000000003FFF0
FFFC0000000003FFF0
FFFC0000000003FFF0
FFFC0000000003FFF0
FFFC0000000003FFF0
FFFC0000000003FFF0
FFFC0000000003FFF0
FFFC0000000003FFF0
FFFC0000000007FFE0
FFFC0000000007FFE0
FFFC000000000FFFE0
FFFC000000001FFFE0
FFFC000000003FFFE0
FFFC00000000FFFFC0
FFFC00000003FFFFC0
FFFC0000001FFFFF80
FFFC0FFFFFFFFFFF80
FFFC0FFFFFFFFFFF00
FFFC0FFFFFFFFFFF00
FFFC0FFFFFFFFFFE00
FFFC0FFFFFFFFFFC00
FFFC0FFFFFFFFFF800
FFFC0FFFFFFFFFF000
FFFC0FFFFFFFFFE000
FFFC0FFFFFFFFFC000
FFFC0FFFFFFFFF0000
FFFC0FFFFFFFFC0000
FFFC0FFFFFFFE00000
FFFC0FFFFFFF000000
FFFC0FFFFFC0000000
ENDCHAR
STARTCHAR 0043
ENCODING 67
SWIDTH 540 0
DWIDTH 75 0
BBX 68 95 0 0
BITMAP
0000000003FFFFFFF0
00000000FFFFFFFFF0
0000000FFFFFFFFFF0
0000007FFFFFFFFFF0
000001FFFFFFFFFFF0
000007FFFFFFFFFFF0
00001FFFFFFFFFFFF0
00007FFFFFFFFFFFF0
0000FFFFFFFFFFFFF0
0001FFFFFFFFFFFFF0
0007FFFFFFFFFFFFF0
000FFFFFFFFFFFFFF0
001FFFFFFFFFFFFFF0
003FFFFFFFFFFFFFF0
007FFFFFF80003FFF0
007FFFFF800003FFF0
00FFFFFC000003FFF0
01FFFFF0000003FFF0
01FFFFE0000003FFF0
03FFFF80000003FFF0
03FFFF00000003FFF0
07FFFE00000003FFF0
07FFFC00000003FFF0
0FFFF800000003FFF0
0FFFF000000003FFF0
1FFFE000000003FFF0
1FFFE000000003FFF0
1FFFC0000000000000
3FFF80000000000000
3FFF80000000000000
3FFF00000000000000
3FFF00000000000000
7FFF00000000000000
7FFE00000000000000
7FFE00000000000000
7FFE00000000000000
7FFE00000000000000
7FFC00000000000000
FFFC00000000000000
FFFC00000000000000
FFFC00000000000000
FFFC00000000000000
FFFC00000000000000
FFFC00000000000000
FFFC00000000000000
FFFC00000000000000
FFFC00000000000000
FFFC00000000000000
FFFC00000000000000
FFFC00000000000000
FFFC00000000000000
FFFC00000000000000
FFFC00000000000000
FFFC00000000000000
FFFC00000000000000
FFFC00000000000000
FFFC00000000000000
7FFC00000000000000
7FFE00000000000000
7FFE00000000000000
7FFE00000000000000
7FFE00000000000000
7FFF00000000000000
3FFF00000000000000
3FFF80000000000000
3FFF80000000000000
3FFF80000000000000
1FFFC0000000000000
1FFFE000000003FFF0
1FFFE000000003FFF0
0FFFF000000003FFF0
0FFFF800000003FFF0
07FFFC00000003FFF0
07FFFE00000003FFF0
03FFFF00000003FFF0
03FFFF80000003FFF0
01FFFFE0000003FFF0
01FFFFF0000003FFF0
00FFFFFE000003FFF0
007FFFFF800003FFF0
007FFFFFF80003FFF0
003FFFFFFFFFFFFFF0
001FFFFFFFFFFFFFF0
000FFFFFFFFFFFFFF0
0007FFFFFFFFFFFFF0
0003FFFFFFFFFFFFF0
0000FFFFFFFFFFFFF0
00007FFFFFFFFFFFF0
00001FFFFFFFFFFFF0
000007FFFFFFFFFFF0
000001FFFFFFFFFFF0
0000007FFFFFFFFFF0
0000000FFFFFFFFFF0
00000000FFFFFFFFF0
0000000003FFFFFFF0
ENDCHAR
STARTCHAR 0044
ENCODING 68
SWIDTH 540 0
DWIDTH 75 0
BBX 68 95 0 0
BITMAP
FFFFFFFC0000000000
FFFFFFFFF000000000
FFFFFFFFFF00000000
FFFFFFFFFFE0000000
FFFFFFFFFFF8000000
FFFFFFFFFFFE000000
FFFFFFFFFFFF800000
FFFFFFFFFFFFE00000
FFFFFFFFFFFFF00000
FFFFFFFFFFFFF80000
FFFFFFFFFFFFFE0000
FFFFFFFFFFFFFF0000
FFFFFFFFFFFFFF8000
FFFFFFFFFFFFFFC000
FFFC0001FFFFFFC000
FFFC00001FFFFFE000
FFFC000007FFFFF000
FFFC000001FFFFF800
FFFC0000007FFFF800
FFFC0000001FFFFC00
FFFC0000000FFFFC00
FFFC00000007FFFE00
FFFC00000003FFFE00
FFFC00000001FFFF00
FFFC00000000FFFF00
FFFC000000007FFF00
FFFC000000007FFF80
FFFC000000003FFF80
FFFC000000003FFF80
FFFC000000001FFFC0
FFFC000000001FFFC0
FFFC000000000FFFC0
FFFC000000000FFFC0
FFFC000000000FFFE0
FFFC0000000007FFE0
FFFC0000000007FFE0
FFFC0000000007FFE0
FFFC0000000007FFE0
FFFC0000000003FFE0
FFFC0000000003FFF0
FFFC0000000003FFF0
FFFC0000000003FFF0
FFFC0000000003FFF0
FFFC0000000003FFF0
FFFC0000000003FFF0
FFFC0000000003FFF0
FFFC0000000003FFF0
FFFC0000000003FFF0
FFFC0000000003FFF0
FFFC0000000003FFF0
FFFC0000000003FFF0
FFFC0000000003FFF0
FFFC0000000003FFF0
FFFC0000000003FFF0
FFFC0000000003FFF0
FFFC0000000003FFF0
FFFC0000000003FFE0
FFFC0000000007FFE0
FFFC0000000007FFE0
FFFC0000000007FFE0
FFFC0000000007FFE0
FFFC000000000FFFE0
FFFC000000000FFFC0
FFFC000000000FFFC0
FFFC000000001FFFC0
FFFC000000001FFFC0
FFFC000000003FFF80
FFFC000000003FFF80
FFFC000000007FFF80
FFFC000000007FFF00
FFFC00000000FFFF00
FFFC00000001FFFF00
FFFC00000003FFFE00
FFFC00000007FFFE00
FFFC0000000FFFFC00
00000000001FFFFC00
00000000007FFFF800
0000000001FFFFF800
0000000007FFFFF000
000000001FFFFFE000
00000001FFFFFFC000
FFFFFFFFFFFFFFC000
FFFFFFFFFFFFFF8000
FFFFFFFFFFFFFF0000
FFFFFFFFFFFFFE0000
FFFFFFFFFFFFF80000
FFFFFFFFFFFFF00000
FFFFFFFFFFFFE00000
FFFFFFFFFFFF800000
FFFFFFFFFFFE000000
FFFFFFFFFFF8000000
FFFFFFFFFFE0000000
FFFFFFFFFF00000000
FFFFFFFFF000000000
FFFFFFF80000000000
ENDCHAR
STARTCHAR 0045
ENCODING 69
SWIDTH 489 0
DWIDTH 68 0
BBX 61 95 0 0
BITMAP
FFFFFFFFFFFFFFF8
FFFFFFFFFFFFFFF8
FFFFFFFFFFFFFFF8
FFFFFFFFFFFFFFF8
FFFFFFFFFFFFFFF8
FFFFFFFFFFFFFFF8
FFFFFFFFFFFFFFF8
FFFFFFFFFFFFFFF8
FFFFFFFFFFFFFFF8
FFFFFFFFFFFFFFF8
FFFFFFFFFFFFFFF8
FFFFFFFFFFFFFFF8
FFFFFFFFFFFFFFF8
FFFFFFFFFFFFFFF8
FFFC000000000000
FFFC000000000000
FFFC000000000000
FFFC000000000000
FFFC000000000000
FFFC000000000000
FFFC000000000000
FFFC000000000000
FFFC000000000000
FFFC000000000000
FFFC000000000000
FFFC000000000000
FFFC000000000000
FFFC000000000000
FFFC000000000000
FFFC000000000000
FFFC000000000000
FFFC000000000000
FFFC000000000000
FFFC000000000000
FFFC000000000000
FFFC000000000000
FFFC000000000000
FFFC000000000000
FFFC000000000000
FFFC000000000000
FFFC0FFFFFFFFC00
FFFC0FFFFFFFFC00
FFFC0FFFFFFFFC00
FFFC0FFFFFFFFC00
FFFC0FFFFFFFFC00
FFFC0FFFFFFFFC00
FFFC0FFFFFFFFC00
FFFC0FFFFFFFFC00
FFFC0FFFFFFFFC00
FFFC0FFFFFFFFC00
FFFC0FFFFFFFFC00
FFFC0FFFFFFFFC00
FFFC0FFFFFFFFC00
FFFC0FFFFFFFFC00
FFFC000000000000
FFFC000000000000
FFFC000000000000
FFFC000000000000
FFFC000000000000
FFFC000000000000
FFFC000000000000
FFFC000000000000
FFFC000000000000
FFFC000000000000
FFFC000000000000
FFFC000000000000
FFFC000000000000
FFFC000000000000
FFFC00000000FFF8
FFFC00000000FFF8
FFFC00000000FFF8
FFFC00000000FFF8
FFFC00000000FFF8
FFFC00000000FFF8
FFFC00000000FFF8
FFFC00000000FFF8
FFFC00000000FFF8
FFFC00000000FFF8
FFFC00000000FFF8
FFFC00000000FFF8
FFFC00000000FFF8
FFFFFFFFFFFFFFF8
FFFFFFFFFFFFFFF8
FFFFFFFFFFFFFFF8
FFFFFFFFFFFFFFF8
FFFFFFFFFFFFFFF8
FFFFFFFFFFFFFFF8
FFFFFFFFFFFFFFF8
FFFFFFFFFFFFFFF8
FFFFFFFFFFFFFFF8
FFFFFFFFFFFFFFF8
FFFFFFFFFFFFFFF8
FFFFFFFFFFFFFFF8
FFFFFFFFFFFFFFF8
FFFFFFFFFFFFFFF8
ENDCHAR
STARTCHAR 0046
ENCODING 70
SWIDTH 489 0
DWIDTH 68 0
BBX 61 95 0 0
BITMAP
FFFFFFFFFFFFFFF8
FFFFFFFFFFFFFFF8
FFFFFFFFFFFFFFF8
FFFFFFFFFFFFFFF8
FFFFFFFFFFFFFFF8
FFFFFFFFFFFFFFF8
FFFFFFFFFFFFFFF8
FFFFFFFFFFFFFFF8
FFFFFFFFFFFFFFF8
FFFFFFFFFFFFFFF8
FFFFFFFFFFFFFFF8
FFFFFFFFFFFFFFF8
FFFFFFFFFFFFFFF8
FFFFFFFFFFFFFFF8
FFFC000000000000
FFFC000000000000
FFFC000000000000
FFFC000000000000
FFFC000000000000
FFFC000000000000
FFFC000000000000
FFFC000000000000
FFFC000000000000
FFFC000000000000
FFFC000000000000
FFFC000000000000
FFFC000000000000
FFFC000000000000
FFFC000000000000
FFFC000000000000
FFFC000000000000
FFFC000000000000
FFFC000000000000
FFFC000000000000
FFFC000000000000
FFFC000000000000
FFFC000000000000
FFFC000000000000
FFFC000000000000
FFFC000000000000
FFFC0FFFFFFFFC00
FFFC0FFFFFFFFC00
FFFC0FFFFFFFFC00
FFFC0FFFFFFFFC00
FFFC0FFFFFFFFC00
FFFC0FFFFFFFFC00
FFFC0FFFFFFFFC00
FFFC0FFFFFFFFC00
FFFC0FFFFFFFFC00
FFFC0FFFFFFFFC00
FFFC0FFFFFFFFC00
FFFC0FFFFFFFFC00
FFFC0FFFFFFFFC00
FFFC0FFFFFFFFC00
FFFC000000000000
FFFC000000000000
FFFC000000000000
FFFC000000000000
FFFC000000000000
FFFC000000000000
FFFC000000000000
FFFC000000000000
FFFC000000000000
FFFC000000000000
FFFC000000000000
FFFC000000000000
FFFC000000000000
FFFC000000000000
FFFC000000000000
FFFC000000000000
FFFC000000000000
FFFC000000000000
FFFC000000000000
FFFC000000000000
FFFC000000000000
FFFC000000000000
FFFC000000000000
FFFC000000000000
FFFC000000000000
FFFC000000000000
FFFC000000000000
FFFC000000000000
FFFC000000000000
FFFC000000000000
FFFC000000000000
FFFC000000000000
FFFC000000000000
FFFC000000000000
FFFC000000000000
FFFC000000000000
FFFC000000000000
FFFC000000000000
FFFC000000000000
FFFC000000000000
FFFC000000000000
ENDCHAR
STARTCHAR 0047
ENCODING 71
SWIDTH 540 0
DWIDTH 75 0
BBX 68 95 0 0
BITMAP
0000000003FFFFFFF0
00000000FFFFFFFFF0
0000000FFFFFFFFFF0
0000007FFFFFFFFFF0
000001FFFFFFFFFFF0
000007FFFFFFFFFFF0
00001FFFFFFFFFFFF0
00007FFFFFFFFFFFF0
0000FFFFFFFFFFFFF0
0001FFFFFFFFFFFFF0
0007FFFFFFFFFFFFF0
000FFFFFFFFFFFFFF0
001FFFFFFFFFFFFFF0
003FFFFFFFFFFFFFF0
007FFFFFF80003FFF0
007FFFFF800003FFF0
00FFFFFC000003FFF0
01FFFFF0000003FFF0
01FFFFE0000003FFF0
03FFFF80000003FFF0
03FFFF00000003FFF0
07FFFE00000003FFF0
07FFFC00000003FFF0
0FFFF800000003FFF0
0FFFF000000003FFF0
1FFFE000000003FFF0
1FFFE000000003FFF0
1FFFC0000000000000
3FFF80000000000000
3FFF80000000000000
3FFF00000000000000
3FFF00000000000000
7FFF00000000000000
7FFE00000000000000
7FFE00000000000000
7FFE00000000000000
7FFE00000000000000
7FFC00000000000000
FFFC00000000000000
FFFC00000000000000
FFFC00003FFFFFFFF0
FFFC00003FFFFFFFF0
FFFC00003FFFFFFFF0
FFFC00003FFFFFFFF0
FFFC00003FFFFFFFF0
FFFC00003FFFFFFFF0
FFFC00003FFFFFFFF0
FFFC00003FFFFFFFF0
FFFC00003FFFFFFFF0
FFFC00003FFFFFFFF0
FFFC00003FFFFFFFF0
FFFC00003FFFFFFFF0
FFFC00003FFFFFFFF0
FFFC00003FFFFFFFF0
FFFC0000000003FFF0
FFFC0000000003FFF0
FFFC0000000003FFF0
7FFC0000000003FFF0
7FFE0000000003FFF0
7FFE0000000003FFF0
7FFE0000000003FFF0
7FFE0000000003FFF0
7FFF0000000003FFF0
3FFF0000000003FFF0
3FFF8000000003FFF0
3FFF8000000003FFF0
3FFF8000000003FFF0
1FFFC000000003FFF0
1FFFE000000003FFF0
1FFFE000000003FFF0
0FFFF000000003FFF0
0FFFF800000003FFF0
07FFFC00000003FFF0
07FFFE00000003FFF0
03FFFF00000003FFF0
03FFFF800000000000
01FFFFE00000000000
01FFFFF00000000000
00FFFFFE0000000000
007FFFFF8000000000
007FFFFFF800000000
003FFFFFFFFFFFFFF0
001FFFFFFFFFFFFFF0
000FFFFFFFFFFFFFF0
0007FFFFFFFFFFFFF0
0003FFFFFFFFFFFFF0
0000FFFFFFFFFFFFF0
00007FFFFFFFFFFFF0
00001FFFFFFFFFFFF0
000007FFFFFFFFFFF0
000001FFFFFFFFFFF0
0000007FFFFFFFFFF0
0000000FFFFFFFFFF0
00000000FFFFFFFFF0
0000000003FFFFFFF0
ENDCHAR
STARTCHAR 0048
ENCODING 72
SWIDTH 540 0
DWIDTH 75 0
BBX 68 95 0 0
BITMAP
FFFC0000000003FFF0
FFFC0000000003FFF0
FFFC0000000003FFF0
FFFC0000000003FFF0
FFFC0000000003FFF0
FFFC0000000003FFF0
FFFC0000000003FFF0
FFFC0000000003FFF0
FFFC0000000003FFF0
FFFC0000000003FFF0
FFFC0000000003FFF0
FFFC0000000003FFF0
FFFC0000000003FFF0
FFFC0000000003FFF0
FFFC0000000003FFF0
FFFC0000000003FFF0
FFFC0000000003FFF0
FFFC0000000003FFF0
FFFC0000000003FFF0
FFFC0000000003FFF0
FFFC0000000003FFF0
FFFC0000000003FFF0
FFFC0000000003FFF0
FFFC0000000003FFF0
FFFC0000000003FFF0
FFFC0000000003FFF0
FFFC0000000003FFF0
FFFC0000000003FFF0
FFFC0000000003FFF0
FFFC0000000003FFF0
FFFC0000000003FFF0
FFFC0000000003FFF0
FFFC0000000003FFF0
FFFC0000000003FFF0
FFFC0000000003FFF0
FFFC0000000003FFF0
FFFC0000000003FFF0
FFFC0000000003FFF0
FFFC0000000003FFF0
FFFC0000000003FFF0
FFFC0FFFFFFFFFFFF0
FFFC0FFFFFFFFFFFF0
FFFC0FFFFFFFFFFFF0
FFFC0FFFFFFFFFFFF0
FFFC0FFFFFFFFFFFF0
FFFC0FFFFFFFFFFFF0
FFFC0FFFFFFFFFFFF0
FFFC0FFFFFFFFFFFF0
FFFC0FFFFFFFFFFFF0
FFFC0FFFFFFFFFFFF0
FFFC0FFFFFFFFFFFF0
FFFC0FFFFFFFFFFFF0
FFFC0FFFFFFFFFFFF0
FFFC0FFFFFFFFFFFF0
FFFC0000000003FFF0
FFFC0000000003FFF0
FFFC0000000003FFF0
FFFC0000000003FFF0
FFFC0000000003FFF0
FFFC0000000003FFF0
FFFC0000000003FFF0
FFFC0000000003FFF0
FFFC0000000003FFF0
FFFC0000000003FFF0
FFFC0000000003FFF0
FFFC0000000003FFF0
FFFC0000000003FFF0
FFFC0000000003FFF0
FFFC0000000003FFF0
FFFC0000000003FFF0
FFFC0000000003FFF0
FFFC0000000003FFF0
FFFC0000000003FFF0
FFFC0000000003FFF0
FFFC0000000003FFF0
FFFC0000000003FFF0
FFFC0000000003FFF0
FFFC0000000003FFF0
FFFC0000000003FFF0
FFFC0000000003FFF0
FFFC0000000003FFF0
FFFC0000007FFFFFF0
FFFC0000007FFFFFF0
FFFC0000007FFFFFF0
FFFC0000007FFFFFF0
FFFC0000007FFFFFF0
FFFC0000007FFFFFF0
FFFC0000007FFFFFF0
FFFC0000007FFFFFF0
FFFC0000007FFFFFF0
FFFC0000007FFFFFF0
FFFC0000007FFFFFF0
FFFC0000007FFFFFF0
FFFC0000007FFFFFF0
FFFC0000007FFFFFF0
ENDCHAR
STARTCHAR 0049
ENCODING 73
SWIDTH 144 0
DWIDTH 20 0
BBX 14 95 0 0
BITMAP
FFFC
FFFC
FFFC
FFFC
FFFC
FFFC
FFFC
FFFC
FFFC
FFFC
FFFC
FFFC
FFFC
FFFC
FFFC
FFFC
FFFC
FFFC
FFFC
FFFC
FFFC
FFFC
FFFC
FFFC
FFFC
FFFC
FFFC
FFFC
FFFC
FFFC
FFFC
FFFC
FFFC
FFFC
FFFC
FFFC
FFFC
FFFC
FFFC
FFFC
FFFC
FFFC
FFFC
FFFC
FFFC
FFFC
FFFC
FFFC
FFFC
FFFC
FFFC
FFFC
FFFC
FFFC
FFFC
FFFC
FFFC
FFFC
FFFC
FFFC
FFFC
FFFC
FFFC
FFFC
FFFC
FFFC
FFFC
FFFC
FFFC
FFFC
FFFC
FFFC
FFFC
FFFC
FFFC
FFFC
FFFC
FFFC
FFFC
FFFC
FFFC
FFFC
FFFC
FFFC
FFFC
FFFC
FFFC
FFFC
FFFC
FFFC
FFFC
FFFC
FFFC
FFFC
FFFC
ENDCHAR
STARTCHAR 004A
ENCODING 74
SWIDTH 540 0
DWIDTH 75 0
BBX 68 95 0 0
BITMAP
000000003FFFFFFFF0
000000003FFFFFFFF0
000000003FFFFFFFF0
000000003FFFFFFFF0
000000003FFFFFFFF0
000000003FFFFFFFF0
000000003FFFFFFFF0
000000003FFFFFFFF0
000000003FFFFFFFF0
000000003FFFFFFFF0
000000003FFFFFFFF0
000000003FFFFFFFF0
000000003FFFFFFFF0
000000003FFFFFFFF0
00000000000003FFF0
00000000000003FFF0
00000000000003FFF0
00000000000003FFF0
00000000000003FFF0
00000000000003FFF0
00000000000003FFF0
00000000000003FFF0
00000000000003FFF0
00000000000003FFF0
00000000000003FFF0
00000000000003FFF0
00000000000003FFF0
00000000000003FFF0
00000000000003FFF0
00000000000003FFF0
00000000000003FFF0
00000000000003FFF0
00000000000003FFF0
00000000000003FFF0
00000000000003FFF0
00000000000003FFF0
00000000000003FFF0
00000000000003FFF0
00000000000003FFF0
00000000000003FFF0
00000000000003FFF0
00000000000003FFF0
00000000000003FFF0
00000000000003FFF0
00000000000003FFF0
00000000000003FFF0
00000000000003FFF0
00000000000003FFF0
00000000000003FFF0
00000000000003FFF0
00000000000003FFF0
00000000000003FFF0
00000000000003FFF0
00000000000003FFF0
00000000000003FFF0
00000000000003FFF0
00000000000003FFF0
00000000000003FFE0
00000000000003FFE0
00000000000007FFE0
00000000000007FFE0
FFFC0000000007FFE0
FFFC0000000007FFE0
FFFC0000000007FFE0
FFFC0000000007FFE0
FFFC000000000FFFC0
FFFC000000000FFFC0
FFFC000000000FFFC0
FFFC000000001FFFC0
7FFE000000001FFF80
7FFE000000003FFF80
7FFE000000003FFF80
7FFF000000007FFF80
7FFF000000007FFF00
3FFF80000000FFFF00
3FFFC0000001FFFE00
3FFFE0000003FFFE00
1FFFF0000007FFFE00
1FFFF800000FFFFC00
0FFFFE00003FFFFC00
0FFFFFC000FFFFF800
07FFFFFFFFFFFFF000
07FFFFFFFFFFFFF000
03FFFFFFFFFFFFE000
01FFFFFFFFFFFFC000
00FFFFFFFFFFFF8000
00FFFFFFFFFFFF8000
003FFFFFFFFFFF0000
001FFFFFFFFFFC0000
000FFFFFFFFFF80000
0003FFFFFFFFF00000
0000FFFFFFFFC00000
00003FFFFFFF000000
000007FFFFF8000000
0000003FFF00000000
ENDCHAR
STARTCHAR 004B
ENCODING 75
SWIDTH 540 0
DWIDTH 75 0
BBX 70 95 0 0
BITMAP
FFFC0000000003FFFC
FFFC0000000007FFF8
FFFC0000000007FFF0
FFFC000000000FFFF0
FFFC000000000FFFE0
FFFC000000001FFFE0
FFFC000000003FFFC0
FFFC000000003FFF80
FFFC000000007FFF80
FFFC000000007FFF00
FFFC00000000FFFF00
FFFC00000000FFFE00
FFFC00000001FFFE00
FFFC00000003FFFC00
FFFC00000003FFF800
FFFC00000007FFF800
FFFC00000007FFF000
FFFC0000000FFFF000
FFFC0000000FFFE000
FFFC0000001FFFE000
FFFC0000003FFFC000
FFFC0000003FFFC000
FFFC0000007FFF8000
FFFC0000007FFF0000
FFFC000000FFFF0000
FFFC000000FFFE0000
FFFC000001FFFE0000
FFFC000003FFFC0000
FFFC000003FFFC0000
FFFC000007FFF80000
FFFC000007FFF00000
FFFC00000FFFF00000
FFFC00000FFFE00000
FFFC00001FFFE00000
FFFC00003FFFC00000
FFFC00003FFFC00000
FFFC00007FFF800000
FFFC00007FFF000000
FFFC0000FFFF000000
FFFC0000FFFE000000
FFFC0FFFFFFE000000
FFFC0FFFFFFC000000
FFFC0FFFFFFC000000
FFFC0FFFFFF8000000
FFFC0FFFFFF0000000
FFFC0FFFFFF0000000
FFFC0FFFFFE0000000
FFFC0FFFFFE0000000
FFFC0FFFFFE0000000
FFFC0FFFFFF0000000
FFFC0FFFFFF0000000
FFFC0FFFFFF8000000
FFFC0FFFFFFC000000
FFFC0FFFFFFC000000
FFFC0001FFFE000000
FFFC0000FFFE000000
FFFC0000FFFF000000
FFFC00007FFF000000
FFFC00003FFF800000
FFFC00003FFFC00000
FFFC00001FFFC00000
FFFC00001FFFE00000
FFFC00000FFFE00000
FFFC00000FFFF00000
FFFC000007FFF00000
FFFC000007FFF80000
FFFC000003FFFC0000
FFFC000001FFFC0000
FFFC000001FFFE0000
FFFC000000FFFE0000
FFFC000000FFFF0000
FFFC0000007FFF0000
FFFC0000007FFF8000
FFFC0000003FFFC000
FFFC0000001FFFC000
FFFC0000001FFFE000
FFFC0000000FFFE000
FFFC0000000FFFF000
FFFC00000007FFF000
FFFC00000007FFF800
FFFC00000003FFF800
FFFC00000003FFFC00
FFFC00000001FFFE00
FFFC00000000FFFE00
FFFC00000000FFFF00
FFFC000000007FFF00
FFFC000000007FFF80
FFFC000000003FFF80
FFFC000000003FFFC0
FFFC000000001FFFE0
FFFC000000000FFFE0
FFFC000000000FFFF0
FFFC0000000007FFF0
FFFC0000000007FFF8
FFFC0000000003FFFC
ENDCHAR
STARTCHAR 004C
ENCODING 76
SWIDTH 489 0
DWIDTH 68 0
BBX 61 95 0 0
BITMAP
FFFC000000000000
FFFC000000000000
FFFC000000000000
FFFC000000000000
FFFC000000000000
FFFC000000000000
FFFC000000000000
FFFC000000000000
FFFC000000000000
FFFC000000000000
FFFC000000000000
FFFC000000000000
FFFC000000000000
FFFC000000000000
FFFC000000000000
FFFC000000000000
FFFC000000000000
FFFC000000000000
FFFC000000000000
FFFC000000000000
FFFC000000000000
FFFC000000000000
FFFC000000000000
FFFC000000000000
FFFC000000000000
FFFC000000000000
FFFC000000000000
FFFC000000000000
FFFC000000000000
FFFC000000000000
FFFC000000000000
FFFC000000000000
FFFC000000000000
FFFC000000000000
FFFC000000000000
FFFC000000000000
FFFC000000000000
FFFC000000000000
FFFC000000000000
FFFC000000000000
FFFC000000000000
FFFC000000000000
FFFC000000000000
FFFC000000000000
FFFC000000000000
FFFC000000000000
FFFC000000000000
FFFC000000000000
FFFC000000000000
FFFC000000000000
FFFC000000000000
FFFC000000000000
FFFC000000000000
FFFC000000000000
FFFC000000000000
FFFC000000000000
FFFC000000000000
FFFC000000000000
FFFC000000000000
FFFC000000000000
FFFC000000000000
FFFC000000000000
FFFC000000000000
FFFC000000000000
FFFC000000000000
FFFC000000000000
FFFC000000000000
FFFC000000000000
FFFC00000000FFF8
FFFC00000000FFF8
FFFC00000000FFF8
FFFC00000000FFF8
FFFC00000000FFF8
FFFC00000000FFF8
FFFC00000000FFF8
FFFC00000000FFF8
FFFC00000000FFF8
FFFC00000000FFF8
FFFC00000000FFF8
FFFC00000000FFF8
FFFC00000000FFF8
FFFFFFFFFFFFFFF8
FFFFFFFFFFFFFFF8
FFFFFFFFFFFFFFF8
FFFFFFFFFFFFFFF8
FFFFFFFFFFFFFFF8
FFFFFFFFFFFFFFF8
FFFFFFFFFFFFFFF8
FFFFFFFFFFFFFFF8
FFFFFFFFFFFFFFF8
FFFFFFFFFFFFFFF8
FFFFFFFFFFFFFFF8
FFFFFFFFFFFFFFF8
FFFFFFFFFFFFFFF8
FFFFFFFFFFFFFFF8
ENDCHAR
STARTCHAR 004D
ENCODING 77
SWIDTH 633 0
DWIDTH 88 0
BBX 81 96 0 -1
BITMAP
FFFC0000000000000FFF80
FFFC0000000000000FFF80
FFFC0000000000000FFF80
FFFC0000000000000FFF80
FFFC0000000000000FFF80
FFFC0000000000000FFF80
FFFC0000000000000FFF80
FFFC0000000000000FFF80
FFFC0800000000040FFF80
FFFC0800000000080FFF80
FFFC0800000000080FFF80
FFFC0C00000000080FFF80
FFFC0C00000000180FFF80
FFFC0E00000000180FFF80
FFFC0E00000000380FFF80
FFFC0E00000000380FFF80
FFFC0F00000000380FFF80
FFFC0F00000000780FFF80
FFFC0F80000000780FFF80
FFFC0F80000000F80FFF80
FFFC0F80000000F80FFF80
FFFC0FC0000000F80FFF80
FFFC0FC0000001F80FFF80
FFFC0FE0000001F80FFF80
FFFC0FE0000003F80FFF80
FFFC0FE0000003F80FFF80
FFFC0FF0000003F80FFF80
FFFC0FF0000007F80FFF80
FFFC0FF8000007F80FFF80
FFFC0FF800000FF80FFF80
FFFC0FF800000FF80FFF80
FFFC0FFC00000FF80FFF80
FFFC0FFC00001FF80FFF80
FFFC0FFE00001FF80FFF80
FFFC0FFE00003FF80FFF80
FFFC0FFE00003FF80FFF80
FFFC0FFF00003FF80FFF80
FFFC0FFF00007FF80FFF80
FFFC0FFF80007FF80FFF80
FFFC0FFF8000FFF80FFF80
FFFC0FFFC000FFF80FFF80
FFFC0FFFC000FFF80FFF80
FFFC0FFFC001FFF80FFF80
FFFC0FFFE001FFF80FFF80
FFFC0FFFE003FFF80FFF80
FFFC07FFF003FFF80FFF80
FFFC07FFF007FFF00FFF80
FFFC07FFF007FFF00FFF80
FFFC03FFF807FFF00FFF80
FFFC03FFF80FFFE00FFF80
FFFC01FFFC0FFFE00FFF80
FFFC01FFFC1FFFC00FFF80
FFFC01FFFC1FFFC00FFF80
FFFC00FFFE1FFFC00FFF80
FFFC00FFFE3FFF800FFF80
FFFC007FFF3FFF800FFF80
FFFC007FFF7FFF000FFF80
FFFC007FFF7FFF000FFF80
FFFC003FFFFFFF000FFF80
FFFC003FFFFFFE000FFF80
FFFC001FFFFFFE000FFF80
FFFC001FFFFFFC000FFF80
FFFC001FFFFFFC000FFF80
FFFC000FFFFFFC000FFF80
FFFC000FFFFFF8000FFF80
FFFC0007FFFFF8000FFF80
FFFC0007FFFFF0000FFF80
FFFC0007FFFFF0000FFF80
FFFC0003FFFFF0000FFF80
FFFC0003FFFFE0000FFF80
FFFC0001FFFFE0000FFF80
FFFC0001FFFFC0000FFF80
FFFC0001FFFFC0000FFF80
FFFC0000FFFFC0000FFF80
FFFC0000FFFF80000FFF80
FFFC00007FFF80000FFF80
FFFC00007FFF00000FFF80
FFFC00007FFF00000FFF80
FFFC00003FFF00000FFF80
FFFC00003FFE00000FFF80
FFFC00001FFE00000FFF80
FFFC00001FFC00000FFF80
FFFC00001FFC00000FFF80
FFFC00000FFC00000FFF80
FFFC00000FF800000FFF80
FFFC000007F800000FFF80
FFFC000007F000000FFF80
FFFC000007F000000FFF80
FFFC000003F000000FFF80
FFFC000003E000000FFF80
FFFC000001E000000FFF80
FFFC000001C000000FFF80
FFFC000001C000000FFF80
FFFC000000C000000FFF80
FFFC0000008000000FFF80
0000000000800000000000
ENDCHAR
STARTCHAR 004E
ENCODING 78
SWIDTH 540 0
DWIDTH 75 0
BBX 68 95 0 0
BITMAP
FFFC0000000003FFF0
FFFC0000000003FFF0
FFFC0000000003FFF0
FFFC0000000003FFF0
FFFC0000000003FFF0
FFFC0000000003FFF0
FFFC0000000003FFF0
FFFC0000000003FFF0
FFFC0800000003FFF0
FFFC0800000003FFF0
FFFC0C00000003FFF0
FFFC0C00000003FFF0
FFFC0E00000003FFF0
FFFC0E00000003FFF0
FFFC0F00000003FFF0
FFFC0F80000003FFF0
FFFC0F80000003FFF0
FFFC0FC0000003FFF0
FFFC0FC0000003FFF0
FFFC0FE0000003FFF0
FFFC0FE0000003FFF0
FFFC0FF0000003FFF0
FFFC0FF8000003FFF0
FFFC0FF8000003FFF0
FFFC0FFC000003FFF0
FFFC0FFC000003FFF0
FFFC0FFE000003FFF0
FFFC0FFE000003FFF0
FFFC0FFF000003FFF0
FFFC0FFF800003FFF0
FFFC0FFF800003FFF0
FFFC0FFFC00003FFF0
FFFC0FFFC00003FFF0
FFFC0FFFE00003FFF0
FFFC0FFFE00003FFF0
FFFC07FFF00003FFF0
FFFC07FFF00003FFF0
FFFC03FFF80003FFF0
FFFC01FFFC0003FFF0
FFFC01FFFC0003FFF0
FFFC00FFFE0003FFF0
FFFC00FFFE0003FFF0
FFFC007FFF0003FFF0
FFFC007FFF0003FFF0
FFFC003FFF8003FFF0
FFFC003FFFC003FFF0
FFFC001FFFC003FFF0
FFFC000FFFE003FFF0
FFFC000FFFE003FFF0
FFFC0007FFF003FFF0
FFFC0007FFF003FFF0
FFFC0003FFF803FFF0
FFFC0003FFFC03FFF0
FFFC0001FFFC03FFF0
FFFC0000FFFE03FFF0
FFFC0000FFFE03FFF0
FFFC00007FFF03FFF0
FFFC00007FFF03FFF0
FFFC00003FFF83FFF0
FFFC00003FFF83FFF0
FFFC00001FFFC3FFF0
FFFC00001FFFE3FFF0
FFFC00000FFFE3FFF0
FFFC000007FFF3FFF0
FFFC000007FFF3FFF0
FFFC000003FFFBFFF0
FFFC000003FFFBFFF0
FFFC000001FFFFFFF0
FFFC000001FFFFFFF0
FFFC000000FFFFFFF0
FFFC0000007FFFFFF0
FFFC0000007FFFFFF0
FFFC0000003FFFFFF0
FFFC0000003FFFFFF0
FFFC0000001FFFFFF0
FFFC0000001FFFFFF0
FFFC0000000FFFFFF0
FFFC0000000FFFFFF0
FFFC00000007FFFFF0
FFFC00000003FFFFF0
FFFC00000003FFFFF0
FFFFFFE00001FFFFF0
FFFFFFE00001FFFFF0
FFFFFFE00000FFFFF0
FFFFFFE00000FFFFF0
FFFFFFE000007FFFF0
FFFFFFE000003FFFF0
FFFFFFE000003FFFF0
FFFFFFE000001FFFF0
FFFFFFE000001FFFF0
FFFFFFE000000FFFF0
FFFFFFE000000FFFF0
FFFFFFE0000007FFF0
FFFFFFE0000007FFF0
FFFFFFE0000003FFF0
ENDCHAR
STARTCHAR 004F
ENCODING 79
SWIDTH 540 0
DWIDTH 75 0
BBX 68 95 0 0
BITMAP
0000001E0780000000
000001FE07F8000000
00000FFE07FF000000
00003FFE07FFC00000
0000FFFE07FFF00000
0001FFFE07FFF80000
0007FFFE07FFFC0000
000FFFFE07FFFF0000
001FFFFE07FFFF8000
003FFFFE07FFFF8000
007FFFFE07FFFFC000
007FFFFE07FFFFE000
00FFFFFE07FFFFF000
01FFFFFE07FFFFF000
01FFFFF000FFFFF800
03FFFF80003FFFFC00
03FFFF00000FFFFC00
07FFFC000007FFFE00
07FFF8000003FFFE00
0FFFF0000001FFFE00
0FFFF0000000FFFF00
0FFFE00000007FFF00
1FFFC00000007FFF80
1FFFC00000003FFF80
1FFF800000003FFF80
3FFF800000001FFF80
3FFF800000001FFFC0
3FFF000000000FFFC0
3FFF000000000FFFC0
7FFF000000000FFFC0
7FFE0000000007FFE0
7FFE0000000007FFE0
7FFE0000000007FFE0
7FFE0000000007FFE0
7FFC0000000007FFE0
7FFC0000000007FFE0
FFFC0000000003FFE0
FFFC0000000003FFE0
FFFC0000000003FFF0
FFFC0000000003FFF0
FFFC0000000003FFF0
FFFC0000000003FFF0
FFFC0000000003FFF0
FFFC0000000003FFF0
FFFC0000000003FFF0
FFFC0000000003FFF0
FFFC0000000003FFF0
FFFC0000000003FFF0
FFFC0000000003FFF0
FFFC0000000003FFF0
FFFC0000000003FFF0
FFFC0000000003FFF0
FFFC0000000003FFF0
FFFC0000000003FFF0
FFFC0000000003FFF0
FFFC0000000003FFF0
FFFC0000000003FFF0
FFFC0000000003FFE0
FFFC0000000003FFE0
7FFC0000000007FFE0
7FFC0000000007FFE0
7FFE0000000007FFE0
7FFE0000000007FFE0
7FFE0000000007FFE0
7FFE0000000007FFE0
3FFF000000000FFFC0
3FFF000000000FFFC0
3FFF000000000FFFC0
3FFF800000001FFFC0
3FFF800000001FFF80
1FFF800000003FFF80
1FFFC00000003FFF80
1FFFC00000007FFF80
0FFFE00000007FFF00
0FFFF0000000FFFF00
0FFFF0000001FFFE00
07FFF8000003FFFE00
07FFFC000007FFFE00
03FFFF00000FFFFC00
03FFFF80003FFFFC00
01FFFFF000FFFFF800
01FFFFFE07FFFFF000
00FFFFFE07FFFFF000
007FFFFE07FFFFE000
007FFFFE07FFFFC000
003FFFFE07FFFF8000
001FFFFE07FFFF8000
000FFFFE07FFFE0000
0007FFFE07FFFC0000
0001FFFE07FFF80000
0000FFFE07FFF00000
00003FFE07FFC00000
00000FFE07FF000000
000001FE07F8000000
0000001E0700000000
ENDCHAR
STARTCHAR 0050
ENCODING 80
SWIDTH 540 0
DWIDTH 75 0
BBX 68 95 0 0
BITMAP
FFFFFFFFFFC0000000
FFFFFFFFFFFE000000
FFFFFFFFFFFFC00000
FFFFFFFFFFFFF00000
FFFFFFFFFFFFFC0000
FFFFFFFFFFFFFF0000
FFFFFFFFFFFFFF8000
FFFFFFFFFFFFFFC000
FFFFFFFFFFFFFFE000
FFFFFFFFFFFFFFF000
FFFFFFFFFFFFFFF800
FFFFFFFFFFFFFFFC00
FFFFFFFFFFFFFFFE00
FFFFFFFFFFFFFFFE00
FFFC0000003FFFFF00
FFFC0000000FFFFF00
FFFC00000003FFFF80
FFFC00000000FFFF80
FFFC000000007FFFC0
FFFC000000003FFFC0
FFFC000000001FFFC0
FFFC000000001FFFC0
FFFC000000000FFFE0
FFFC000000000FFFE0
FFFC0000000007FFE0
FFFC0000000007FFE0
FFFC0000000007FFE0
FFFC0000000003FFF0
FFFC0000000003FFF0
FFFC0000000003FFF0
FFFC0000000003FFF0
FFFC0000000003FFF0
FFFC0000000003FFF0
FFFC0000000003FFF0
FFFC0000000003FFF0
FFFC0000000003FFF0
FFFC0000000003FFF0
FFFC0000000003FFF0
FFFC0000000003FFF0
FFFC0000000003FFF0
FFFC0000000003FFF0
FFFC0000000007FFE0
FFFC0000000007FFE0
FFFC0000000007FFE0
FFFC000000000FFFE0
FFFC000000000FFFE0
FFFC000000001FFFC0
FFFC000000001FFFC0
FFFC000000003FFFC0
FFFC000000007FFFC0
FFFC00000000FFFF80
FFFC00000003FFFF80
FFFC00000007FFFF00
FFFC0000003FFFFF00
FFFC0FFFFFFFFFFE00
FFFC0FFFFFFFFFFE00
FFFC0FFFFFFFFFFC00
FFFC0FFFFFFFFFF800
FFFC0FFFFFFFFFF000
FFFC0FFFFFFFFFE000
FFFC0FFFFFFFFFC000
FFFC0FFFFFFFFF8000
FFFC0FFFFFFFFF0000
FFFC0FFFFFFFFC0000
FFFC0FFFFFFFF00000
FFFC0FFFFFFFC00000
FFFC0FFFFFFE000000
FFFC0FFFFFC0000000
FFFC00000000000000
FFFC00000000000000
FFFC00000000000000
FFFC00000000000000
FFFC00000000000000
FFFC00000000000000
FFFC00000000000000
FFFC00000000000000
FFFC00000000000000
FFFC00000000000000
FFFC00000000000000
FFFC00000000000000
FFFC00000000000000
FFFC00000000000000
FFFC00000000000000
FFFC00000000000000
FFFC00000000000000
FFFC00000000000000
FFFC00000000000000
FFFC00000000000000
FFFC00000000000000
FFFC00000000000000
FFFC00000000000000
FFFC00000000000000
FFFC00000000000000
FFFC00000000000000
FFFC00000000000000
ENDCHAR
STARTCHAR 0051
ENCODING 81
SWIDTH 540 0
DWIDTH 75 0
BBX 68 102 0 -7
BITMAP
000000060600000000
000000FE07F0000000
000007FE07FE000000
00003FFE07FF800000
00007FFE07FFE00000
0001FFFE07FFF80000
0003FFFE07FFFC0000
0007FFFE07FFFE0000
001FFFFE07FFFF0000
001FFFFE07FFFF8000
003FFFFE07FFFFC000
007FFFFE07FFFFE000
00FFFFFE07FFFFF000
01FFFFFE07FFFFF000
01FFFFF001FFFFF800
03FFFFC0003FFFFC00
03FFFF00000FFFFC00
07FFFE000007FFFE00
07FFFC000003FFFE00
0FFFF8000001FFFE00
0FFFF0000000FFFF00
0FFFE00000007FFF00
1FFFE00000007FFF00
1FFFC00000003FFF80
1FFF800000003FFF80
3FFF800000001FFF80
3FFF800000001FFFC0
3FFF000000000FFFC0
3FFF000000000FFFC0
3FFF000000000FFFC0
7FFE000000000FFFC0
7FFE0000000007FFE0
7FFE0000000007FFE0
7FFE0000000007FFE0
7FFE0000000007FFE0
7FFC0000000007FFE0
7FFC0000000003FFE0
FFFC0000000003FFE0
FFFC0000000003FFE0
FFFC0000000003FFF0
FFFC0000000003FFF0
FFFC0000000003FFF0
FFFC0000000003FFF0
FFFC0000000003FFF0
FFFC0000000003FFF0
FFFC0000000003FFF0
FFFC0000000003FFF0
FFFC0000000003FFF0
FFFC0000000003FFF0
FFFC0000000003FFF0
FFFC0000000003FFF0
FFFC0000000003FFF0
FFFC0000000003FFF0
FFFC0000000003FFF0
FFFC00FFFE0003FFF0
FFFC00FFFF0003FFF0
FFFC007FFF0003FFF0
FFFC007FFF8003FFE0
FFFC003FFFC003FFE0
7FFC001FFFC003FFE0
7FFC001FFFE007FFE0
7FFE000FFFE007FFE0
7FFE000FFFF007FFE0
7FFE0007FFF007FFE0
7FFE0007FFF807FFE0
7FFF0003FFFC0FFFC0
3FFF0001FFFC0FFFC0
3FFF0001FFFE0FFFC0
3FFF0000FFFE1FFFC0
3FFF8000FFFF1FFF80
1FFF80007FFF1FFF80
1FFFC0007FFFBFFF80
1FFFC0003FFFFFFF80
0FFFE0001FFFFFFF00
0FFFF0001FFFFFFF00
0FFFF0000FFFFFFF00
07FFF8000FFFFFFE00
07FFFC0007FFFFFE00
03FFFE0007FFFFFC00
03FFFF8003FFFFFC00
01FFFFE003FFFFF800
01FFFFFE07FFFFF800
00FFFFFE07FFFFF000
007FFFFE07FFFFE000
007FFFFE07FFFFC000
003FFFFE07FFFFC000
001FFFFE07FFFFC000
000FFFFE07FFFFC000
0007FFFE07FFFFE000
0003FFFE07FFFFE000
0000FFFE07FFFFF000
00003FFE07FFFFF000
00000FFE07FFFFF800
000003FE07FFFFF800
0000003E07C3FFFC00
000000000001FFFE00
000000000000FFFE00
000000000000FFFF00
0000000000007FFF00
0000000000007FFF80
0000000000003FFF80
0000000000003FFFC0
ENDCHAR
STARTCHAR 0052
ENCODING 82
SWIDTH 540 0
DWIDTH 75 0
BBX 70 95 0 0
BITMAP
FFFFFFFFFFE0000000
FFFFFFFFFFFF000000
FFFFFFFFFFFFE00000
FFFFFFFFFFFFFC0000
FFFFFFFFFFFFFF0000
FFFFFFFFFFFFFFC000
FFFFFFFFFFFFFFE000
FFFFFFFFFFFFFFF000
FFFFFFFFFFFFFFF800
FFFFFFFFFFFFFFFC00
FFFFFFFFFFFFFFFE00
FFFFFFFFFFFFFFFF00
FFFFFFFFFFFFFFFF00
FFFFFFFFFFFFFFFF80
FFFC0000001FFFFF80
FFFC00000003FFFFC0
FFFC00000000FFFFC0
FFFC000000003FFFE0
FFFC000000001FFFE0
FFFC000000000FFFE0
FFFC0000000007FFE0
FFFC0000000007FFE0
FFFC0000000003FFF0
FFFC0000000003FFF0
FFFC0000000003FFF0
FFFC0000000003FFF0
FFFC0000000003FFF0
FFFC0000000003FFF0
FFFC0000000003FFF0
FFFC0000000003FFF0
FFFC0000000003FFF0
FFFC0000000003FFF0
FFFC0000000007FFE0
FFFC0000000007FFE0
FFFC000000000FFFE0
FFFC000000001FFFE0
FFFC000000003FFFE0
FFFC00000000FFFFC0
FFFC00000003FFFFC0
FFFC0000001FFFFF80
FFFC0FFFFFFFFFFF80
FFFC0FFFFFFFFFFF00
FFFC0FFFFFFFFFFF00
FFFC0FFFFFFFFFFE00
FFFC0FFFFFFFFFFC00
FFFC0FFFFFFFFFF800
FFFC0FFFFFFFFFF000
FFFC0FFFFFFFFFE000
FFFC0FFFFFFFFFC000
FFFC0FFFFFFFFF0000
FFFC0FFFFFFFFC0000
FFFC0FFFFFFFE00000
FFFC0FFFFFFF000000
FFFC0FFFFFFC000000
FFFC0001FFFE000000
FFFC0000FFFE000000
FFFC0000FFFF000000
FFFC00007FFF800000
FFFC00003FFF800000
FFFC00003FFFC00000
FFFC00001FFFC00000
FFFC00001FFFE00000
FFFC00000FFFE00000
FFFC00000FFFF00000
FFFC000007FFF80000
FFFC000007FFF80000
FFFC000003FFFC0000
FFFC000001FFFC0000
FFFC000001FFFE0000
FFFC000000FFFE0000
FFFC000000FFFF0000
FFFC0000007FFF0000
FFFC0000007FFF8000
FFFC0000003FFFC000
FFFC0000001FFFC000
FFFC0000001FFFE000
FFFC0000000FFFE000
FFFC0000000FFFF000
FFFC00000007FFF000
FFFC00000007FFF800
FFFC00000003FFFC00
FFFFFFE00003FFFC00
FFFFFFE00001FFFE00
FFFFFFE00000FFFE00
FFFFFFE00000FFFF00
FFFFFFE000007FFF00
FFFFFFE000007FFF80
FFFFFFE000003FFF80
FFFFFFE000003FFFC0
FFFFFFE000001FFFE0
FFFFFFE000000FFFE0
FFFFFFE000000FFFF0
FFFFFFE0000007FFF0
FFFFFFE0000007FFF8
FFFFFFE0000003FFFC
ENDCHAR
STARTCHAR 0053
ENCODING 83
SWIDTH 540 0
DWIDTH 75 0
BBX 68 95 0 0
BITMAP
0000007FFFFFFFFFF0
00000FFFFFFFFFFFF0
0000FFFFFFFFFFFFF0
0003FFFFFFFFFFFFF0
000FFFFFFFFFFFFFF0
003FFFFFFFFFFFFFF0
007FFFFFFFFFFFFFF0
00FFFFFFFFFFFFFFF0
01FFFFFFFFFFFFFFF0
03FFFFFFFFFFFFFFF0
07FFFFFFFFFFFFFFF0
0FFFFFFFFFFFFFFFF0
1FFFFFFFFFFFFFFFF0
1FFFFFFFFFFFFFFFF0
3FFFFF80000003FFF0
3FFFF800000003FFF0
3FFFE000000003FFF0
7FFFC000000003FFF0
7FFF8000000003FFF0
7FFF0000000003FFF0
7FFE0000000003FFF0
FFFE0000000003FFF0
FFFC0000000003FFF0
FFFC0000000003FFF0
FFFC0000000003FFF0
FFFC0000000003FFF0
FFFC0000000003FFF0
FFFC00000000000000
FFFC00000000000000
FFFC00000000000000
FFFC00000000000000
FFFC00000000000000
FFFE00000000000000
7FFE00000000000000
7FFF00000000000000
7FFF80000000000000
7FFFC0000000000000
3FFFE0000000000000
3FFFF8000000000000
3FFFFF800000000000
1FFFFFFFE000000000
1FFFFFFFFFFC000000
0FFFFFFFFFFFC00000
07FFFFFFFFFFF80000
03FFFFFFFFFFFE0000
01FFFFFFFFFFFF8000
00FFFFFFFFFFFFC000
007FFFFFFFFFFFF000
003FFFFFFFFFFFF800
000FFFFFFFFFFFFC00
0003FFFFFFFFFFFE00
0000FFFFFFFFFFFE00
00000FFFFFFFFFFF00
0000007FFFFFFFFF80
00000000007FFFFF80
000000000007FFFFC0
000000000000FFFFC0
0000000000007FFFC0
0000000000001FFFE0
0000000000000FFFE0
0000000000000FFFE0
00000000000007FFE0
00000000000007FFF0
00000000000003FFF0
00000000000003FFF0
00000000000003FFF0
00000000000003FFF0
00000000000003FFF0
FFFC0000000003FFF0
FFFC0000000003FFF0
FFFC0000000003FFF0
FFFC0000000003FFF0
FFFC0000000003FFF0
FFFC0000000007FFE0
FFFC0000000007FFE0
FFFC000000000FFFE0
FFFC000000001FFFE0
FFFC000000003FFFE0
FFFC00000000FFFFC0
FFFC00000003FFFFC0
FFFC0000001FFFFF80
FFFFFFFFFFFFFFFF80
FFFFFFFFFFFFFFFF00
FFFFFFFFFFFFFFFF00
FFFFFFFFFFFFFFFE00
FFFFFFFFFFFFFFFC00
FFFFFFFFFFFFFFF800
FFFFFFFFFFFFFFF000
FFFFFFFFFFFFFFE000
FFFFFFFFFFFFFFC000
FFFFFFFFFFFFFF0000
FFFFFFFFFFFFFC0000
FFFFFFFFFFFFE00000
FFFFFFFFFFFF000000
FFFFFFFFFFC0000000
ENDCHAR
STARTCHAR 0054
ENCODING 84
SWIDTH 540 0
DWIDTH 75 0
BBX 68 95 0 0
BITMAP
FFFFFFFFFFFFFFFFF0
FFFFFFFFFFFFFFFFF0
FFFFFFFFFFFFFFFFF0
FFFFFFFFFFFFFFFFF0
FFFFFFFFFFFFFFFFF0
FFFFFFFFFFFFFFFFF0
FFFFFFFFFFFFFFFFF0
FFFFFFFFFFFFFFFFF0
FFFFFFFFFFFFFFFFF0
FFFFFFFFFFFFFFFFF0
FFFFFFFFFFFFFFFFF0
FFFFFFFFFFFFFFFFF0
FFFFFFFFFFFFFFFFF0
FFFFFFFFFFFFFFFFF0
FFFC0000000003FFF0
FFFC0000000003FFF0
FFFC0000000003FFF0
FFFC0000000003FFF0
FFFC0000000003FFF0
FFFC0000000003FFF0
FFFC001FFF8003FFF0
FFFC001FFF8003FFF0
FFFC001FFF8003FFF0
FFFC001FFF8003FFF0
FFFC001FFF8003FFF0
FFFC001FFF8003FFF0
FFFC001FFF8003FFF0
0000001FFF80000000
0000001FFF80000000
0000001FFF80000000
0000001FFF80000000
0000001FFF80000000
0000001FFF80000000
0000001FFF80000000
0000001FFF80000000
0000001FFF80000000
0000001FFF80000000
0000001FFF80000000
0000001FFF80000000
0000001FFF80000000
0000001FFF80000000
0000001FFF80000000
0000001FFF80000000
0000001FFF80000000
0000001FFF80000000
0000001FFF80000000
0000001FFF80000000
0000001FFF80000000
0000001FFF80000000
0000001FFF80000000
0000001FFF80000000
0000001FFF80000000
0000001FFF80000000
0000001FFF80000000
0000001FFF80000000
0000001FFF80000000
0000001FFF80000000
0000001FFF80000000
0000001FFF80000000
0000001FFF80000000
0000001FFF80000000
0000001FFF80000000
0000001FFF80000000
0000001FFF80000000
0000001FFF80000000
0000001FFF80000000
0000001FFF80000000
0000001FFF80000000
0000001FFF80000000
0000001FFF80000000
0000001FFF80000000
0000001FFF80000000
0000001FFF80000000
0000001FFF80000000
0000001FFF80000000
0000001FFF80000000
0000001FFF80000000
0000001FFF80000000
0000001FFF80000000
0000001FFF80000000
0000001FFF80000000
0000001FFF80000000
0000001FFF80000000
0000001FFF80000000
0000001FFF80000000
0000001FFF80000000
0000001FFF80000000
0000001FFF80000000
0000001FFF80000000
0000001FFF80000000
0000001FFF80000000
0000001FFF80000000
0000001FFF80000000
0000001FFF80000000
0000001FFF80000000
ENDCHAR
STARTCHAR 0055
ENCODING 85
SWIDTH 540 0
DWIDTH 75 0
BBX 68 95 0 0
BITMAP
FFFC0000007FFFFFF0
FFFC0000007FFFFFF0
FFFC0000007FFFFFF0
FFFC0000007FFFFFF0
FFFC0000007FFFFFF0
FFFC0000007FFFFFF0
FFFC0000007FFFFFF0
FFFC0000007FFFFFF0
FFFC0000007FFFFFF0
FFFC0000007FFFFFF0
FFFC0000007FFFFFF0
FFFC0000007FFFFFF0
FFFC0000007FFFFFF0
FFFC0000007FFFFFF0
FFFC0000000003FFF0
FFFC0000000003FFF0
FFFC0000000003FFF0
FFFC0000000003FFF0
FFFC0000000003FFF0
FFFC0000000003FFF0
FFFC0000000003FFF0
FFFC0000000003FFF0
FFFC0000000003FFF0
FFFC0000000003FFF0
FFFC0000000003FFF0
FFFC0000000003FFF0
FFFC0000000003FFF0
FFFC0000000003FFF0
FFFC0000000003FFF0
FFFC0000000003FFF0
FFFC0000000003FFF0
FFFC0000000003FFF0
FFFC0000000003FFF0
FFFC0000000003FFF0
FFFC0000000003FFF0
FFFC0000000003FFF0
FFFC0000000003FFF0
FFFC0000000003FFF0
FFFC0000000003FFF0
FFFC0000000003FFF0
FFFC0000000003FFF0
FFFC0000000003FFF0
FFFC0000000003FFF0
FFFC0000000003FFF0
FFFC0000000003FFF0
FFFC0000000003FFF0
FFFC0000000003FFF0
FFFC0000000003FFF0
FFFC0000000003FFF0
FFFC0000000003FFF0
FFFC0000000003FFF0
FFFC0000000003FFF0
FFFC0000000003FFF0
FFFC0000000003FFF0
FFFC0000000003FFF0
FFFC0000000003FFF0
FFFC0000000003FFF0
FFFC0000000003FFE0
FFFC0000000003FFE0
7FFC0000000007FFE0
7FFC0000000007FFE0
7FFE0000000007FFE0
7FFE0000000007FFE0
7FFE0000000007FFE0
7FFE0000000007FFE0
7FFF000000000FFFC0
3FFF000000000FFFC0
3FFF000000000FFFC0
3FFF800000001FFFC0
3FFF800000001FFF80
1FFF800000003FFF80
1FFFC00000003FFF80
1FFFC00000007FFF80
0FFFE00000007FFF00
0FFFF0000000FFFF00
0FFFF0000001FFFE00
07FFF8000003FFFE00
07FFFC000007FFFE00
03FFFF00000FFFFC00
03FFFF80003FFFFC00
01FFFFF000FFFFF800
01FFFFFFFFFFFFF000
00FFFFFFFFFFFFF000
007FFFFFFFFFFFE000
007FFFFFFFFFFFC000
003FFFFFFFFFFF8000
001FFFFFFFFFFF8000
000FFFFFFFFFFF0000
0007FFFFFFFFFC0000
0001FFFFFFFFF80000
0000FFFFFFFFF00000
00003FFFFFFFC00000
00000FFFFFFF000000
000001FFFFF8000000
0000001FFF00000000
ENDCHAR
STARTCHAR 0056
ENCODING 86
SWIDTH 540 0
DWIDTH 75 0
BBX 68 95 0 0
BITMAP
FFFFFFE0000003FFF0
FFFFFFE0000003FFF0
FFFFFFE0000003FFF0
FFFFFFE0000003FFF0
FFFFFFE0000003FFF0
FFFFFFE0000003FFF0
FFFFFFE0000003FFF0
FFFFFFE0000003FFF0
FFFFFFE0000003FFF0
FFFFFFE0000003FFF0
FFFFFFE0000003FFF0
FFFFFFE0000003FFF0
FFFFFFE0000003FFF0
FFFFFFE0000003FFF0
FFFC0000000003FFF0
FFFC0000000003FFF0
FFFC0000000003FFE0
FFFC0000000003FFE0
FFFC0000000003FFE0
7FFC0000000003FFE0
7FFC0000000003FFE0
7FFC0000000003FFE0
7FFC0000000003FFE0
7FFC0000000007FFE0
7FFC0000000007FFE0
7FFE0000000007FFE0
7FFE0000000007FFE0
7FFE0000000007FFE0
7FFE0000000007FFE0
7FFE0000000007FFE0
7FFE0000000007FFC0
3FFE0000000007FFC0
3FFE0000000007FFC0
3FFE000000000FFFC0
3FFE000000000FFFC0
3FFF000000000FFFC0
3FFF000000000FFFC0
3FFF000000000FFFC0
3FFF000000000FFF80
1FFF000000000FFF80
1FFF000000001FFF80
1FFF800000001FFF80
1FFF800000001FFF80
1FFF800000001FFF80
1FFF800000001FFF80
1FFF800000001FFF00
0FFF800000003FFF00
0FFFC00000003FFF00
0FFFC00000003FFF00
0FFFC00000003FFF00
07FFC00000007FFE00
07FFE00000007FFE00
07FFE00000007FFE00
07FFE00000007FFE00
07FFF0000000FFFC00
03FFF0000000FFFC00
03FFF0000000FFFC00
03FFF0000001FFFC00
01FFF8000001FFF800
01FFF8000001FFF800
01FFFC000003FFF800
01FFFC000003FFF000
00FFFC000007FFF000
00FFFE000007FFF000
00FFFE000007FFE000
007FFF00000FFFE000
007FFF00000FFFE000
003FFF80001FFFC000
003FFF80003FFFC000
003FFFC0003FFF8000
001FFFE0007FFF8000
001FFFE000FFFF8000
000FFFF000FFFF0000
000FFFF801FFFF0000
0007FFFC03FFFE0000
0007FFFE07FFFC0000
0003FFFF0FFFFC0000
0003FFFF9FFFF80000
0001FFFFFFFFF80000
0000FFFFFFFFF00000
0000FFFFFFFFE00000
00007FFFFFFFE00000
00003FFFFFFFC00000
00001FFFFFFF800000
00001FFFFFFF000000
00000FFFFFFE000000
000007FFFFFC000000
000003FFFFF8000000
000001FFFFF0000000
0000007FFFE0000000
0000003FFFC0000000
0000001FFF80000000
00000007FE00000000
00000001F800000000
000000006000000000
ENDCHAR
STARTCHAR 0057
ENCODING 87
SWIDTH 734 0
DWIDTH 102 0
BBX 95 95 0 0
BITMAP
FFFC0000007FFC0000007FFE
FFFC0000007FFC0000007FFE
FFFC0000007FFC0000007FFE
FFFC0000007FFC0000007FFE
FFFC0000007FFC0000007FFE
FFFC0000007FFC0000007FFE
FFFC0000007FFC0000007FFE
FFFC0000007FFC0000007FFE
FFFC0000007FFC0000007FFE
FFFC0000007FFC0000007FFE
FFFC0000007FFC0000007FFE
FFFC0000007FFC0000007FFE
FFFC0000007FFC0000007FFE
FFFC0000007FFC0000007FFE
FFFC000000FFFC0000007FFE
FFFC000000FFFE0000007FFE
FFFC000000FFFE0000007FFE
FFFC000000FFFE0000007FFE
FFFC000000FFFE0000007FFE
FFFC000000FFFE0000007FFE
FFFC000000FFFE0000007FFE
7FFC000000FFFE0000007FFC
7FFC000000FFFE0000007FFC
7FFC000000FFFE0000007FFC
7FFC000000FFFE0000007FFC
7FFC000000FFFE0000007FFC
7FFC000000FFFE0000007FFC
7FFC000000FFFE0000007FFC
7FFC000000FFFE0000007FFC
7FFC000000FFFE0000007FFC
7FFE000000FFFE000000FFFC
7FFE000000FFFE000000FFFC
7FFE000000FFFE000000FFFC
7FFE000001FFFE000000FFFC
7FFE000001FFFF000000FFFC
3FFE000001FFFF000000FFF8
3FFE000001FFFF000000FFF8
3FFE000001FFFF000000FFF8
3FFE000001FFFF000000FFF8
3FFE000001FFFF000000FFF8
3FFE000001FFFF000000FFF8
3FFF000001FFFF000001FFF8
3FFF000001FFFF000001FFF8
1FFF000003FFFF000001FFF0
1FFF000003FFFF800001FFF0
1FFF000003FFFF800001FFF0
1FFF000003FFFF800001FFF0
1FFF000003FFFF800001FFF0
1FFF000003FFFF800001FFF0
1FFF800003FFFF800003FFF0
0FFF800007FFFFC00003FFE0
0FFF800007FFFFC00003FFE0
0FFF800007FFFFC00003FFE0
0FFF800007FFFFC00003FFE0
0FFFC00007FFFFC00007FFE0
07FFC00007FFFFC00007FFC0
07FFC0000FFFFFE00007FFC0
07FFC0000FFFFFE00007FFC0
07FFC0000FFFFFE00007FFC0
07FFE0000FFFFFE0000FFFC0
03FFE0001FFFFFF0000FFF80
03FFE0001FFFFFF0000FFF80
03FFE0001FFFFFF0000FFF80
03FFF0001FFFFFF0001FFF00
01FFF0003FFFFFF8001FFF00
01FFF0003FFEFFF8001FFF00
01FFF8003FFEFFF8003FFF00
00FFF8007FFEFFFC003FFE00
00FFF8007FFC7FFC003FFE00
00FFFC00FFFC7FFE007FFE00
007FFC00FFFC7FFE007FFC00
007FFE01FFF83FFF00FFFC00
007FFE01FFF83FFF00FFFC00
003FFF03FFF01FFF81FFF800
003FFF03FFF01FFF81FFF800
001FFF87FFF01FFFC3FFF000
001FFFCFFFE00FFFE7FFF000
000FFFEFFFE00FFFEFFFE000
000FFFFFFFC007FFFFFFE000
0007FFFFFFC007FFFFFFC000
0007FFFFFF8003FFFFFFC000
0003FFFFFF8003FFFFFF8000
0003FFFFFF0001FFFFFF8000
0001FFFFFE0000FFFFFF0000
0000FFFFFE0000FFFFFE0000
0000FFFFFC00007FFFFE0000
00007FFFF800003FFFFC0000
00003FFFF000001FFFF80000
00001FFFF000001FFFF00000
00000FFFE000000FFFE00000
000007FFC0000007FFC00000
000003FF00000001FF800000
000001FE00000000FF000000
000000FC000000007C000000
000000300000000018000000
ENDCHAR
STARTCHAR 0058
ENCODING 88
SWIDTH 540 0
DWIDTH 75 0
BBX 68 95 0 0
BITMAP
FFFF800000001FFFF0
FFFF800000001FFFF0
FFFFC00000003FFFF0
FFFFC00000003FFFF0
FFFFE00000007FFFF0
FFFFE00000007FFFF0
FFFFF0000000FFFFF0
FFFFF0000000FFFFF0
FFFFF8000001FFFFF0
FFFFF8000001FFFFF0
FFFFFC000003FFFFF0
FFFFFE000003FFFFF0
FFFFFE000007FFFFF0
FFFFFF000007FFFFF0
00FFFF00000FFFF000
00FFFF80001FFFF000
007FFF80001FFFE000
003FFFC0003FFFC000
003FFFC0003FFFC000
001FFFE0007FFF8000
001FFFE0007FFF8000
000FFFF000FFFF0000
000FFFF000FFFF0000
0007FFF801FFFE0000
0007FFFC01FFFE0000
0003FFFC03FFFC0000
0003FFFE01FFFC0000
0001FFFE01FFF80000
0000FFFF00FFF80000
0000FFFF007FF00000
00007FFF807FF00000
00007FFF803FE00000
00003FFFC03FE00000
00003FFFC01FC00000
00001FFFE01F800000
00001FFFF00F800000
00000FFFF00F000000
00000FFFF807000000
000007FFF806000000
000007FFFC02000000
000003FFFC00000000
000001FFFE00000000
000001FFFE00000000
000000FFFF00000000
000000FFFF00000000
0000007FFF80000000
0000007FFFC0000000
0000003FFFC0000000
0000003FFFE0000000
0000001FFFE0000000
0000001FFFF0000000
0000000FFFF0000000
00000007FFF8000000
00000007FFF8000000
00000003FFFC000000
00000003FFFC000000
00000401FFFE000000
00000401FFFE000000
00000E00FFFF000000
00001E00FFFF800000
00001F007FFF800000
00003F807FFFC00000
00003F803FFFC00000
00007FC03FFFE00000
00007FC01FFFE00000
0000FFE00FFFF00000
0000FFE00FFFF00000
0001FFF007FFF80000
0003FFF007FFF80000
0003FFF803FFFC0000
0007FFFC03FFFE0000
0007FFF801FFFE0000
000FFFF801FFFF0000
000FFFF000FFFF0000
001FFFE000FFFF8000
001FFFE0007FFF8000
003FFFC0003FFFC000
007FFFC0003FFFC000
007FFF80001FFFE000
00FFFF80001FFFE000
00FFFF00000FFFF000
FFFFFF00000FFFFFF0
FFFFFE000007FFFFF0
FFFFFE000007FFFFF0
FFFFFC000003FFFFF0
FFFFF8000003FFFFF0
FFFFF8000001FFFFF0
FFFFF0000000FFFFF0
FFFFF0000000FFFFF0
FFFFE00000007FFFF0
FFFFE00000007FFFF0
FFFFC00000003FFFF0
FFFFC00000003FFFF0
FFFF800000001FFFF0
FFFF800000001FFFF0
ENDCHAR
STARTCHAR 0059
ENCODING 89
SWIDTH 540 0
DWIDTH 75 0
BBX 68 95 0 0
BITMAP
FFFF800000001FFFF0
FFFF800000001FFFF0
FFFFC00000003FFFF0
FFFFC00000003FFFF0
FFFFE00000007FFFF0
FFFFE00000007FFFF0
FFFFF0000000FFFFF0
FFFFF0000000FFFFF0
FFFFF8000001FFFFF0
FFFFF8000001FFFFF0
FFFFFC000003FFFFF0
FFFFFC000003FFFFF0
FFFFFE000007FFFFF0
FFFFFE000007FFFFF0
00FFFF00000FFFF000
00FFFF80000FFFF000
007FFF80001FFFE000
007FFFC0003FFFC000
003FFFC0003FFFC000
001FFFE0007FFF8000
001FFFE0007FFF8000
000FFFF000FFFF0000
000FFFF000FFFF0000
0007FFF801FFFE0000
0007FFF801FFFE0000
0003FFFC03FFFC0000
0003FFFC01FFFC0000
0001FFFE01FFF80000
0001FFFF00FFF80000
0000FFFF00FFF00000
0000FFFF807FF00000
00007FFF803FE00000
00007FFFC03FE00000
00003FFFC01FC00000
00001FFFE01FC00000
00001FFFE00F800000
00000FFFF00F000000
00000FFFF007000000
000007FFF806000000
000007FFF802000000
000003FFFC00000000
000003FFFC00000000
000001FFFE00000000
000001FFFF00000000
000000FFFF00000000
000000FFFF80000000
0000007FFF80000000
0000007FFF80000000
0000003FFF80000000
0000001FFF80000000
0000001FFF80000000
0000001FFF80000000
0000001FFF80000000
0000001FFF80000000
0000001FFF80000000
0000001FFF80000000
0000001FFF80000000
0000001FFF80000000
0000001FFF80000000
0000001FFF80000000
0000001FFF80000000
0000001FFF80000000
0000001FFF80000000
0000001FFF80000000
0000001FFF80000000
0000001FFF80000000
0000001FFF80000000
0000001FFF80000000
0000001FFF80000000
0000001FFF80000000
0000001FFF80000000
0000001FFF80000000
0000001FFF80000000
0000001FFF80000000
0000001FFF80000000
0000001FFF80000000
0000001FFF80000000
0000001FFF80000000
0000001FFF80000000
0000001FFF80000000
0000001FFF80000000
0000001FFF80000000
0000001FFF80000000
0000001FFF80000000
0000001FFF80000000
0000001FFF80000000
0000001FFF80000000
0000001FFF80000000
0000001FFF80000000
0000001FFF80000000
0000001FFF80000000
0000001FFF80000000
0000001FFF80000000
0000001FFF80000000
0000001FFF80000000
ENDCHAR
STARTCHAR 005A
ENCODING 90
SWIDTH 540 0
DWIDTH 75 0
BBX 68 95 0 0
BITMAP
FFFFFFFFFFFFFFFFF0
FFFFFFFFFFFFFFFFE0
FFFFFFFFFFFFFFFFE0
FFFFFFFFFFFFFFFFC0
FFFFFFFFFFFFFFFF80
FFFFFFFFFFFFFFFF80
FFFFFFFFFFFFFFFF00
FFFFFFFFFFFFFFFF00
FFFFFFFFFFFFFFFE00
FFFFFFFFFFFFFFFE00
FFFFFFFFFFFFFFFC00
FFFFFFFFFFFFFFFC00
FFFFFFFFFFFFFFF800
FFFFFFFFFFFFFFF800
00000000000FFFF000
00000000001FFFE000
00000000001FFFE000
00000000003FFFC000
00000000007FFFC000
00000000007FFF8000
0000000000FFFF8000
0000000000FFFF0000
0000000001FFFF0000
0000000001FFFE0000
0000000003FFFE0000
0000000003FFFC0000
0000000007FFFC0000
0000000007FFF80000
000000000FFFF00000
000000000FFFF00000
000000001FFFE00000
000000003FFFE00000
000000003FFFC00000
000000007FFFC00000
000000007FFF800000
00000000FFFF800000
00000000FFFF000000
00000001FFFF000000
00000001FFFE000000
00000003FFFC000000
00000003FFFC000000
00000007FFF8000000
0000000FFFF8000000
0000000FFFF0000000
0000001FFFF0000000
0000001FFFE0000000
0000003FFFE0000000
0000003FFFC0000000
0000007FFFC0000000
0000007FFF80000000
000000FFFF00000000
000000FFFF00000000
000001FFFE00000000
000003FFFE00000000
000003FFFC00000000
000007FFFC00000000
000007FFF800000000
00000FFFF800000000
00000FFFF000000000
00001FFFF000000000
00001FFFE000000000
00003FFFE000000000
00003FFFC000000000
00007FFF8000000000
00007FFF8000000000
0000FFFF0000000000
0001FFFF0000000000
0001FFFE0000000000
0003FFFE0000000000
0003FFFC0000000000
0007FFFC0000000000
0007FFF80000000000
000FFFF80000000000
000FFFF00000000000
001FFFE00000000000
001FFFE00000000000
003FFFC00000000000
007FFFC00000000000
007FFF800000000000
00FFFF800000000000
00FFFF000000000000
01FFFF00FFFFFFFFF0
01FFFE00FFFFFFFFF0
03FFFE01FFFFFFFFF0
03FFFC01FFFFFFFFF0
07FFF803FFFFFFFFF0
07FFF803FFFFFFFFF0
0FFFF007FFFFFFFFF0
0FFFF00FFFFFFFFFF0
1FFFE00FFFFFFFFFF0
3FFFE01FFFFFFFFFF0
3FFFC01FFFFFFFFFF0
7FFFC03FFFFFFFFFF0
7FFF803FFFFFFFFFF0
FFFF807FFFFFFFFFF0
ENDCHAR
STARTCHAR 005B
ENCODING 91
SWIDTH 244 0
DWIDTH 34 0
BBX 27 109 0 -7
BITMAP
FFFFFFE0
FFFFFFE0
FFFFFFE0
FFFFFFE0
FFFFFFE0
FFFFFFE0
FFFFFFE0
FFFFFFE0
FFFFFFE0
FFFFFFE0
FFFFFFE0
FFFFFFE0
FFFFFFE0
FFFFFFE0
FFFC0000
FFFC0000
FFFC0000
FFFC0000
FFFC0000
FFFC0000
FFFC0000
FFFC0000
FFFC0000
FFFC0000
FFFC0000
FFFC0000
FFFC0000
FFFC0000
FFFC0000
FFFC0000
FFFC0000
FFFC0000
FFFC0000
FFFC0000
FFFC0000
FFFC0000
FFFC0000
FFFC0000
FFFC0000
FFFC0000
FFFC0000
FFFC0000
FFFC0000
FFFC0000
FFFC0000
FFFC0000
FFFC0000
FFFC0000
FFFC0000
FFFC0000
FFFC0000
FFFC0000
FFFC0000
FFFC0000
FFFC0000
FFFC0000
FFFC0000
FFFC0000
FFFC0000
FFFC0000
FFFC0000
FFFC0000
FFFC0000
FFFC0000
FFFC0000
FFFC0000
FFFC0000
FFFC0000
FFFC0000
FFFC0000
FFFC0000
FFFC0000
FFFC0000
FFFC0000
FFFC0000
FFFC0000
FFFC0000
FFFC0000
FFFC0000
FFFC0000
FFFC0000
FFFC0000
FFFC0000
FFFC0000
FFFC0000
FFFC0000
FFFC0000
FFFC0000
FFFC0000
FFFC0000
FFFC0000
FFFC0000
FFFC0000
FFFC0000
FFFC0000
FFFFFFE0
FFFFFFE0
FFFFFFE0
FFFFFFE0
FFFFFFE0
FFFFFFE0
FFFFFFE0
FFFFFFE0
FFFFFFE0
FFFFFFE0
FFFFFFE0
FFFFFFE0
FFFFFFE0
FFFFFFE0
ENDCHAR
STARTCHAR 005C
ENCODING 92
SWIDTH 540 0
DWIDTH 75 0
BBX 68 95 0 0
BITMAP
FFFF80000000000000
7FFF80000000000000
7FFFC0000000000000
3FFFC0000000000000
3FFFE0000000000000
1FFFE0000000000000
0FFFF0000000000000
0FFFF0000000000000
07FFF8000000000000
07FFF8000000000000
03FFFC000000000000
03FFFE000000000000
01FFFE000000000000
01FFFF000000000000
00FFFF000000000000
00FFFF800000000000
007FFF800000000000
003FFFC00000000000
003FFFC00000000000
001FFFE00000000000
001FFFE00000000000
000FFFF00000000000
000FFFF80000000000
0007FFF80000000000
0007FFFC0000000000
0003FFFC0000000000
0003FFFE0000000000
0001FFFE0000000000
0001FFFF0000000000
0000FFFF0000000000
00007FFF8000000000
00007FFF8000000000
00003FFFC000000000
00003FFFC000000000
00001FFFE000000000
00001FFFF000000000
00000FFFF000000000
00000FFFF800000000
000007FFF800000000
000007FFFC00000000
000003FFFC00000000
000001FFFE00000000
000001FFFE00000000
000000FFFF00000000
000000FFFF00000000
0000007FFF80000000
0000007FFFC0000000
0000003FFFC0000000
0000003FFFE0000000
0000001FFFE0000000
0000001FFFF0000000
0000000FFFF0000000
00000007FFF8000000
00000007FFF8000000
00000003FFFC000000
00000003FFFC000000
00000001FFFE000000
00000001FFFF000000
00000000FFFF000000
00000000FFFF800000
000000007FFF800000
000000007FFFC00000
000000003FFFC00000
000000003FFFE00000
000000001FFFE00000
000000000FFFF00000
000000000FFFF00000
0000000007FFF80000
0000000007FFF80000
0000000003FFFC0000
0000000003FFFE0000
0000000001FFFE0000
0000000001FFFF0000
0000000000FFFF0000
0000000000FFFF8000
00000000007FFF8000
00000000003FFFC000
00000000003FFFC000
00000000001FFFE000
00000000001FFFE000
00000000000FFFF000
00000000000FFFF800
000000000007FFF800
000000000007FFFC00
000000000003FFFC00
000000000003FFFE00
000000000001FFFE00
000000000000FFFF00
000000000000FFFF00
0000000000007FFF80
0000000000007FFF80
0000000000003FFFC0
0000000000003FFFE0
0000000000001FFFE0
0000000000001FFFF0
ENDCHAR
STARTCHAR 005D
ENCODING 93
SWIDTH 244 0
DWIDTH 34 0
BBX 27 109 0 -7
BITMAP
FFFFFFE0
FFFFFFE0
FFFFFFE0
FFFFFFE0
FFFFFFE0
FFFFFFE0
FFFFFFE0
FFFFFFE0
FFFFFFE0
FFFFFFE0
FFFFFFE0
FFFFFFE0
FFFFFFE0
FFFFFFE0
0003FFE0
0003FFE0
0003FFE0
0003FFE0
0003FFE0
0003FFE0
0003FFE0
0003FFE0
0003FFE0
0003FFE0
0003FFE0
0003FFE0
0003FFE0
0003FFE0
0003FFE0
0003FFE0
0003FFE0
0003FFE0
0003FFE0
0003FFE0
0003FFE0
0003FFE0
0003FFE0
0003FFE0
0003FFE0
0003FFE0
0003FFE0
0003FFE0
0003FFE0
0003FFE0
0003FFE0
0003FFE0
0003FFE0
0003FFE0
0003FFE0
0003FFE0
0003FFE0
0003FFE0
0003FFE0
0003FFE0
0003FFE0
0003FFE0
0003FFE0
0003FFE0
0003FFE0
0003FFE0
0003FFE0
0003FFE0
0003FFE0
0003FFE0
0003FFE0
0003FFE0
0003FFE0
0003FFE0
0003FFE0
0003FFE0
0003FFE0
0003FFE0
0003FFE0
0003FFE0
0003FFE0
0003FFE0
0003FFE0
0003FFE0
0003FFE0
0003FFE0
0003FFE0
0003FFE0
0003FFE0
0003FFE0
0003FFE0
0003FFE0
0003FFE0
0003FFE0
0003FFE0
0003FFE0
0003FFE0
0003FFE0
0003FFE0
0003FFE0
0003FFE0
FFFFFFE0
FFFFFFE0
FFFFFFE0
FFFFFFE0
FFFFFFE0
FFFFFFE0
FFFFFFE0
FFFFFFE0
FFFFFFE0
FFFFFFE0
FFFFFFE0
FFFFFFE0
FFFFFFE0
FFFFFFE0
ENDCHAR
STARTCHAR 005E
ENCODING 94
SWIDTH 144 0
DWIDTH 20 0
BBX 14 27 0 68
BITMAP
FFFC
FFFC
FFFC
FFFC
FFFC
FFFC
FFFC
FFFC
FFFC
FFFC
FFFC
FFFC
FFFC
FFFC
FFFC
FFFC
FFFC
FFFC
FFFC
FFFC
FFFC
FFFC
FFFC
FFFC
FFFC
FFFC
FFFC
ENDCHAR
STARTCHAR 005F
ENCODING 95
SWIDTH 489 0
DWIDTH 68 0
BBX 61 14 0 0
BITMAP
FFFFFFFFFFFFFFF8
FFFFFFFFFFFFFFF8
FFFFFFFFFFFFFFF8
FFFFFFFFFFFFFFF8
FFFFFFFFFFFFFFF8
FFFFFFFFFFFFFFF8
FFFFFFFFFFFFFFF8
FFFFFFFFFFFFFFF8
FFFFFFFFFFFFFFF8
FFFFFFFFFFFFFFF8
FFFFFFFFFFFFFFF8
FFFFFFFFFFFFFFF8
FFFFFFFFFFFFFFF8
FFFFFFFFFFFFFFF8
ENDCHAR
STARTCHAR 0060
ENCODING 96
SWIDTH 144 0
DWIDTH 20 0
BBX 14 27 0 68
BITMAP
FFFC
FFFC
FFFC
FFFC
FFFC
FFFC
FFFC
FFFC
FFFC
FFFC
FFFC
FFFC
FFFC
FFFC
FFFC
FFFC
FFFC
FFFC
FFFC
FFFC
FFFC
FFFC
FFFC
FFFC
FFFC
FFFC
FFFC
ENDCHAR
STARTCHAR 0061
ENCODING 97
SWIDTH 540 0
DWIDTH 75 0
BBX 68 95 0 0
BITMAP
000000006000000000
00000001F800000000
00000007FE00000000
0000000FFF00000000
0000003FFFC0000000
0000007FFFE0000000
000000FFFFF0000000
000003FFFFF8000000
000007FFFFFC000000
000007FFFFFE000000
00000FFFFFFF000000
00001FFFFFFF800000
00003FFFFFFFC00000
00007FFFFFFFE00000
00007FFFFFFFE00000
0000FFFFFFFFF00000
0001FFFFFFFFF80000
0001FFFFBFFFF80000
0003FFFF0FFFFC0000
0007FFFE07FFFC0000
0007FFFC03FFFE0000
000FFFF801FFFE0000
000FFFF000FFFF0000
001FFFE000FFFF0000
001FFFE0007FFF8000
003FFFC0003FFF8000
003FFF80003FFFC000
003FFF80001FFFC000
007FFF00001FFFE000
007FFF00000FFFE000
007FFE00000FFFE000
00FFFE000007FFF000
00FFFC000007FFF000
00FFFC000003FFF000
01FFFC000003FFF800
01FFF8000001FFF800
01FFF8000001FFF800
03FFF8000001FFFC00
03FFF0000000FFFC00
03FFF0000000FFFC00
07FFF0000000FFFC00
07FFE00000007FFE00
07FFE00000007FFE00
07FFE00000007FFE00
07FFC00000007FFE00
0FFFC00000003FFF00
0FFFC00000003FFF00
0FFFC00000003FFF00
0FFFC00000003FFF00
0FFF800000001FFF00
1FFF800000001FFF00
1FFF800000001FFF80
1FFF800000001FFF80
1FFF800000001FFF80
1FFF000000001FFF80
1FFF000000000FFF80
3FFF000000000FFF80
3FFF000000000FFFC0
3FFF000000000FFFC0
3FFF000000000FFFC0
3FFE000000000FFFC0
3FFE000000000FFFC0
3FFE0000000007FFC0
7FFE0000000007FFC0
7FFE0000000007FFC0
7FFE0000000007FFE0
7FFE0000000007FFE0
7FFE0000000007FFE0
7FFE0FFFFFFFFFFFE0
7FFE0FFFFFFFFFFFE0
7FFC0FFFFFFFFFFFE0
7FFC0FFFFFFFFFFFE0
7FFC0FFFFFFFFFFFE0
7FFC0FFFFFFFFFFFE0
7FFC0FFFFFFFFFFFE0
7FFC0FFFFFFFFFFFE0
FFFC0FFFFFFFFFFFE0
FFFC0FFFFFFFFFFFE0
FFFC0FFFFFFFFFFFE0
FFFC0FFFFFFFFFFFF0
FFFC0FFFFFFFFFFFF0
FFFC0FFFFFFFFFFFF0
FFFC0000000003FFF0
FFFC0000000003FFF0
FFFC0000000003FFF0
FFFC0000000003FFF0
FFFC0000000003FFF0
FFFC0000000003FFF0
FFFC0000000003FFF0
FFFC0000000003FFF0
FFFC0000000003FFF0
FFFC0000000003FFF0
FFFC0000000003FFF0
FFFC0000000003FFF0
FFFC0000000003FFF0
ENDCHAR
STARTCHAR 0062
ENCODING 98
SWIDTH 540 0
DWIDTH 75 0
BBX 68 95 0 0
BITMAP
FFFFFFFFFFE0000000
FFFFFFFFFFFF000000
FFFFFFFFFFFFF00000
FFFFFFFFFFFFFC0000
FFFFFFFFFFFFFF0000
FFFFFFFFFFFFFFC000
FFFFFFFFFFFFFFE000
FFFFFFFFFFFFFFF000
FFFFFFFFFFFFFFF800
FFFFFFFFFFFFFFFC00
FFFFFFFFFFFFFFFE00
FFFFFFFFFFFFFFFF00
FFFFFFFFFFFFFFFF00
FFFFFFFFFFFFFFFF80
FFFC0000001FFFFF80
FFFC00000003FFFFC0
FFFC00000000FFFFC0
FFFC000000003FFFE0
FFFC000000001FFFE0
FFFC000000000FFFE0
FFFC0000000007FFE0
FFFC0000000007FFE0
FFFC0000000003FFF0
FFFC0000000003FFF0
FFFC0000000003FFF0
FFFC0000000003FFF0
FFFC0000000003FFF0
FFFC0000000003FFF0
FFFC0000000003FFF0
FFFC0000000003FFF0
FFFC0000000003FFF0
FFFC0000000003FFF0
FFFC0000000007FFE0
FFFC0000000007FFE0
FFFC000000000FFFE0
FFFC000000001FFFE0
FFFC000000003FFFE0
FFFC00000000FFFFC0
FFFC00000003FFFFC0
FFFC0000001FFFFF80
FFFC0FFFFFFFFFFF80
FFFC0FFFFFFFFFFF00
FFFC0FFFFFFFFFFF00
FFFC0FFFFFFFFFFE00
FFFC0FFFFFFFFFFC00
FFFC0FFFFFFFFFF800
FFFC0FFFFFFFFFF000
FFFC0FFFFFFFFFF000
FFFC0FFFFFFFFFF800
FFFC0FFFFFFFFFFC00
FFFC0FFFFFFFFFFE00
FFFC0FFFFFFFFFFE00
FFFC0FFFFFFFFFFF00
FFFC0FFFFFFFFFFF80
FFFC0000007FFFFF80
FFFC00000007FFFFC0
FFFC00000000FFFFC0
FFFC000000007FFFC0
FFFC000000001FFFE0
FFFC000000000FFFE0
FFFC000000000FFFE0
FFFC0000000007FFE0
FFFC0000000007FFF0
FFFC0000000003FFF0
FFFC0000000003FFF0
FFFC0000000003FFF0
FFFC0000000003FFF0
FFFC0000000003FFF0
FFFC0000000003FFF0
FFFC0000000003FFF0
FFFC0000000003FFF0
FFFC0000000003FFF0
FFFC0000000003FFF0
FFFC0000000007FFE0
FFFC0000000007FFE0
FFFC000000000FFFE0
FFFC000000001FFFE0
FFFC000000003FFFE0
FFFC00000000FFFFC0
FFFC00000003FFFFC0
FFFC0000001FFFFF80
FFFC0FFFFFFFFFFF80
FFFC0FFFFFFFFFFF00
FFFC0FFFFFFFFFFF00
FFFC0FFFFFFFFFFE00
FFFC0FFFFFFFFFFC00
FFFC0FFFFFFFFFF800
FFFC0FFFFFFFFFF000
FFFC0FFFFFFFFFE000
FFFC0FFFFFFFFFC000
FFFC0FFFFFFFFF0000
FFFC0FFFFFFFFC0000
FFFC0FFFFFFFE00000
FFFC0FFFFFFF000000
FFFC0FFFFFC0000000
ENDCHAR
STARTCHAR 0063
ENCODING 99
SWIDTH 540 0
DWIDTH 75 0
BBX 68 95 0 0
BITMAP
0000000003FFFFFFF0
00000000FFFFFFFFF0
0000000FFFFFFFFFF0
0000007FFFFFFFFFF0
000001FFFFFFFFFFF0
000007FFFFFFFFFFF0
00001FFFFFFFFFFFF0
00007FFFFFFFFFFFF0
0000FFFFFFFFFFFFF0
0001FFFFFFFFFFFFF0
0007FFFFFFFFFFFFF0
000FFFFFFFFFFFFFF0
001FFFFFFFFFFFFFF0
003FFFFFFFFFFFFFF0
007FFFFFF80003FFF0
007FFFFF800003FFF0
00FFFFFC000003FFF0
01FFFFF0000003FFF0
01FFFFE0000003FFF0
03FFFF80000003FFF0
03FFFF00000003FFF0
07FFFE00000003FFF0
07FFFC00000003FFF0
0FFFF800000003FFF0
0FFFF000000003FFF0
1FFFE000000003FFF0
1FFFE000000003FFF0
1FFFC0000000000000
3FFF80000000000000
3FFF80000000000000
3FFF00000000000000
3FFF00000000000000
7FFF00000000000000
7FFE00000000000000
7FFE00000000000000
7FFE00000000000000
7FFE00000000000000
7FFC00000000000000
FFFC00000000000000
FFFC00000000000000
FFFC00000000000000
FFFC00000000000000
FFFC00000000000000
FFFC00000000000000
FFFC00000000000000
FFFC00000000000000
FFFC00000000000000
FFFC00000000000000
FFFC00000000000000
FFFC00000000000000
FFFC00000000000000
FFFC00000000000000
FFFC00000000000000
FFFC00000000000000
FFFC00000000000000
FFFC00000000000000
FFFC00000000000000
7FFC00000000000000
7FFE00000000000000
7FFE00000000000000
7FFE00000000000000
7FFE00000000000000
7FFF00000000000000
3FFF00000000000000
3FFF80000000000000
3FFF80000000000000
3FFF80000000000000
1FFFC0000000000000
1FFFE000000003FFF0
1FFFE000000003FFF0
0FFFF000000003FFF0
0FFFF800000003FFF0
07FFFC00000003FFF0
07FFFE00000003FFF0
03FFFF00000003FFF0
03FFFF80000003FFF0
01FFFFE0000003FFF0
01FFFFF0000003FFF0
00FFFFFE000003FFF0
007FFFFF800003FFF0
007FFFFFF80003FFF0
003FFFFFFFFFFFFFF0
001FFFFFFFFFFFFFF0
000FFFFFFFFFFFFFF0
0007FFFFFFFFFFFFF0
0003FFFFFFFFFFFFF0
0000FFFFFFFFFFFFF0
00007FFFFFFFFFFFF0
00001FFFFFFFFFFFF0
000007FFFFFFFFFFF0
000001FFFFFFFFFFF0
0000007FFFFFFFFFF0
0000000FFFFFFFFFF0
00000000FFFFFFFFF0
0000000003FFFFFFF0
ENDCHAR
STARTCHAR 0064
ENCODING 100
SWIDTH 540 0
DWIDTH 75 0
BBX 68 95 0 0
BITMAP
FFFFFFFC0000000000
FFFFFFFFF000000000
FFFFFFFFFF00000000
FFFFFFFFFFE0000000
FFFFFFFFFFF8000000
FFFFFFFFFFFE000000
FFFFFFFFFFFF800000
FFFFFFFFFFFFE00000
FFFFFFFFFFFFF00000
FFFFFFFFFFFFF80000
FFFFFFFFFFFFFE0000
FFFFFFFFFFFFFF0000
FFFFFFFFFFFFFF8000
FFFFFFFFFFFFFFC000
FFFC0001FFFFFFC000
FFFC00001FFFFFE000
FFFC000007FFFFF000
FFFC000001FFFFF800
FFFC0000007FFFF800
FFFC0000001FFFFC00
FFFC0000000FFFFC00
FFFC00000007FFFE00
FFFC00000003FFFE00
FFFC00000001FFFF00
FFFC00000000FFFF00
FFFC000000007FFF00
FFFC000000007FFF80
FFFC000000003FFF80
FFFC000000003FFF80
FFFC000000001FFFC0
FFFC000000001FFFC0
FFFC000000000FFFC0
FFFC000000000FFFC0
FFFC000000000FFFE0
FFFC0000000007FFE0
FFFC0000000007FFE0
FFFC0000000007FFE0
FFFC0000000007FFE0
FFFC0000000003FFE0
FFFC0000000003FFF0
FFFC0000000003FFF0
FFFC0000000003FFF0
FFFC0000000003FFF0
FFFC0000000003FFF0
FFFC0000000003FFF0
FFFC0000000003FFF0
FFFC0000000003FFF0
FFFC0000000003FFF0
FFFC0000000003FFF0
FFFC0000000003FFF0
FFFC0000000003FFF0
FFFC0000000003FFF0
FFFC0000000003FFF0
FFFC0000000003FFF0
FFFC0000000003FFF0
FFFC0000000003FFF0
FFFC0000000003FFE0
FFFC0000000007FFE0
FFFC0000000007FFE0
FFFC0000000007FFE0
FFFC0000000007FFE0
FFFC000000000FFFE0
FFFC000000000FFFC0
FFFC000000000FFFC0
FFFC000000001FFFC0
FFFC000000001FFFC0
FFFC000000003FFF80
FFFC000000003FFF80
FFFC000000007FFF80
FFFC000000007FFF00
FFFC00000000FFFF00
FFFC00000001FFFF00
FFFC00000003FFFE00
FFFC00000007FFFE00
FFFC0000000FFFFC00
00000000001FFFFC00
00000000007FFFF800
0000000001FFFFF800
0000000007FFFFF000
000000001FFFFFE000
00000001FFFFFFC000
FFFFFFFFFFFFFFC000
FFFFFFFFFFFFFF8000
FFFFFFFFFFFFFF0000
FFFFFFFFFFFFFE0000
FFFFFFFFFFFFF80000
FFFFFFFFFFFFF00000
FFFFFFFFFFFFE00000
FFFFFFFFFFFF800000
FFFFFFFFFFFE000000
FFFFFFFFFFF8000000
FFFFFFFFFFE0000000
FFFFFFFFFF00000000
FFFFFFFFF000000000
FFFFFFF80000000000
ENDCHAR
STARTCHAR 0065
ENCODING 101
SWIDTH 489 0
DWIDTH 68 0
BBX 61 95 0 0
BITMAP
FFFFFFFFFFFFFFF8
FFFFFFFFFFFFFFF8
FFFFFFFFFFFFFFF8
FFFFFFFFFFFFFFF8
FFFFFFFFFFFFFFF8
FFFFFFFFFFFFFFF8
FFFFFFFFFFFFFFF8
FFFFFFFFFFFFFFF8
FFFFFFFFFFFFFFF8
FFFFFFFFFFFFFFF8
FFFFFFFFFFFFFFF8
FFFFFFFFFFFFFFF8
FFFFFFFFFFFFFFF8
FFFFFFFFFFFFFFF8
FFFC000000000000
FFFC000000000000
FFFC000000000000
FFFC000000000000
FFFC000000000000
FFFC000000000000
FFFC000000000000
FFFC000000000000
FFFC000000000000
FFFC000000000000
FFFC000000000000
FFFC000000000000
FFFC000000000000
FFFC000000000000
FFFC000000000000
FFFC000000000000
FFFC000000000000
FFFC000000000000
FFFC000000000000
FFFC000000000000
FFFC000000000000
FFFC000000000000
FFFC000000000000
FFFC000000000000
FFFC000000000000
FFFC000000000000
FFFC0FFFFFFFFC00
FFFC0FFFFFFFFC00
FFFC0FFFFFFFFC00
FFFC0FFFFFFFFC00
FFFC0FFFFFFFFC00
FFFC0FFFFFFFFC00
FFFC0FFFFFFFFC00
FFFC0FFFFFFFFC00
FFFC0FFFFFFFFC00
FFFC0FFFFFFFFC00
FFFC0FFFFFFFFC00
FFFC0FFFFFFFFC00
FFFC0FFFFFFFFC00
FFFC0FFFFFFFFC00
FFFC000000000000
FFFC000000000000
FFFC000000000000
FFFC000000000000
FFFC000000000000
FFFC000000000000
FFFC000000000000
FFFC000000000000
FFFC000000000000
FFFC000000000000
FFFC000000000000
FFFC000000000000
FFFC000000000000
FFFC000000000000
FFFC00000000FFF8
FFFC00000000FFF8
FFFC00000000FFF8
FFFC00000000FFF8
FFFC00000000FFF8
FFFC00000000FFF8
FFFC00000000FFF8
FFFC00000000FFF8
FFFC00000000FFF8
FFFC00000000FFF8
FFFC00000000FFF8
FFFC00000000FFF8
FFFC00000000FFF8
FFFFFFFFFFFFFFF8
FFFFFFFFFFFFFFF8
FFFFFFFFFFFFFFF8
FFFFFFFFFFFFFFF8
FFFFFFFFFFFFFFF8
FFFFFFFFFFFFFFF8
FFFFFFFFFFFFFFF8
FFFFFFFFFFFFFFF8
FFFFFFFFFFFFFFF8
FFFFFFFFFFFFFFF8
FFFFFFFFFFFFFFF8
FFFFFFFFFFFFFFF8
FFFFFFFFFFFFFFF8
FFFFFFFFFFFFFFF8
ENDCHAR
STARTCHAR 0066
ENCODING 102
SWIDTH 489 0
DWIDTH 68 0
BBX 61 95 0 0
BITMAP
FFFFFFFFFFFFFFF8
FFFFFFFFFFFFFFF8
FFFFFFFFFFFFFFF8
FFFFFFFFFFFFFFF8
FFFFFFFFFFFFFFF8
FFFFFFFFFFFFFFF8
FFFFFFFFFFFFFFF8
FFFFFFFFFFFFFFF8
FFFFFFFFFFFFFFF8
FFFFFFFFFFFFFFF8
FFFFFFFFFFFFFFF8
FFFFFFFFFFFFFFF8
FFFFFFFFFFFFFFF8
FFFFFFFFFFFFFFF8
FFFC000000000000
FFFC000000000000
FFFC000000000000
FFFC000000000000
FFFC000000000000
FFFC000000000000
FFFC000000000000
FFFC000000000000
FFFC000000000000
FFFC000000000000
FFFC000000000000
FFFC000000000000
FFFC000000000000
FFFC000000000000
FFFC000000000000
FFFC000000000000
FFFC000000000000
FFFC000000000000
FFFC000000000000
FFFC000000000000
FFFC000000000000
FFFC000000000000
FFFC000000000000
FFFC000000000000
FFFC000000000000
FFFC000000000000
FFFC0FFFFFFFFC00
FFFC0FFFFFFFFC00
FFFC0FFFFFFFFC00
FFFC0FFFFFFFFC00
FFFC0FFFFFFFFC00
FFFC0FFFFFFFFC00
FFFC0FFFFFFFFC00
FFFC0FFFFFFFFC00
FFFC0FFFFFFFFC00
FFFC0FFFFFFFFC00
FFFC0FFFFFFFFC00
FFFC0FFFFFFFFC00
FFFC0FFFFFFFFC00
FFFC0FFFFFFFFC00
FFFC000000000000
FFFC000000000000
FFFC000000000000
FFFC000000000000
FFFC000000000000
FFFC000000000000
FFFC000000000000
FFFC000000000000
FFFC000000000000
FFFC000000000000
FFFC000000000000
FFFC000000000000
FFFC000000000000
FFFC000000000000
FFFC000000000000
FFFC000000000000
FFFC000000000000
FFFC000000000000
FFFC000000000000
FFFC000000000000
FFFC000000000000
FFFC000000000000
FFFC000000000000
FFFC000000000000
FFFC000000000000
FFFC000000000000
FFFC000000000000
FFFC000000000000
FFFC000000000000
FFFC000000000000
FFFC000000000000
FFFC000000000000
FFFC000000000000
FFFC000000000000
FFFC000000000000
FFFC000000000000
FFFC000000000000
FFFC000000000000
FFFC000000000000
FFFC000000000000
FFFC000000000000
ENDCHAR
STARTCHAR 0067
ENCODING 103
SWIDTH 540 0
DWIDTH 75 0
BBX 68 95 0 0
BITMAP
0000000003FFFFFFF0
00000000FFFFFFFFF0
0000000FFFFFFFFFF0
0000007FFFFFFFFFF0
000001FFFFFFFFFFF0
000007FFFFFFFFFFF0
00001FFFFFFFFFFFF0
00007FFFFFFFFFFFF0
0000FFFFFFFFFFFFF0
0001FFFFFFFFFFFFF0
0007FFFFFFFFFFFFF0
000FFFFFFFFFFFFFF0
001FFFFFFFFFFFFFF0
003FFFFFFFFFFFFFF0
007FFFFFF80003FFF0
007FFFFF800003FFF0
00FFFFFC000003FFF0
01FFFFF0000003FFF0
01FFFFE0000003FFF0
03FFFF80000003FFF0
03FFFF00000003FFF0
07FFFE00000003FFF0
07FFFC00000003FFF0
0FFFF800000003FFF0
0FFFF000000003FFF0
1FFFE000000003FFF0
1FFFE000000003FFF0
1FFFC0000000000000
3FFF80000000000000
3FFF80000000000000
3FFF00000000000000
3FFF00000000000000
7FFF00000000000000
7FFE00000000000000
7FFE00000000000000
7FFE00000000000000
7FFE00000000000000
7FFC00000000000000
FFFC00000000000000
FFFC00000000000000
FFFC00003FFFFFFFF0
FFFC00003FFFFFFFF0
FFFC00003FFFFFFFF0
FFFC00003FFFFFFFF0
FFFC00003FFFFFFFF0
FFFC00003FFFFFFFF0
FFFC00003FFFFFFFF0
FFFC00003FFFFFFFF0
FFFC00003FFFFFFFF0
FFFC00003FFFFFFFF0
FFFC00003FFFFFFFF0
FFFC00003FFFFFFFF0
FFFC00003FFFFFFFF0
FFFC00003FFFFFFFF0
FFFC0000000003FFF0
FFFC0000000003FFF0
FFFC0000000003FFF0
7FFC0000000003FFF0
7FFE0000000003FFF0
7FFE0000000003FFF0
7FFE0000000003FFF0
7FFE0000000003FFF0
7FFF0000000003FFF0
3FFF0000000003FFF0
3FFF8000000003FFF0
3FFF8000000003FFF0
3FFF8000000003FFF0
1FFFC000000003FFF0
1FFFE000000003FFF0
1FFFE000000003FFF0
0FFFF000000003FFF0
0FFFF800000003FFF0
07FFFC00000003FFF0
07FFFE00000003FFF0
03FFFF00000003FFF0
03FFFF800000000000
01FFFFE00000000000
01FFFFF00000000000
00FFFFFE0000000000
007FFFFF8000000000
007FFFFFF800000000
003FFFFFFFFFFFFFF0
001FFFFFFFFFFFFFF0
000FFFFFFFFFFFFFF0
0007FFFFFFFFFFFFF0
0003FFFFFFFFFFFFF0
0000FFFFFFFFFFFFF0
00007FFFFFFFFFFFF0
00001FFFFFFFFFFFF0
000007FFFFFFFFFFF0
000001FFFFFFFFFFF0
0000007FFFFFFFFFF0
0000000FFFFFFFFFF0
00000000FFFFFFFFF0
0000000003FFFFFFF0
ENDCHAR
STARTCHAR 0068
ENCODING 104
SWIDTH 540 0
DWIDTH 75 0
BBX 68 95 0 0
BITMAP
FFFC0000000003FFF0
FFFC0000000003FFF0
FFFC0000000003FFF0
FFFC0000000003FFF0
FFFC0000000003FFF0
FFFC0000000003FFF0
FFFC0000000003FFF0
FFFC0000000003FFF0
FFFC0000000003FFF0
FFFC0000000003FFF0
FFFC0000000003FFF0
FFFC0000000003FFF0
FFFC0000000003FFF0
FFFC0000000003FFF0
FFFC0000000003FFF0
FFFC0000000003FFF0
FFFC0000000003FFF0
FFFC0000000003FFF0
FFFC0000000003FFF0
FFFC0000000003FFF0
FFFC0000000003FFF0
FFFC0000000003FFF0
FFFC0000000003FFF0
FFFC0000000003FFF0
FFFC0000000003FFF0
FFFC0000000003FFF0
FFFC0000000003FFF0
FFFC0000000003FFF0
FFFC0000000003FFF0
FFFC0000000003FFF0
FFFC0000000003FFF0
FFFC0000000003FFF0
FFFC0000000003FFF0
FFFC0000000003FFF0
FFFC0000000003FFF0
FFFC0000000003FFF0
FFFC0000000003FFF0
FFFC0000000003FFF0
FFFC0000000003FFF0
FFFC0000000003FFF0
FFFC0FFFFFFFFFFFF0
FFFC0FFFFFFFFFFFF0
FFFC0FFFFFFFFFFFF0
FFFC0FFFFFFFFFFFF0
FFFC0FFFFFFFFFFFF0
FFFC0FFFFFFFFFFFF0
FFFC0FFFFFFFFFFFF0
FFFC0FFFFFFFFFFFF0
FFFC0FFFFFFFFFFFF0
FFFC0FFFFFFFFFFFF0
FFFC0FFFFFFFFFFFF0
FFFC0FFFFFFFFFFFF0
FFFC0FFFFFFFFFFFF0
FFFC0FFFFFFFFFFFF0
FFFC0000000003FFF0
FFFC0000000003FFF0
FFFC0000000003FFF0
FFFC0000000003FFF0
FFFC0000000003FFF0
FFFC0000000003FFF0
FFFC0000000003FFF0
FFFC0000000003FFF0
FFFC0000000003FFF0
FFFC0000000003FFF0
FFFC0000000003FFF0
FFFC0000000003FFF0
FFFC0000000003FFF0
FFFC0000000003FFF0
FFFC0000000003FFF0
FFFC0000000003FFF0
FFFC0000000003FFF0
FFFC0000000003FFF0
FFFC0000000003FFF0
FFFC0000000003FFF0
FFFC0000000003FFF0
FFFC0000000003FFF0
FFFC0000000003FFF0
FFFC0000000003FFF0
FFFC0000000003FFF0
FFFC0000000003FFF0
FFFC0000000003FFF0
FFFC0000007FFFFFF0
FFFC0000007FFFFFF0
FFFC0000007FFFFFF0
FFFC0000007FFFFFF0
FFFC0000007FFFFFF0
FFFC0000007FFFFFF0
FFFC0000007FFFFFF0
FFFC0000007FFFFFF0
FFFC0000007FFFFFF0
FFFC0000007FFFFFF0
FFFC0000007FFFFFF0
FFFC0000007FFFFFF0
FFFC0000007FFFFFF0
FFFC0000007FFFFFF0
ENDCHAR
STARTCHAR 0069
ENCODING 105
SWIDTH 144 0
DWIDTH 20 0
BBX 14 95 0 0
BITMAP
FFFC
FFFC
FFFC
FFFC
FFFC
FFFC
FFFC
FFFC
FFFC
FFFC
FFFC
FFFC
FFFC
FFFC
FFFC
FFFC
FFFC
FFFC
FFFC
FFFC
FFFC
FFFC
FFFC
FFFC
FFFC
FFFC
FFFC
FFFC
FFFC
FFFC
FFFC
FFFC
FFFC
FFFC
FFFC
FFFC
FFFC
FFFC
FFFC
FFFC
FFFC
FFFC
FFFC
FFFC
FFFC
FFFC
FFFC
FFFC
FFFC
FFFC
FFFC
FFFC
FFFC
FFFC
FFFC
FFFC
FFFC
FFFC
FFFC
FFFC
FFFC
FFFC
FFFC
FFFC
FFFC
FFFC
FFFC
FFFC
FFFC
FFFC
FFFC
FFFC
FFFC
FFFC
FFFC
FFFC
FFFC
FFFC
FFFC
FFFC
FFFC
FFFC
FFFC
FFFC
FFFC
FFFC
FFFC
FFFC
FFFC
FFFC
FFFC
FFFC
FFFC
FFFC
FFFC
ENDCHAR
STARTCHAR 006A
ENCODING 106
SWIDTH 540 0
DWIDTH 75 0
BBX 68 95 0 0
BITMAP
000000003FFFFFFFF0
000000003FFFFFFFF0
000000003FFFFFFFF0
000000003FFFFFFFF0
000000003FFFFFFFF0
000000003FFFFFFFF0
000000003FFFFFFFF0
000000003FFFFFFFF0
000000003FFFFFFFF0
000000003FFFFFFFF0
000000003FFFFFFFF0
000000003FFFFFFFF0
000000003FFFFFFFF0
000000003FFFFFFFF0
00000000000003FFF0
00000000000003FFF0
00000000000003FFF0
00000000000003FFF0
00000000000003FFF0
00000000000003FFF0
00000000000003FFF0
00000000000003FFF0
00000000000003FFF0
00000000000003FFF0
00000000000003FFF0
00000000000003FFF0
00000000000003FFF0
00000000000003FFF0
00000000000003FFF0
00000000000003FFF0
00000000000003FFF0
00000000000003FFF0
00000000000003FFF0
00000000000003FFF0
00000000000003FFF0
00000000000003FFF0
00000000000003FFF0
00000000000003FFF0
00000000000003FFF0
00000000000003FFF0
00000000000003FFF0
00000000000003FFF0
00000000000003FFF0
00000000000003FFF0
00000000000003FFF0
00000000000003FFF0
00000000000003FFF0
00000000000003FFF0
00000000000003FFF0
00000000000003FFF0
00000000000003FFF0
00000000000003FFF0
00000000000003FFF0
00000000000003FFF0
00000000000003FFF0
00000000000003FFF0
00000000000003FFF0
00000000000003FFE0
00000000000003FFE0
00000000000007FFE0
00000000000007FFE0
FFFC0000000007FFE0
FFFC0000000007FFE0
FFFC0000000007FFE0
FFFC0000000007FFE0
FFFC000000000FFFC0
FFFC000000000FFFC0
FFFC000000000FFFC0
FFFC000000001FFFC0
7FFE000000001FFF80
7FFE000000003FFF80
7FFE000000003FFF80
7FFF000000007FFF80
7FFF000000007FFF00
3FFF80000000FFFF00
3FFFC0000001FFFE00
3FFFE0000003FFFE00
1FFFF0000007FFFE00
1FFFF800000FFFFC00
0FFFFE00003FFFFC00
0FFFFFC000FFFFF800
07FFFFFFFFFFFFF000
07FFFFFFFFFFFFF000
03FFFFFFFFFFFFE000
01FFFFFFFFFFFFC000
00FFFFFFFFFFFF8000
00FFFFFFFFFFFF8000
003FFFFFFFFFFF0000
001FFFFFFFFFFC0000
000FFFFFFFFFF80000
0003FFFFFFFFF00000
0000FFFFFFFFC00000
00003FFFFFFF000000
000007FFFFF8000000
0000003FFF00000000
ENDCHAR
STARTCHAR 006B
ENCODING 107
SWIDTH 540 0
DWIDTH 75 0
BBX 70 95 0 0
BITMAP
FFFC0000000003FFFC
FFFC0000000007FFF8
FFFC0000000007FFF0
FFFC000000000FFFF0
FFFC000000000FFFE0
FFFC000000001FFFE0
FFFC000000003FFFC0
FFFC000000003FFF80
FFFC000000007FFF80
FFFC000000007FFF00
FFFC00000000FFFF00
FFFC00000000FFFE00
FFFC00000001FFFE00
FFFC00000003FFFC00
FFFC00000003FFF800
FFFC00000007FFF800
FFFC00000007FFF000
FFFC0000000FFFF000
FFFC0000000FFFE000
FFFC0000001FFFE000
FFFC0000003FFFC000
FFFC0000003FFFC000
FFFC0000007FFF8000
FFFC0000007FFF0000
FFFC000000FFFF0000
FFFC000000FFFE0000
FFFC000001FFFE0000
FFFC000003FFFC0000
FFFC000003FFFC0000
FFFC000007FFF80000
FFFC000007FFF00000
FFFC00000FFFF00000
FFFC00000FFFE00000
FFFC00001FFFE00000
FFFC00003FFFC00000
FFFC00003FFFC00000
FFFC00007FFF800000
FFFC00007FFF000000
FFFC0000FFFF000000
FFFC0000FFFE000000
FFFC0FFFFFFE000000
FFFC0FFFFFFC000000
FFFC0FFFFFFC000000
FFFC0FFFFFF8000000
FFFC0FFFFFF0000000
FFFC0FFFFFF0000000
FFFC0FFFFFE0000000
FFFC0FFFFFE0000000
FFFC0FFFFFE0000000
FFFC0FFFFFF0000000
FFFC0FFFFFF0000000
FFFC0FFFFFF8000000
FFFC0FFFFFFC000000
FFFC0FFFFFFC000000
FFFC0001FFFE000000
FFFC0000FFFE000000
FFFC0000FFFF000000
FFFC00007FFF000000
FFFC00003FFF800000
FFFC00003FFFC00000
FFFC00001FFFC00000
FFFC00001FFFE00000
FFFC00000FFFE00000
FFFC00000FFFF00000
FFFC000007FFF00000
FFFC000007FFF80000
FFFC000003FFFC0000
FFFC000001FFFC0000
FFFC000001FFFE0000
FFFC000000FFFE0000
FFFC000000FFFF0000
FFFC0000007FFF0000
FFFC0000007FFF8000
FFFC0000003FFFC000
FFFC0000001FFFC000
FFFC0000001FFFE000
FFFC0000000FFFE000
FFFC0000000FFFF000
FFFC00000007FFF000
FFFC00000007FFF800
FFFC00000003FFF800
FFFC00000003FFFC00
FFFC00000001FFFE00
FFFC00000000FFFE00
FFFC00000000FFFF00
FFFC000000007FFF00
FFFC000000007FFF80
FFFC000000003FFF80
FFFC000000003FFFC0
FFFC000000001FFFE0
FFFC000000000FFFE0
FFFC000000000FFFF0
FFFC0000000007FFF0
FFFC0000000007FFF8
FFFC0000000003FFFC
ENDCHAR
STARTCHAR 006C
ENCODING 108
SWIDTH 489 0
DWIDTH 68 0
BBX 61 95 0 0
BITMAP
FFFC000000000000
FFFC000000000000
FFFC000000000000
FFFC000000000000
FFFC000000000000
FFFC000000000000
FFFC000000000000
FFFC000000000000
FFFC000000000000
FFFC000000000000
FFFC000000000000
FFFC000000000000
FFFC000000000000
FFFC000000000000
FFFC000000000000
FFFC000000000000
FFFC000000000000
FFFC000000000000
FFFC000000000000
FFFC000000000000
FFFC000000000000
FFFC000000000000
FFFC000000000000
FFFC000000000000
FFFC000000000000
FFFC000000000000
FFFC000000000000
FFFC000000000000
FFFC000000000000
FFFC000000000000
FFFC000000000000
FFFC000000000000
FFFC000000000000
FFFC000000000000
FFFC000000000000
FFFC000000000000
FFFC000000000000
FFFC000000000000
FFFC000000000000
FFFC000000000000
FFFC000000000000
FFFC000000000000
FFFC000000000000
FFFC000000000000
FFFC000000000000
FFFC000000000000
FFFC000000000000
FFFC000000000000
FFFC000000000000
FFFC000000000000
FFFC000000000000
FFFC000000000000
FFFC000000000000
FFFC000000000000
FFFC000000000000
FFFC000000000000
FFFC000000000000
FFFC000000000000
FFFC000000000000
FFFC000000000000
FFFC000000000000
FFFC000000000000
FFFC000000000000
FFFC000000000000
FFFC000000000000
FFFC000000000000
FFFC000000000000
FFFC000000000000
FFFC00000000FFF8
FFFC00000000FFF8
FFFC00000000FFF8
FFFC00000000FFF8
FFFC00000000FFF8
FFFC00000000FFF8
FFFC00000000FFF8
FFFC00000000FFF8
FFFC00000000FFF8
FFFC00000000FFF8
FFFC00000000FFF8
FFFC00000000FFF8
FFFC00000000FFF8
FFFFFFFFFFFFFFF8
FFFFFFFFFFFFFFF8
FFFFFFFFFFFFFFF8
FFFFFFFFFFFFFFF8
FFFFFFFFFFFFFFF8
FFFFFFFFFFFFFFF8
FFFFFFFFFFFFFFF8
FFFFFFFFFFFFFFF8
FFFFFFFFFFFFFFF8
FFFFFFFFFFFFFFF8
FFFFFFFFFFFFFFF8
FFFFFFFFFFFFFFF8
FFFFFFFFFFFFFFF8
FFFFFFFFFFFFFFF8
ENDCHAR
STARTCHAR 006D
ENCODING 109
SWIDTH 633 0
DWIDTH 88 0
BBX 81 96 0 -1
BITMAP
FFFC0000000000000FFF80
FFFC0000000000000FFF80
FFFC0000000000000FFF80
FFFC0000000000000FFF80
FFFC0000000000000FFF80
FFFC0000000000000FFF80
FFFC0000000000000FFF80
FFFC0000000000000FFF80
FFFC0800000000040FFF80
FFFC0800000000080FFF80
FFFC0800000000080FFF80
FFFC0C00000000080FFF80
FFFC0C00000000180FFF80
FFFC0E00000000180FFF80
FFFC0E00000000380FFF80
FFFC0E00000000380FFF80
FFFC0F00000000380FFF80
FFFC0F00000000780FFF80
FFFC0F80000000780FFF80
FFFC0F80000000F80FFF80
FFFC0F80000000F80FFF80
FFFC0FC0000000F80FFF80
FFFC0FC0000001F80FFF80
FFFC0FE0000001F80FFF80
FFFC0FE0000003F80FFF80
FFFC0FE0000003F80FFF80
FFFC0FF0000003F80FFF80
FFFC0FF0000007F80FFF80
FFFC0FF8000007F80FFF80
FFFC0FF800000FF80FFF80
FFFC0FF800000FF80FFF80
FFFC0FFC00000FF80FFF80
FFFC0FFC00001FF80FFF80
FFFC0FFE00001FF80FFF80
FFFC0FFE00003FF80FFF80
FFFC0FFE00003FF80FFF80
FFFC0FFF00003FF80FFF80
FFFC0FFF00007FF80FFF80
FFFC0FFF80007FF80FFF80
FFFC0FFF8000FFF80FFF80
FFFC0FFFC000FFF80FFF80
FFFC0FFFC000FFF80FFF80
FFFC0FFFC001FFF80FFF80
FFFC0FFFE001FFF80FFF80
FFFC0FFFE003FFF80FFF80
FFFC07FFF003FFF80FFF80
FFFC07FFF007FFF00FFF80
FFFC07FFF007FFF00FFF80
FFFC03FFF807FFF00FFF80
FFFC03FFF80FFFE00FFF80
FFFC01FFFC0FFFE00FFF80
FFFC01FFFC1FFFC00FFF80
FFFC01FFFC1FFFC00FFF80
FFFC00FFFE1FFFC00FFF80
FFFC00FFFE3FFF800FFF80
FFFC007FFF3FFF800FFF80
FFFC007FFF7FFF000FFF80
FFFC007FFF7FFF000FFF80
FFFC003FFFFFFF000FFF80
FFFC003FFFFFFE000FFF80
FFFC001FFFFFFE000FFF80
FFFC001FFFFFFC000FFF80
FFFC001FFFFFFC000FFF80
FFFC000FFFFFFC000FFF80
FFFC000FFFFFF8000FFF80
FFFC0007FFFFF8000FFF80
FFFC0007FFFFF0000FFF80
FFFC0007FFFFF0000FFF80
FFFC0003FFFFF0000FFF80
FFFC0003FFFFE0000FFF80
FFFC0001FFFFE0000FFF80
FFFC0001FFFFC0000FFF80
FFFC0001FFFFC0000FFF80
FFFC0000FFFFC0000FFF80
FFFC0000FFFF80000FFF80
FFFC00007FFF80000FFF80
FFFC00007FFF00000FFF80
FFFC00007FFF00000FFF80
FFFC00003FFF00000FFF80
FFFC00003FFE00000FFF80
FFFC00001FFE00000FFF80
FFFC00001FFC00000FFF80
FFFC00001FFC00000FFF80
FFFC00000FFC00000FFF80
FFFC00000FF800000FFF80
FFFC000007F800000FFF80
FFFC000007F000000FFF80
FFFC000007F000000FFF80
FFFC000003F000000FFF80
FFFC000003E000000FFF80
FFFC000001E000000FFF80
FFFC000001C000000FFF80
FFFC000001C000000FFF80
FFFC000000C000000FFF80
FFFC0000008000000FFF80
0000000000800000000000
ENDCHAR
STARTCHAR 006E
ENCODING 110
SWIDTH 540 0
DWIDTH 75 0
BBX 68 95 0 0
BITMAP
FFFC0000000003FFF0
FFFC0000000003FFF0
FFFC0000000003FFF0
FFFC0000000003FFF0
FFFC0000000003FFF0
FFFC0000000003FFF0
FFFC0000000003FFF0
FFFC0000000003FFF0
FFFC0800000003FFF0
FFFC0800000003FFF0
FFFC0C00000003FFF0
FFFC0C00000003FFF0
FFFC0E00000003FFF0
FFFC0E00000003FFF0
FFFC0F00000003FFF0
FFFC0F80000003FFF0
FFFC0F80000003FFF0
FFFC0FC0000003FFF0
FFFC0FC0000003FFF0
FFFC0FE0000003FFF0
FFFC0FE0000003FFF0
FFFC0FF0000003FFF0
FFFC0FF8000003FFF0
FFFC0FF8000003FFF0
FFFC0FFC000003FFF0
FFFC0FFC000003FFF0
FFFC0FFE000003FFF0
FFFC0FFE000003FFF0
FFFC0FFF000003FFF0
FFFC0FFF800003FFF0
FFFC0FFF800003FFF0
FFFC0FFFC00003FFF0
FFFC0FFFC00003FFF0
FFFC0FFFE00003FFF0
FFFC0FFFE00003FFF0
FFFC07FFF00003FFF0
FFFC07FFF00003FFF0
FFFC03FFF80003FFF0
FFFC01FFFC0003FFF0
FFFC01FFFC0003FFF0
FFFC00FFFE0003FFF0
FFFC00FFFE0003FFF0
FFFC007FFF0003FFF0
FFFC007FFF0003FFF0
FFFC003FFF8003FFF0
FFFC003FFFC003FFF0
FFFC001FFFC003FFF0
FFFC000FFFE003FFF0
FFFC000FFFE003FFF0
FFFC0007FFF003FFF0
FFFC0007FFF003FFF0
FFFC0003FFF803FFF0
FFFC0003FFFC03FFF0
FFFC0001FFFC03FFF0
FFFC0000FFFE03FFF0
FFFC0000FFFE03FFF0
FFFC00007FFF03FFF0
FFFC00007FFF03FFF0
FFFC00003FFF83FFF0
FFFC00003FFF83FFF0
FFFC00001FFFC3FFF0
FFFC00001FFFE3FFF0
FFFC00000FFFE3FFF0
FFFC000007FFF3FFF0
FFFC000007FFF3FFF0
FFFC000003FFFBFFF0
FFFC000003FFFBFFF0
FFFC000001FFFFFFF0
FFFC000001FFFFFFF0
FFFC000000FFFFFFF0
FFFC0000007FFFFFF0
FFFC0000007FFFFFF0
FFFC0000003FFFFFF0
FFFC0000003FFFFFF0
FFFC0000001FFFFFF0
FFFC0000001FFFFFF0
FFFC0000000FFFFFF0
FFFC0000000FFFFFF0
FFFC00000007FFFFF0
FFFC00000003FFFFF0
FFFC00000003FFFFF0
FFFFFFE00001FFFFF0
FFFFFFE00001FFFFF0
FFFFFFE00000FFFFF0
FFFFFFE00000FFFFF0
FFFFFFE000007FFFF0
FFFFFFE000003FFFF0
FFFFFFE000003FFFF0
FFFFFFE000001FFFF0
FFFFFFE000001FFFF0
FFFFFFE000000FFFF0
FFFFFFE000000FFFF0
FFFFFFE0000007FFF0
FFFFFFE0000007FFF0
FFFFFFE0000003FFF0
ENDCHAR
STARTCHAR 006F
ENCODING 111
SWIDTH 540 0
DWIDTH 75 0
BBX 68 95 0 0
BITMAP
0000001E0780000000
000001FE07F8000000
00000FFE07FF000000
00003FFE07FFC00000
0000FFFE07FFF00000
0001FFFE07FFF80000
0007FFFE07FFFC0000
000FFFFE07FFFF0000
001FFFFE07FFFF8000
003FFFFE07FFFF8000
007FFFFE07FFFFC000
007FFFFE07FFFFE000
00FFFFFE07FFFFF000
01FFFFFE07FFFFF000
01FFFFF000FFFFF800
03FFFF80003FFFFC00
03FFFF00000FFFFC00
07FFFC000007FFFE00
07FFF8000003FFFE00
0FFFF0000001FFFE00
0FFFF0000000FFFF00
0FFFE00000007FFF00
1FFFC00000007FFF80
1FFFC00000003FFF80
1FFF800000003FFF80
3FFF800000001FFF80
3FFF800000001FFFC0
3FFF000000000FFFC0
3FFF000000000FFFC0
7FFF000000000FFFC0
7FFE0000000007FFE0
7FFE0000000007FFE0
7FFE0000000007FFE0
7FFE0000000007FFE0
7FFC0000000007FFE0
7FFC0000000007FFE0
FFFC0000000003FFE0
FFFC0000000003FFE0
FFFC0000000003FFF0
FFFC0000000003FFF0
FFFC0000000003FFF0
FFFC0000000003FFF0
FFFC0000000003FFF0
FFFC0000000003FFF0
FFFC0000000003FFF0
FFFC0000000003FFF0
FFFC0000000003FFF0
FFFC0000000003FFF0
FFFC0000000003FFF0
FFFC0000000003FFF0
FFFC0000000003FFF0
FFFC0000000003FFF0
FFFC0000000003FFF0
FFFC0000000003FFF0
FFFC0000000003FFF0
FFFC0000000003FFF0
FFFC0000000003FFF0
FFFC0000000003FFE0
FFFC0000000003FFE0
7FFC0000000007FFE0
7FFC0000000007FFE0
7FFE0000000007FFE0
7FFE0000000007FFE0
7FFE0000000007FFE0
7FFE0000000007FFE0
3FFF000000000FFFC0
3FFF000000000FFFC0
3FFF000000000FFFC0
3FFF800000001FFFC0
3FFF800000001FFF80
1FFF800000003FFF80
1FFFC00000003FFF80
1FFFC00000007FFF80
0FFFE00000007FFF00
0FFFF0000000FFFF00
0FFFF0000001FFFE00
07FFF8000003FFFE00
07FFFC000007FFFE00
03FFFF00000FFFFC00
03FFFF80003FFFFC00
01FFFFF000FFFFF800
01FFFFFE07FFFFF000
00FFFFFE07FFFFF000
007FFFFE07FFFFE000
007FFFFE07FFFFC000
003FFFFE07FFFF8000
001FFFFE07FFFF8000
000FFFFE07FFFE0000
0007FFFE07FFFC0000
0001FFFE07FFF80000
0000FFFE07FFF00000
00003FFE07FFC00000
00000FFE07FF000000
000001FE07F8000000
0000001E0700000000
ENDCHAR
STARTCHAR 0070
ENCODING 112
SWIDTH 540 0
DWIDTH 75 0
BBX 68 95 0 0
BITMAP
FFFFFFFFFFC0000000
FFFFFFFFFFFE000000
FFFFFFFFFFFFC00000
FFFFFFFFFFFFF00000
FFFFFFFFFFFFFC0000
FFFFFFFFFFFFFF0000
FFFFFFFFFFFFFF8000
FFFFFFFFFFFFFFC000
FFFFFFFFFFFFFFE000
FFFFFFFFFFFFFFF000
FFFFFFFFFFFFFFF800
FFFFFFFFFFFFFFFC00
FFFFFFFFFFFFFFFE00
FFFFFFFFFFFFFFFE00
FFFC0000003FFFFF00
FFFC0000000FFFFF00
FFFC00000003FFFF80
FFFC00000000FFFF80
FFFC000000007FFFC0
FFFC000000003FFFC0
FFFC000000001FFFC0
FFFC000000001FFFC0
FFFC000000000FFFE0
FFFC000000000FFFE0
FFFC0000000007FFE0
FFFC0000000007FFE0
FFFC0000000007FFE0
FFFC0000000003FFF0
FFFC0000000003FFF0
FFFC0000000003FFF0
FFFC0000000003FFF0
FFFC0000000003FFF0
FFFC0000000003FFF0
FFFC0000000003FFF0
FFFC0000000003FFF0
FFFC0000000003FFF0
FFFC0000000003FFF0
FFFC0000000003FFF0
FFFC0000000003FFF0
FFFC0000000003FFF0
FFFC0000000003FFF0
FFFC0000000007FFE0
FFFC0000000007FFE0
FFFC0000000007FFE0
FFFC000000000FFFE0
FFFC000000000FFFE0
FFFC000000001FFFC0
FFFC000000001FFFC0
FFFC000000003FFFC0
FFFC000000007FFFC0
FFFC00000000FFFF80
FFFC00000003FFFF80
FFFC00000007FFFF00
FFFC0000003FFFFF00
FFFC0FFFFFFFFFFE00
FFFC0FFFFFFFFFFE00
FFFC0FFFFFFFFFFC00
FFFC0FFFFFFFFFF800
FFFC0FFFFFFFFFF000
FFFC0FFFFFFFFFE000
FFFC0FFFFFFFFFC000
FFFC0FFFFFFFFF8000
FFFC0FFFFFFFFF0000
FFFC0FFFFFFFFC0000
FFFC0FFFFFFFF00000
FFFC0FFFFFFFC00000
FFFC0FFFFFFE000000
FFFC0FFFFFC0000000
FFFC00000000000000
FFFC00000000000000
FFFC00000000000000
FFFC00000000000000
FFFC00000000000000
FFFC00000000000000
FFFC00000000000000
FFFC00000000000000
FFFC00000000000000
FFFC00000000000000
FFFC00000000000000
FFFC00000000000000
FFFC00000000000000
FFFC00000000000000
FFFC00000000000000
FFFC00000000000000
FFFC00000000000000
FFFC00000000000000
FFFC00000000000000
FFFC00000000000000
FFFC00000000000000
FFFC00000000000000
FFFC00000000000000
FFFC00000000000000
FFFC00000000000000
FFFC00000000000000
FFFC00000000000000
ENDCHAR
STARTCHAR 0071
ENCODING 113
SWIDTH 540 0
DWIDTH 75 0
BBX 68 102 0 -7
BITMAP
000000060600000000
000000FE07F0000000
000007FE07FE000000
00003FFE07FF800000
00007FFE07FFE00000
0001FFFE07FFF80000
0003FFFE07FFFC0000
0007FFFE07FFFE0000
001FFFFE07FFFF0000
001FFFFE07FFFF8000
003FFFFE07FFFFC000
007FFFFE07FFFFE000
00FFFFFE07FFFFF000
01FFFFFE07FFFFF000
01FFFFF001FFFFF800
03FFFFC0003FFFFC00
03FFFF00000FFFFC00
07FFFE000007FFFE00
07FFFC000003FFFE00
0FFFF8000001FFFE00
0FFFF0000000FFFF00
0FFFE00000007FFF00
1FFFE00000007FFF00
1FFFC00000003FFF80
1FFF800000003FFF80
3FFF800000001FFF80
3FFF800000001FFFC0
3FFF000000000FFFC0
3FFF000000000FFFC0
3FFF000000000FFFC0
7FFE000000000FFFC0
7FFE0000000007FFE0
7FFE0000000007FFE0
7FFE0000000007FFE0
7FFE0000000007FFE0
7FFC0000000007FFE0
7FFC0000000003FFE0
FFFC0000000003FFE0
FFFC0000000003FFE0
FFFC0000000003FFF0
FFFC0000000003FFF0
FFFC0000000003FFF0
FFFC0000000003FFF0
FFFC0000000003FFF0
FFFC0000000003FFF0
FFFC0000000003FFF0
FFFC0000000003FFF0
FFFC0000000003FFF0
FFFC0000000003FFF0
FFFC0000000003FFF0
FFFC0000000003FFF0
FFFC0000000003FFF0
FFFC0000000003FFF0
FFFC0000000003FFF0
FFFC00FFFE0003FFF0
FFFC00FFFF0003FFF0
FFFC007FFF0003FFF0
FFFC007FFF8003FFE0
FFFC003FFFC003FFE0
7FFC001FFFC003FFE0
7FFC001FFFE007FFE0
7FFE000FFFE007FFE0
7FFE000FFFF007FFE0
7FFE0007FFF007FFE0
7FFE0007FFF807FFE0
7FFF0003FFFC0FFFC0
3FFF0001FFFC0FFFC0
3FFF0001FFFE0FFFC0
3FFF0000FFFE1FFFC0
3FFF8000FFFF1FFF80
1FFF80007FFF1FFF80
1FFFC0007FFFBFFF80
1FFFC0003FFFFFFF80
0FFFE0001FFFFFFF00
0FFFF0001FFFFFFF00
0FFFF0000FFFFFFF00
07FFF8000FFFFFFE00
07FFFC0007FFFFFE00
03FFFE0007FFFFFC00
03FFFF8003FFFFFC00
01FFFFE003FFFFF800
01FFFFFE07FFFFF800
00FFFFFE07FFFFF000
007FFFFE07FFFFE000
007FFFFE07FFFFC000
003FFFFE07FFFFC000
001FFFFE07FFFFC000
000FFFFE07FFFFC000
0007FFFE07FFFFE000
0003FFFE07FFFFE000
0000FFFE07FFFFF000
00003FFE07FFFFF000
00000FFE07FFFFF800
000003FE07FFFFF800
0000003E07C3FFFC00
000000000001FFFE00
000000000000FFFE00
000000000000FFFF00
0000000000007FFF00
0000000000007FFF80
0000000000003FFF80
0000000000003FFFC0
ENDCHAR
STARTCHAR 0072
ENCODING 114
SWIDTH 540 0
DWIDTH 75 0
BBX 70 95 0 0
BITMAP
FFFFFFFFFFE0000000
FFFFFFFFFFFF000000
FFFFFFFFFFFFE00000
FFFFFFFFFFFFFC0000
FFFFFFFFFFFFFF0000
FFFFFFFFFFFFFFC000
FFFFFFFFFFFFFFE000
FFFFFFFFFFFFFFF000
FFFFFFFFFFFFFFF800
FFFFFFFFFFFFFFFC00
FFFFFFFFFFFFFFFE00
FFFFFFFFFFFFFFFF00
FFFFFFFFFFFFFFFF00
FFFFFFFFFFFFFFFF80
FFFC0000001FFFFF80
FFFC00000003FFFFC0
FFFC00000000FFFFC0
FFFC000000003FFFE0
FFFC000000001FFFE0
FFFC000000000FFFE0
FFFC0000000007FFE0
FFFC0000000007FFE0
FFFC0000000003FFF0
FFFC0000000003FFF0
FFFC0000000003FFF0
FFFC0000000003FFF0
FFFC0000000003FFF0
FFFC0000000003FFF0
FFFC0000000003FFF0
FFFC0000000003FFF0
FFFC0000000003FFF0
FFFC0000000003FFF0
FFFC0000000007FFE0
FFFC0000000007FFE0
FFFC000000000FFFE0
FFFC000000001FFFE0
FFFC000000003FFFE0
FFFC00000000FFFFC0
FFFC00000003FFFFC0
FFFC0000001FFFFF80
FFFC0FFFFFFFFFFF80
FFFC0FFFFFFFFFFF00
FFFC0FFFFFFFFFFF00
FFFC0FFFFFFFFFFE00
FFFC0FFFFFFFFFFC00
FFFC0FFFFFFFFFF800
FFFC0FFFFFFFFFF000
FFFC0FFFFFFFFFE000
FFFC0FFFFFFFFFC000
FFFC0FFFFFFFFF0000
FFFC0FFFFFFFFC0000
FFFC0FFFFFFFE00000
FFFC0FFFFFFF000000
FFFC0FFFFFFC000000
FFFC0001FFFE000000
FFFC0000FFFE000000
FFFC0000FFFF000000
FFFC00007FFF800000
FFFC00003FFF800000
FFFC00003FFFC00000
FFFC00001FFFC00000
FFFC00001FFFE00000
FFFC00000FFFE00000
FFFC00000FFFF00000
FFFC000007FFF80000
FFFC000007FFF80000
FFFC000003FFFC0000
FFFC000001FFFC0000
FFFC000001FFFE0000
FFFC000000FFFE0000
FFFC000000FFFF0000
FFFC0000007FFF0000
FFFC0000007FFF8000
FFFC0000003FFFC000
FFFC0000001FFFC000
FFFC0000001FFFE000
FFFC0000000FFFE000
FFFC0000000FFFF000
FFFC00000007FFF000
FFFC00000007FFF800
FFFC00000003FFFC00
FFFFFFE00003FFFC00
FFFFFFE00001FFFE00
FFFFFFE00000FFFE00
FFFFFFE00000FFFF00
FFFFFFE000007FFF00
FFFFFFE000007FFF80
FFFFFFE000003FFF80
FFFFFFE000003FFFC0
FFFFFFE000001FFFE0
FFFFFFE000000FFFE0
FFFFFFE000000FFFF0
FFFFFFE0000007FFF0
FFFFFFE0000007FFF8
FFFFFFE0000003FFFC
ENDCHAR
STARTCHAR 0073
ENCODING 115
SWIDTH 540 0
DWIDTH 75 0
BBX 68 95 0 0
BITMAP
0000007FFFFFFFFFF0
00000FFFFFFFFFFFF0
0000FFFFFFFFFFFFF0
0003FFFFFFFFFFFFF0
000FFFFFFFFFFFFFF0
003FFFFFFFFFFFFFF0
007FFFFFFFFFFFFFF0
00FFFFFFFFFFFFFFF0
01FFFFFFFFFFFFFFF0
03FFFFFFFFFFFFFFF0
07FFFFFFFFFFFFFFF0
0FFFFFFFFFFFFFFFF0
1FFFFFFFFFFFFFFFF0
1FFFFFFFFFFFFFFFF0
3FFFFF80000003FFF0
3FFFF800000003FFF0
3FFFE000000003FFF0
7FFFC000000003FFF0
7FFF8000000003FFF0
7FFF0000000003FFF0
7FFE0000000003FFF0
FFFE0000000003FFF0
FFFC0000000003FFF0
FFFC0000000003FFF0
FFFC0000000003FFF0
FFFC0000000003FFF0
FFFC0000000003FFF0
FFFC00000000000000
FFFC00000000000000
FFFC00000000000000
FFFC00000000000000
FFFC00000000000000
FFFE00000000000000
7FFE00000000000000
7FFF00000000000000
7FFF80000000000000
7FFFC0000000000000
3FFFE0000000000000
3FFFF8000000000000
3FFFFF800000000000
1FFFFFFFE000000000
1FFFFFFFFFFC000000
0FFFFFFFFFFFC00000
07FFFFFFFFFFF80000
03FFFFFFFFFFFE0000
01FFFFFFFFFFFF8000
00FFFFFFFFFFFFC000
007FFFFFFFFFFFF000
003FFFFFFFFFFFF800
000FFFFFFFFFFFFC00
0003FFFFFFFFFFFE00
0000FFFFFFFFFFFE00
00000FFFFFFFFFFF00
0000007FFFFFFFFF80
00000000007FFFFF80
000000000007FFFFC0
000000000000FFFFC0
0000000000007FFFC0
0000000000001FFFE0
0000000000000FFFE0
0000000000000FFFE0
00000000000007FFE0
00000000000007FFF0
00000000000003FFF0
00000000000003FFF0
00000000000003FFF0
00000000000003FFF0
00000000000003FFF0
FFFC0000000003FFF0
FFFC0000000003FFF0
FFFC0000000003FFF0
FFFC0000000003FFF0
FFFC0000000003FFF0
FFFC0000000007FFE0
FFFC0000000007FFE0
FFFC000000000FFFE0
FFFC000000001FFFE0
FFFC000000003FFFE0
FFFC00000000FFFFC0
FFFC00000003FFFFC0
FFFC0000001FFFFF80
FFFFFFFFFFFFFFFF80
FFFFFFFFFFFFFFFF00
FFFFFFFFFFFFFFFF00
FFFFFFFFFFFFFFFE00
FFFFFFFFFFFFFFFC00
FFFFFFFFFFFFFFF800
FFFFFFFFFFFFFFF000
FFFFFFFFFFFFFFE000
FFFFFFFFFFFFFFC000
FFFFFFFFFFFFFF0000
FFFFFFFFFFFFFC0000
FFFFFFFFFFFFE00000
FFFFFFFFFFFF000000
FFFFFFFFFFC0000000
ENDCHAR
STARTCHAR 0074
ENCODING 116
SWIDTH 540 0
DWIDTH 75 0
BBX 68 95 0 0
BITMAP
FFFFFFFFFFFFFFFFF0
FFFFFFFFFFFFFFFFF0
FFFFFFFFFFFFFFFFF0
FFFFFFFFFFFFFFFFF0
FFFFFFFFFFFFFFFFF0
FFFFFFFFFFFFFFFFF0
FFFFFFFFFFFFFFFFF0
FFFFFFFFFFFFFFFFF0
FFFFFFFFFFFFFFFFF0
FFFFFFFFFFFFFFFFF0
FFFFFFFFFFFFFFFFF0
FFFFFFFFFFFFFFFFF0
FFFFFFFFFFFFFFFFF0
FFFFFFFFFFFFFFFFF0
FFFC0000000003FFF0
FFFC0000000003FFF0
FFFC0000000003FFF0
FFFC0000000003FFF0
FFFC0000000003FFF0
FFFC0000000003FFF0
FFFC001FFF8003FFF0
FFFC001FFF8003FFF0
FFFC001FFF8003FFF0
FFFC001FFF8003FFF0
FFFC001FFF8003FFF0
FFFC001FFF8003FFF0
FFFC001FFF8003FFF0
0000001FFF80000000
0000001FFF80000000
0000001FFF80000000
0000001FFF80000000
0000001FFF80000000
0000001FFF80000000
0000001FFF80000000
0000001FFF80000000
0000001FFF80000000
0000001FFF80000000
0000001FFF80000000
0000001FFF80000000
0000001FFF80000000
0000001FFF80000000
0000001FFF80000000
0000001FFF80000000
0000001FFF80000000
0000001FFF80000000
0000001FFF80000000
0000001FFF80000000
0000001FFF80000000
0000001FFF80000000
0000001FFF80000000
0000001FFF80000000
0000001FFF80000000
0000001FFF80000000
0000001FFF80000000
0000001FFF80000000
0000001FFF80000000
0000001FFF80000000
0000001FFF80000000
0000001FFF80000000
0000001FFF80000000
0000001FFF80000000
0000001FFF80000000
0000001FFF80000000
0000001FFF80000000
0000001FFF80000000
0000001FFF80000000
0000001FFF80000000
0000001FFF80000000
0000001FFF80000000
0000001FFF80000000
0000001FFF80000000
0000001FFF80000000
0000001FFF80000000
0000001FFF80000000
0000001FFF80000000
0000001FFF80000000
0000001FFF80000000
0000001FFF80000000
0000001FFF80000000
0000001FFF80000000
0000001FFF80000000
0000001FFF80000000
0000001FFF80000000
0000001FFF80000000
0000001FFF80000000
0000001FFF80000000
0000001FFF80000000
0000001FFF80000000
0000001FFF80000000
0000001FFF80000000
0000001FFF80000000
0000001FFF80000000
0000001FFF80000000
0000001FFF80000000
0000001FFF80000000
ENDCHAR
STARTCHAR 0075
ENCODING 117
SWIDTH 540 0
DWIDTH 75 0
BBX 68 95 0 0
BITMAP
FFFC0000007FFFFFF0
FFFC0000007FFFFFF0
FFFC0000007FFFFFF0
FFFC0000007FFFFFF0
FFFC0000007FFFFFF0
FFFC0000007FFFFFF0
FFFC0000007FFFFFF0
FFFC0000007FFFFFF0
FFFC0000007FFFFFF0
FFFC0000007FFFFFF0
FFFC0000007FFFFFF0
FFFC0000007FFFFFF0
FFFC0000007FFFFFF0
FFFC0000007FFFFFF0
FFFC0000000003FFF0
FFFC0000000003FFF0
FFFC0000000003FFF0
FFFC0000000003FFF0
FFFC0000000003FFF0
FFFC0000000003FFF0
FFFC0000000003FFF0
FFFC0000000003FFF0
FFFC0000000003FFF0
FFFC0000000003FFF0
FFFC0000000003FFF0
FFFC0000000003FFF0
FFFC0000000003FFF0
FFFC0000000003FFF0
FFFC0000000003FFF0
FFFC0000000003FFF0
FFFC0000000003FFF0
FFFC0000000003FFF0
FFFC0000000003FFF0
FFFC0000000003FFF0
FFFC0000000003FFF0
FFFC0000000003FFF0
FFFC0000000003FFF0
FFFC0000000003FFF0
FFFC0000000003FFF0
FFFC0000000003FFF0
FFFC0000000003FFF0
FFFC0000000003FFF0
FFFC0000000003FFF0
FFFC0000000003FFF0
FFFC0000000003FFF0
FFFC0000000003FFF0
FFFC0000000003FFF0
FFFC0000000003FFF0
FFFC0000000003FFF0
FFFC0000000003FFF0
FFFC0000000003FFF0
FFFC0000000003FFF0
FFFC0000000003FFF0
FFFC0000000003FFF0
FFFC0000000003FFF0
FFFC0000000003FFF0
FFFC0000000003FFF0
FFFC0000000003FFE0
FFFC0000000003FFE0
7FFC0000000007FFE0
7FFC0000000007FFE0
7FFE0000000007FFE0
7FFE0000000007FFE0
7FFE0000000007FFE0
7FFE0000000007FFE0
7FFF000000000FFFC0
3FFF000000000FFFC0
3FFF000000000FFFC0
3FFF800000001FFFC0
3FFF800000001FFF80
1FFF800000003FFF80
1FFFC00000003FFF80
1FFFC00000007FFF80
0FFFE00000007FFF00
0FFFF0000000FFFF00
0FFFF0000001FFFE00
07FFF8000003FFFE00
07FFFC000007FFFE00
03FFFF00000FFFFC00
03FFFF80003FFFFC00
01FFFFF000FFFFF800
01FFFFFFFFFFFFF000
00FFFFFFFFFFFFF000
007FFFFFFFFFFFE000
007FFFFFFFFFFFC000
003FFFFFFFFFFF8000
001FFFFFFFFFFF8000
000FFFFFFFFFFF0000
0007FFFFFFFFFC0000
0001FFFFFFFFF80000
0000FFFFFFFFF00000
00003FFFFFFFC00000
00000FFFFFFF000000
000001FFFFF8000000
0000001FFF00000000
ENDCHAR
STARTCHAR 0076
ENCODING 118
SWIDTH 540 0
DWIDTH 75 0
BBX 68 95 0 0
BITMAP
FFFFFFE0000003FFF0
FFFFFFE0000003FFF0
FFFFFFE0000003FFF0
FFFFFFE0000003FFF0
FFFFFFE0000003FFF0
FFFFFFE0000003FFF0
FFFFFFE0000003FFF0
FFFFFFE0000003FFF0
FFFFFFE0000003FFF0
FFFFFFE0000003FFF0
FFFFFFE0000003FFF0
FFFFFFE0000003FFF0
FFFFFFE0000003FFF0
FFFFFFE0000003FFF0
FFFC0000000003FFF0
FFFC0000000003FFF0
FFFC0000000003FFE0
FFFC0000000003FFE0
FFFC0000000003FFE0
7FFC0000000003FFE0
7FFC0000000003FFE0
7FFC0000000003FFE0
7FFC0000000003FFE0
7FFC0000000007FFE0
7FFC0000000007FFE0
7FFE0000000007FFE0
7FFE0000000007FFE0
7FFE0000000007FFE0
7FFE0000000007FFE0
7FFE0000000007FFE0
7FFE0000000007FFC0
3FFE0000000007FFC0
3FFE0000000007FFC0
3FFE000000000FFFC0
3FFE000000000FFFC0
3FFF000000000FFFC0
3FFF000000000FFFC0
3FFF000000000FFFC0
3FFF000000000FFF80
1FFF000000000FFF80
1FFF000000001FFF80
1FFF800000001FFF80
1FFF800000001FFF80
1FFF800000001FFF80
1FFF800000001FFF80
1FFF800000001FFF00
0FFF800000003FFF00
0FFFC00000003FFF00
0FFFC00000003FFF00
0FFFC00000003FFF00
07FFC00000007FFE00
07FFE00000007FFE00
07FFE00000007FFE00
07FFE00000007FFE00
07FFF0000000FFFC00
03FFF0000000FFFC00
03FFF0000000FFFC00
03FFF0000001FFFC00
01FFF8000001FFF800
01FFF8000001FFF800
01FFFC000003FFF800
01FFFC000003FFF000
00FFFC000007FFF000
00FFFE000007FFF000
00FFFE000007FFE000
007FFF00000FFFE000
007FFF00000FFFE000
003FFF80001FFFC000
003FFF80003FFFC000
003FFFC0003FFF8000
001FFFE0007FFF8000
001FFFE000FFFF8000
000FFFF000FFFF0000
000FFFF801FFFF0000
0007FFFC03FFFE0000
0007FFFE07FFFC0000
0003FFFF0FFFFC0000
0003FFFF9FFFF80000
0001FFFFFFFFF80000
0000FFFFFFFFF00000
0000FFFFFFFFE00000
00007FFFFFFFE00000
00003FFFFFFFC00000
00001FFFFFFF800000
00001FFFFFFF000000
00000FFFFFFE000000
000007FFFFFC000000
000003FFFFF8000000
000001FFFFF0000000
0000007FFFE0000000
0000003FFFC0000000
0000001FFF80000000
00000007FE00000000
00000001F800000000
000000006000000000
ENDCHAR
STARTCHAR 0077
ENCODING 119
SWIDTH 734 0
DWIDTH 102 0
BBX 95 95 0 0
BITMAP
FFFC0000007FFC0000007FFE
FFFC0000007FFC0000007FFE
FFFC0000007FFC0000007FFE
FFFC0000007FFC0000007FFE
FFFC0000007FFC0000007FFE
FFFC0000007FFC0000007FFE
FFFC0000007FFC0000007FFE
FFFC0000007FFC0000007FFE
FFFC0000007FFC0000007FFE
FFFC0000007FFC0000007FFE
FFFC0000007FFC0000007FFE
FFFC0000007FFC0000007FFE
FFFC0000007FFC0000007FFE
FFFC0000007FFC0000007FFE
FFFC000000FFFC0000007FFE
FFFC000000FFFE0000007FFE
FFFC000000FFFE0000007FFE
FFFC000000FFFE0000007FFE
FFFC000000FFFE0000007FFE
FFFC000000FFFE0000007FFE
FFFC000000FFFE0000007FFE
7FFC000000FFFE0000007FFC
7FFC000000FFFE0000007FFC
7FFC000000FFFE0000007FFC
7FFC000000FFFE0000007FFC
7FFC000000FFFE0000007FFC
7FFC000000FFFE0000007FFC
7FFC000000FFFE0000007FFC
7FFC000000FFFE0000007FFC
7FFC000000FFFE0000007FFC
7FFE000000FFFE000000FFFC
7FFE000000FFFE000000FFFC
7FFE000000FFFE000000FFFC
7FFE000001FFFE000000FFFC
7FFE000001FFFF000000FFFC
3FFE000001FFFF000000FFF8
3FFE000001FFFF000000FFF8
3FFE000001FFFF000000FFF8
3FFE000001FFFF000000FFF8
3FFE000001FFFF000000FFF8
3FFE000001FFFF000000FFF8
3FFF000001FFFF000001FFF8
3FFF000001FFFF000001FFF8
1FFF000003FFFF000001FFF0
1FFF000003FFFF800001FFF0
1FFF000003FFFF800001FFF0
1FFF000003FFFF800001FFF0
1FFF000003FFFF800001FFF0
1FFF000003FFFF800001FFF0
1FFF800003FFFF800003FFF0
0FFF800007FFFFC00003FFE0
0FFF800007FFFFC00003FFE0
0FFF800007FFFFC00003FFE0
0FFF800007FFFFC00003FFE0
0FFFC00007FFFFC00007FFE0
07FFC00007FFFFC00007FFC0
07FFC0000FFFFFE00007FFC0
07FFC0000FFFFFE00007FFC0
07FFC0000FFFFFE00007FFC0
07FFE0000FFFFFE0000FFFC0
03FFE0001FFFFFF0000FFF80
03FFE0001FFFFFF0000FFF80
03FFE0001FFFFFF0000FFF80
03FFF0001FFFFFF0001FFF00
01FFF0003FFFFFF8001FFF00
01FFF0003FFEFFF8001FFF00
01FFF8003FFEFFF8003FFF00
00FFF8007FFEFFFC003FFE00
00FFF8007FFC7FFC003FFE00
00FFFC00FFFC7FFE007FFE00
007FFC00FFFC7FFE007FFC00
007FFE01FFF83FFF00FFFC00
007FFE01FFF83FFF00FFFC00
003FFF03FFF01FFF81FFF800
003FFF03FFF01FFF81FFF800
001FFF87FFF01FFFC3FFF000
001FFFCFFFE00FFFE7FFF000
000FFFEFFFE00FFFEFFFE000
000FFFFFFFC007FFFFFFE000
0007FFFFFFC007FFFFFFC000
0007FFFFFF8003FFFFFFC000
0003FFFFFF8003FFFFFF8000
0003FFFFFF0001FFFFFF8000
0001FFFFFE0000FFFFFF0000
0000FFFFFE0000FFFFFE0000
0000FFFFFC00007FFFFE0000
00007FFFF800003FFFFC0000
00003FFFF000001FFFF80000
00001FFFF000001FFFF00000
00000FFFE000000FFFE00000
000007FFC0000007FFC00000
000003FF00000001FF800000
000001FE00000000FF000000
000000FC000000007C000000
000000300000000018000000
ENDCHAR
STARTCHAR 0078
ENCODING 120
SWIDTH 540 0
DWIDTH 75 0
BBX 68 95 0 0
BITMAP
FFFF800000001FFFF0
FFFF800000001FFFF0
FFFFC00000003FFFF0
FFFFC00000003FFFF0
FFFFE00000007FFFF0
FFFFE00000007FFFF0
FFFFF0000000FFFFF0
FFFFF0000000FFFFF0
FFFFF8000001FFFFF0
FFFFF8000001FFFFF0
FFFFFC000003FFFFF0
FFFFFE000003FFFFF0
FFFFFE000007FFFFF0
FFFFFF000007FFFFF0
00FFFF00000FFFF000
00FFFF80001FFFF000
007FFF80001FFFE000
003FFFC0003FFFC000
003FFFC0003FFFC000
001FFFE0007FFF8000
001FFFE0007FFF8000
000FFFF000FFFF0000
000FFFF000FFFF0000
0007FFF801FFFE0000
0007FFFC01FFFE0000
0003FFFC03FFFC0000
0003FFFE01FFFC0000
0001FFFE01FFF80000
0000FFFF00FFF80000
0000FFFF007FF00000
00007FFF807FF00000
00007FFF803FE00000
00003FFFC03FE00000
00003FFFC01FC00000
00001FFFE01F800000
00001FFFF00F800000
00000FFFF00F000000
00000FFFF807000000
000007FFF806000000
000007FFFC02000000
000003FFFC00000000
000001FFFE00000000
000001FFFE00000000
000000FFFF00000000
000000FFFF00000000
0000007FFF80000000
0000007FFFC0000000
0000003FFFC0000000
0000003FFFE0000000
0000001FFFE0000000
0000001FFFF0000000
0000000FFFF0000000
00000007FFF8000000
00000007FFF8000000
00000003FFFC000000
00000003FFFC000000
00000401FFFE000000
00000401FFFE000000
00000E00FFFF000000
00001E00FFFF800000
00001F007FFF800000
00003F807FFFC00000
00003F803FFFC00000
00007FC03FFFE00000
00007FC01FFFE00000
0000FFE00FFFF00000
0000FFE00FFFF00000
0001FFF007FFF80000
0003FFF007FFF80000
0003FFF803FFFC0000
0007FFFC03FFFE0000
0007FFF801FFFE0000
000FFFF801FFFF0000
000FFFF000FFFF0000
001FFFE000FFFF8000
001FFFE0007FFF8000
003FFFC0003FFFC000
007FFFC0003FFFC000
007FFF80001FFFE000
00FFFF80001FFFE000
00FFFF00000FFFF000
FFFFFF00000FFFFFF0
FFFFFE000007FFFFF0
FFFFFE000007FFFFF0
FFFFFC000003FFFFF0
FFFFF8000003FFFFF0
FFFFF8000001FFFFF0
FFFFF0000000FFFFF0
FFFFF0000000FFFFF0
FFFFE00000007FFFF0
FFFFE00000007FFFF0
FFFFC00000003FFFF0
FFFFC00000003FFFF0
FFFF800000001FFFF0
FFFF800000001FFFF0
ENDCHAR
STARTCHAR 0079
ENCODING 121
SWIDTH 540 0
DWIDTH 75 0
BBX 68 95 0 0
BITMAP
FFFF800000001FFFF0
FFFF800000001FFFF0
FFFFC00000003FFFF0
FFFFC00000003FFFF0
FFFFE00000007FFFF0
FFFFE00000007FFFF0
FFFFF0000000FFFFF0
FFFFF0000000FFFFF0
FFFFF8000001FFFFF0
FFFFF8000001FFFFF0
FFFFFC000003FFFFF0
FFFFFC000003FFFFF0
FFFFFE000007FFFFF0
FFFFFE000007FFFFF0
00FFFF00000FFFF000
00FFFF80000FFFF000
007FFF80001FFFE000
007FFFC0003FFFC000
003FFFC0003FFFC000
001FFFE0007FFF8000
001FFFE0007FFF8000
000FFFF000FFFF0000
000FFFF000FFFF0000
0007FFF801FFFE0000
0007FFF801FFFE0000
0003FFFC03FFFC0000
0003FFFC01FFFC0000
0001FFFE01FFF80000
0001FFFF00FFF80000
0000FFFF00FFF00000
0000FFFF807FF00000
00007FFF803FE00000
00007FFFC03FE00000
00003FFFC01FC00000
00001FFFE01FC00000
00001FFFE00F800000
00000FFFF00F000000
00000FFFF007000000
000007FFF806000000
000007FFF802000000
000003FFFC00000000
000003FFFC00000000
000001FFFE00000000
000001FFFF00000000
000000FFFF00000000
000000FFFF80000000
0000007FFF80000000
0000007FFF80000000
0000003FFF80000000
0000001FFF80000000
0000001FFF80000000
0000001FFF80000000
0000001FFF80000000
0000001FFF80000000
0000001FFF80000000
0000001FFF80000000
0000001FFF80000000
0000001FFF80000000
0000001FFF80000000
0000001FFF80000000
0000001FFF80000000
0000001FFF80000000
0000001FFF80000000
0000001FFF80000000
0000001FFF80000000
0000001FFF80000000
0000001FFF80000000
0000001FFF80000000
0000001FFF80000000
0000001FFF80000000
0000001FFF80000000
0000001FFF80000000
0000001FFF80000000
0000001FFF80000000
0000001FFF80000000
0000001FFF80000000
0000001FFF80000000
0000001FFF80000000
0000001FFF80000000
0000001FFF80000000
0000001FFF80000000
0000001FFF80000000
0000001FFF80000000
0000001FFF80000000
0000001FFF80000000
0000001FFF80000000
0000001FFF80000000
0000001FFF80000000
0000001FFF80000000
0000001FFF80000000
0000001FFF80000000
0000001FFF80000000
0000001FFF80000000
0000001FFF80000000
0000001FFF80000000
ENDCHAR
STARTCHAR 007A
ENCODING 122
SWIDTH 540 0
DWIDTH 75 0
BBX 68 95 0 0
BITMAP
FFFFFFFFFFFFFFFFF0
FFFFFFFFFFFFFFFFE0
FFFFFFFFFFFFFFFFE0
FFFFFFFFFFFFFFFFC0
FFFFFFFFFFFFFFFF80
FFFFFFFFFFFFFFFF80
FFFFFFFFFFFFFFFF00
FFFFFFFFFFFFFFFF00
FFFFFFFFFFFFFFFE00
FFFFFFFFFFFFFFFE00
FFFFFFFFFFFFFFFC00
FFFFFFFFFFFFFFFC00
FFFFFFFFFFFFFFF800
FFFFFFFFFFFFFFF800
00000000000FFFF000
00000000001FFFE000
00000000001FFFE000
00000000003FFFC000
00000000007FFFC000
00000000007FFF8000
0000000000FFFF8000
0000000000FFFF0000
0000000001FFFF0000
0000000001FFFE0000
0000000003FFFE0000
0000000003FFFC0000
0000000007FFFC0000
0000000007FFF80000
000000000FFFF00000
000000000FFFF00000
000000001FFFE00000
000000003FFFE00000
000000003FFFC00000
000000007FFFC00000
000000007FFF800000
00000000FFFF800000
00000000FFFF000000
00000001FFFF000000
00000001FFFE000000
00000003FFFC000000
00000003FFFC000000
00000007FFF8000000
0000000FFFF8000000
0000000FFFF0000000
0000001FFFF0000000
0000001FFFE0000000
0000003FFFE0000000
0000003FFFC0000000
0000007FFFC0000000
0000007FFF80000000
000000FFFF00000000
000000FFFF00000000
000001FFFE00000000
000003FFFE00000000
000003FFFC00000000
000007FFFC00000000
000007FFF800000000
00000FFFF800000000
00000FFFF000000000
00001FFFF000000000
00001FFFE000000000
00003FFFE000000000
00003FFFC000000000
00007FFF8000000000
00007FFF8000000000
0000FFFF0000000000
0001FFFF0000000000
0001FFFE0000000000
0003FFFE0000000000
0003FFFC0000000000
0007FFFC0000000000
0007FFF80000000000
000FFFF80000000000
000FFFF00000000000
001FFFE00000000000
001FFFE00000000000
003FFFC00000000000
007FFFC00000000000
007FFF800000000000
00FFFF800000000000
00FFFF000000000000
01FFFF00FFFFFFFFF0
01FFFE00FFFFFFFFF0
03FFFE01FFFFFFFFF0
03FFFC01FFFFFFFFF0
07FFF803FFFFFFFFF0
07FFF803FFFFFFFFF0
0FFFF007FFFFFFFFF0
0FFFF00FFFFFFFFFF0
1FFFE00FFFFFFFFFF0
3FFFE01FFFFFFFFFF0
3FFFC01FFFFFFFFFF0
7FFFC03FFFFFFFFFF0
7FFF803FFFFFFFFFF0
FFFF807FFFFFFFFFF0
ENDCHAR
STARTCHAR 007B
ENCODING 123
SWIDTH 295 0
DWIDTH 41 0
BBX 34 109 0 -7
BITMAP
0000000040
0000001FC0
000000FFC0
000001FFC0
000007FFC0
00000FFFC0
00001FFFC0
00003FFFC0
00007FFFC0
0000FFFFC0
0000FFFFC0
0001FFFFC0
0003FFFFC0
0003FFFFC0
0007FFFE00
0007FFF800
000FFFF000
000FFFE000
000FFFC000
001FFFC000
001FFF8000
001FFF8000
003FFF0000
003FFF0000
003FFF0000
003FFE0000
007FFE0000
007FFE0000
007FFE0000
007FFC0000
007FFC0000
00FFFC0000
00FFFC0000
00FFFC0000
00FFF80000
00FFF80000
00FFF80000
00FFF80000
00FFF80000
01FFF80000
01FFF80000
01FFF80000
01FFF80000
01FFF80000
01FFF80000
01FFF80000
01FFF80000
01FFF00000
FFFFF00000
FFFFF00000
FFFFF00000
FFFFF00000
FFFFF00000
FFFFF00000
FFFFF00000
FFFFF00000
FFFFF00000
FFFFF00000
FFFFF00000
FFFFF00000
FFFFF00000
FFFFF00000
01FFF00000
01FFF80000
01FFF80000
01FFF80000
01FFF80000
01FFF80000
01FFF80000
01FFF80000
01FFF80000
00FFF80000
00FFF80000
00FFF80000
00FFF80000
00FFFC0000
00FFFC0000
00FFFC0000
00FFFC0000
007FFC0000
007FFC0000
007FFE0000
007FFE0000
007FFE0000
003FFE0000
003FFF0000
003FFF0000
003FFF8000
001FFF8000
001FFFC000
001FFFC000
000FFFE000
000FFFF000
0007FFF800
0007FFFC00
0003FFFFC0
0003FFFFC0
0001FFFFC0
0001FFFFC0
0000FFFFC0
00007FFFC0
00007FFFC0
00003FFFC0
00001FFFC0
000007FFC0
000003FFC0
000001FFC0
0000003FC0
00000007C0
ENDCHAR
STARTCHAR 007C
ENCODING 124
SWIDTH 144 0
DWIDTH 20 0
BBX 14 95 0 0
BITMAP
FFFC
FFFC
FFFC
FFFC
FFFC
FFFC
FFFC
FFFC
FFFC
FFFC
FFFC
FFFC
FFFC
FFFC
FFFC
FFFC
FFFC
FFFC
FFFC
FFFC
FFFC
FFFC
FFFC
FFFC
FFFC
FFFC
FFFC
FFFC
FFFC
FFFC
FFFC
FFFC
FFFC
FFFC
FFFC
FFFC
FFFC
FFFC
FFFC
FFFC
FFFC
FFFC
FFFC
FFFC
FFFC
FFFC
FFFC
FFFC
FFFC
FFFC
FFFC
FFFC
FFFC
FFFC
FFFC
FFFC
FFFC
FFFC
FFFC
FFFC
FFFC
FFFC
FFFC
FFFC
FFFC
FFFC
FFFC
FFFC
FFFC
FFFC
FFFC
FFFC
FFFC
FFFC
FFFC
FFFC
FFFC
FFFC
FFFC
FFFC
FFFC
FFFC
FFFC
FFFC
FFFC
FFFC
FFFC
FFFC
FFFC
FFFC
FFFC
FFFC
FFFC
FFFC
FFFC
ENDCHAR
STARTCHAR 007D
ENCODING 125
SWIDTH 295 0
DWIDTH 41 0
BBX 34 109 0 -7
BITMAP
8000000000
FE00000000
FFC0000000
FFE0000000
FFF8000000
FFFC000000
FFFE000000
FFFF000000
FFFF800000
FFFFC00000
FFFFC00000
FFFFE00000
FFFFF00000
FFFFF00000
1FFFF80000
07FFF80000
03FFF80000
01FFFC0000
01FFFC0000
00FFFE0000
007FFE0000
007FFE0000
003FFF0000
003FFF0000
003FFF0000
001FFF0000
001FFF8000
001FFF8000
001FFF8000
000FFF8000
000FFF8000
000FFFC000
000FFFC000
000FFFC000
000FFFC000
0007FFC000
0007FFC000
0007FFC000
0007FFC000
0007FFC000
0007FFE000
0007FFE000
0007FFE000
0007FFE000
0007FFE000
0007FFE000
0007FFE000
0007FFE000
0007FFFFC0
0007FFFFC0
0003FFFFC0
0003FFFFC0
0003FFFFC0
0003FFFFC0
0003FFFFC0
0003FFFFC0
0003FFFFC0
0003FFFFC0
0003FFFFC0
0003FFFFC0
0007FFFFC0
0007FFFFC0
0007FFE000
0007FFE000
0007FFE000
0007FFE000
0007FFE000
0007FFE000
0007FFE000
0007FFE000
0007FFC000
0007FFC000
0007FFC000
0007FFC000
000FFFC000
000FFFC000
000FFFC000
000FFFC000
000FFF8000
000FFF8000
001FFF8000
001FFF8000
001FFF8000
001FFF0000
003FFF0000
003FFF0000
003FFF0000
007FFE0000
007FFE0000
00FFFE0000
00FFFC0000
01FFFC0000
03FFFC0000
07FFF80000
0FFFF80000
FFFFF00000
FFFFF00000
FFFFE00000
FFFFE00000
FFFFC00000
FFFF800000
FFFF000000
FFFF000000
FFFC000000
FFF8000000
FFF0000000
FFC0000000
FF00000000
F800000000
ENDCHAR
STARTCHAR 007E
ENCODING 126
SWIDTH 295 0
DWIDTH 41 0
BBX 34 14 0 41
BITMAP
FFFFFFFFC0
FFFFFFFFC0
FFFFFFFFC0
FFFFFFFFC0
FFFFFFFFC0
FFFFFFFFC0
FFFFFFFFC0
FFFFFFFFC0
FFFFFFFFC0
FFFFFFFFC0
FFFFFFFFC0
FFFFFFFFC0
FFFFFFFFC0
FFFFFFFFC0
ENDCHAR
STARTCHAR 00A0
ENCODING 160
SWIDTH 244 0
DWIDTH 34 0
BBX 0 0 0 0
BITMAP
ENDCHAR
STARTCHAR 00AD
ENCODING 173
SWIDTH 295 0
DWIDTH 41 0
BBX 34 14 0 41
BITMAP
FFFFFFFFC0
FFFFFFFFC0
FFFFFFFFC0
FFFFFFFFC0
FFFFFFFFC0
FFFFFFFFC0
FFFFFFFFC0
FFFFFFFFC0
FFFFFFFFC0
FFFFFFFFC0
FFFFFFFFC0
FFFFFFFFC0
FFFFFFFFC0
FFFFFFFFC0
ENDCHAR
STARTCHAR 037E
ENCODING 894
SWIDTH 144 0
DWIDTH 20 0
BBX 14 84 0 -14
BITMAP
FFFC
FFFC
FFFC
FFFC
FFFC
FFFC
FFFC
FFFC
FFFC
FFFC
FFFC
FFFC
FFFC
FFFC
0000
0000
0000
0000
0000
0000
0000
0000
0000
0000
0000
0000
0000
0000
0000
0000
0000
0000
0000
0000
0000
0000
0000
0000
0000
0000
0000
0000
0000
0000
0000
0000
0000
0000
0000
0000
0000
0000
0000
0000
0000
0000
FFFC
FFFC
FFFC
FFFC
FFFC
FFFC
FFFC
FFFC
FFFC
FFFC
FFFC
FFFC
FFFC
FFFC
FFFC
FFFC
FFFC
FFFC
FFFC
FFFC
FFFC
FFFC
FFFC
FFFC
FFFC
FFFC
FFFC
FFFC
ENDCHAR
ENDFONT
